  0
SECTION
  2
BLOCKS
  0
ENDSEC
  0
SECTION
  2
ENTITIES
  0
LINE
  8
0
 10
10.9554
 20
-19.3814
 11
11.3069
 21
-19.3257
  0
LINE
  8
0
 10
11.3069
 20
-19.3257
 11
11.6506
 21
-19.2336
  0
LINE
  8
0
 10
11.6506
 20
-19.2336
 11
11.9829
 21
-19.106
  0
LINE
  8
0
 10
11.9829
 20
-19.106
 11
12.3
 21
-18.9445
  0
LINE
  8
0
 10
12.3
 20
-18.9445
 11
12.5984
 21
-18.7507
  0
LINE
  8
0
 10
12.5984
 20
-18.7507
 11
12.875
 21
-18.5267
  0
LINE
  8
0
 10
12.875
 20
-18.5267
 11
13.1267
 21
-18.275
  0
LINE
  8
0
 10
13.1267
 20
-18.275
 11
13.3506
 21
-17.9985
  0
LINE
  8
0
 10
13.3506
 20
-17.9985
 11
13.5445
 21
-17.7
  0
LINE
  8
0
 10
13.5445
 20
-17.7
 11
13.706
 21
-17.3829
  0
LINE
  8
0
 10
13.706
 20
-17.3829
 11
13.8336
 21
-17.0506
  0
LINE
  8
0
 10
13.8336
 20
-17.0506
 11
13.9257
 21
-16.7069
  0
LINE
  8
0
 10
13.9257
 20
-16.7069
 11
13.9814
 21
-16.3554
  0
LINE
  8
0
 10
13.9814
 20
-16.3554
 11
14
 21
-16
  0
LINE
  8
0
 10
14
 20
-16
 11
14
 21
5.7
  0
LINE
  8
0
 10
14
 20
5.7
 11
14.0186
 21
6.05539
  0
LINE
  8
0
 10
14.0186
 20
6.05539
 11
14.0743
 21
6.40689
  0
LINE
  8
0
 10
14.0743
 20
6.40689
 11
14.1664
 21
6.75066
  0
LINE
  8
0
 10
14.1664
 20
6.75066
 11
14.2939
 21
7.0829
  0
LINE
  8
0
 10
14.2939
 20
7.0829
 11
14.4555
 21
7.39999
  0
LINE
  8
0
 10
14.4555
 20
7.39999
 11
14.6493
 21
7.69846
  0
LINE
  8
0
 10
14.6493
 20
7.69846
 11
14.8733
 21
7.97504
  0
LINE
  8
0
 10
14.8733
 20
7.97504
 11
15.125
 21
8.22668
  0
LINE
  8
0
 10
15.125
 20
8.22668
 11
15.4015
 21
8.45065
  0
LINE
  8
0
 10
15.4015
 20
8.45065
 11
15.7
 21
8.64449
  0
LINE
  8
0
 10
15.7
 20
8.64449
 11
16.0171
 21
8.80605
  0
LINE
  8
0
 10
16.0171
 20
8.80605
 11
16.3493
 21
8.93358
  0
LINE
  8
0
 10
16.3493
 20
8.93358
 11
16.6931
 21
9.0257
  0
LINE
  8
0
 10
16.6931
 20
9.0257
 11
17.0446
 21
9.08136
  0
LINE
  8
0
 10
17.0446
 20
9.08136
 11
17.4
 21
9.09999
  0
LINE
  8
0
 10
17.4
 20
9.09999
 11
17.7554
 21
9.08136
  0
LINE
  8
0
 10
17.7554
 20
9.08136
 11
20
 21
8.8569
  0
LINE
  8
0
 10
20
 20
8.8569
 11
20
 21
8.86444
  0
LINE
  8
0
 10
20
 20
8.86444
 11
48.1446
 21
6.11862
  0
LINE
  8
0
 10
48.1446
 20
6.11862
 11
48.5
 21
6.09999
  0
LINE
  8
0
 10
48.5
 20
6.09999
 11
48.8554
 21
6.11862
  0
LINE
  8
0
 10
48.8554
 20
6.11862
 11
49.2069
 21
6.17429
  0
LINE
  8
0
 10
49.2069
 20
6.17429
 11
49.5506
 21
6.2664
  0
LINE
  8
0
 10
49.5506
 20
6.2664
 11
49.8829
 21
6.39394
  0
LINE
  8
0
 10
49.8829
 20
6.39394
 11
50.2
 21
6.55551
  0
LINE
  8
0
 10
50.2
 20
6.55551
 11
50.4985
 21
6.74933
  0
LINE
  8
0
 10
50.4985
 20
6.74933
 11
50.775
 21
6.9733
  0
LINE
  8
0
 10
50.775
 20
6.9733
 11
51.0267
 21
7.22495
  0
LINE
  8
0
 10
51.0267
 20
7.22495
 11
51.2507
 21
7.50153
  0
LINE
  8
0
 10
51.2507
 20
7.50153
 11
51.4445
 21
7.79999
  0
LINE
  8
0
 10
51.4445
 20
7.79999
 11
51.606
 21
8.11708
  0
LINE
  8
0
 10
51.606
 20
8.11708
 11
51.7336
 21
8.44934
  0
LINE
  8
0
 10
51.7336
 20
8.44934
 11
51.8257
 21
8.79309
  0
LINE
  8
0
 10
51.8257
 20
8.79309
 11
51.8814
 21
9.14459
  0
LINE
  8
0
 10
51.8814
 20
9.14459
 11
53.8814
 21
30.1446
  0
LINE
  8
0
 10
53.8814
 20
30.1446
 11
53.9
 21
30.5
  0
LINE
  8
0
 10
53.9
 20
30.5
 11
53.8814
 21
30.8554
  0
LINE
  8
0
 10
53.8814
 20
30.8554
 11
53.8257
 21
31.2069
  0
LINE
  8
0
 10
53.8257
 20
31.2069
 11
53.7336
 21
31.5506
  0
LINE
  8
0
 10
53.7336
 20
31.5506
 11
53.606
 21
31.8829
  0
LINE
  8
0
 10
53.606
 20
31.8829
 11
53.4445
 21
32.2
  0
LINE
  8
0
 10
53.4445
 20
32.2
 11
53.2507
 21
32.4985
  0
LINE
  8
0
 10
53.2507
 20
32.4985
 11
53.0267
 21
32.775
  0
LINE
  8
0
 10
53.0267
 20
32.775
 11
52.775
 21
33.0267
  0
LINE
  8
0
 10
52.775
 20
33.0267
 11
52.4985
 21
33.2507
  0
LINE
  8
0
 10
52.4985
 20
33.2507
 11
52.2
 21
33.4445
  0
LINE
  8
0
 10
52.2
 20
33.4445
 11
51.8829
 21
33.606
  0
LINE
  8
0
 10
51.8829
 20
33.606
 11
51.5506
 21
33.7336
  0
LINE
  8
0
 10
51.5506
 20
33.7336
 11
11.5506
 21
48.7336
  0
LINE
  8
0
 10
11.5506
 20
48.7336
 11
11.2069
 21
48.8257
  0
LINE
  8
0
 10
11.2069
 20
48.8257
 11
10.8554
 21
48.8814
  0
LINE
  8
0
 10
10.8554
 20
48.8814
 11
10.5
 21
48.9
  0
LINE
  8
0
 10
10.5
 20
48.9
 11
10.1446
 21
48.8814
  0
LINE
  8
0
 10
10.1446
 20
48.8814
 11
9.79309
 21
48.8257
  0
LINE
  8
0
 10
9.79309
 20
48.8257
 11
9.44934
 21
48.7336
  0
LINE
  8
0
 10
9.44934
 20
48.7336
 11
9.11708
 21
48.606
  0
LINE
  8
0
 10
9.11708
 20
48.606
 11
8.79999
 21
48.4445
  0
LINE
  8
0
 10
8.79999
 20
48.4445
 11
8.50153
 21
48.2507
  0
LINE
  8
0
 10
8.50153
 20
48.2507
 11
8.22495
 21
48.0267
  0
LINE
  8
0
 10
8.22495
 20
48.0267
 11
7.9733
 21
47.775
  0
LINE
  8
0
 10
7.9733
 20
47.775
 11
7.74933
 21
47.4985
  0
LINE
  8
0
 10
7.74933
 20
47.4985
 11
7.55551
 21
47.2
  0
LINE
  8
0
 10
7.55551
 20
47.2
 11
7.39394
 21
46.8829
  0
LINE
  8
0
 10
7.39394
 20
46.8829
 11
7.2664
 21
46.5506
  0
LINE
  8
0
 10
7.2664
 20
46.5506
 11
7.17429
 21
46.2069
  0
LINE
  8
0
 10
7.17429
 20
46.2069
 11
7.11862
 21
45.8554
  0
LINE
  8
0
 10
7.11862
 20
45.8554
 11
6.31064
 21
37.2369
  0
LINE
  8
0
 10
6.31064
 20
37.2369
 11
6.23358
 21
36.9493
  0
LINE
  8
0
 10
6.23358
 20
36.9493
 11
6.10605
 21
36.6171
  0
LINE
  8
0
 10
6.10605
 20
36.6171
 11
5.94447
 21
36.3
  0
LINE
  8
0
 10
5.94447
 20
36.3
 11
5.75066
 21
36.0015
  0
LINE
  8
0
 10
5.75066
 20
36.0015
 11
5.52669
 21
35.7249
  0
LINE
  8
0
 10
5.52669
 20
35.7249
 11
5.27504
 21
35.4733
  0
LINE
  8
0
 10
5.27504
 20
35.4733
 11
4.99846
 21
35.2493
  0
LINE
  8
0
 10
4.99846
 20
35.2493
 11
4.7
 21
35.0555
  0
LINE
  8
0
 10
4.7
 20
35.0555
 11
4.3829
 21
34.8939
  0
LINE
  8
0
 10
4.3829
 20
34.8939
 11
4.05064
 21
34.7664
  0
LINE
  8
0
 10
4.05064
 20
34.7664
 11
3.70689
 21
34.6743
  0
LINE
  8
0
 10
3.70689
 20
34.6743
 11
3.35539
 21
34.6186
  0
LINE
  8
0
 10
3.35539
 20
34.6186
 11
3
 21
34.6
  0
LINE
  8
0
 10
3
 20
34.6
 11
-3
 21
34.6
  0
LINE
  8
0
 10
-3
 20
34.6
 11
-3.35539
 21
34.6186
  0
LINE
  8
0
 10
-3.35539
 20
34.6186
 11
-3.70689
 21
34.6743
  0
LINE
  8
0
 10
-3.70689
 20
34.6743
 11
-4.05064
 21
34.7664
  0
LINE
  8
0
 10
-4.05064
 20
34.7664
 11
-4.3829
 21
34.8939
  0
LINE
  8
0
 10
-4.3829
 20
34.8939
 11
-4.7
 21
35.0555
  0
LINE
  8
0
 10
-4.7
 20
35.0555
 11
-4.99846
 21
35.2493
  0
LINE
  8
0
 10
-4.99846
 20
35.2493
 11
-5.27504
 21
35.4733
  0
LINE
  8
0
 10
-5.27504
 20
35.4733
 11
-5.52669
 21
35.7249
  0
LINE
  8
0
 10
-5.52669
 20
35.7249
 11
-5.75066
 21
36.0015
  0
LINE
  8
0
 10
-5.75066
 20
36.0015
 11
-5.94447
 21
36.3
  0
LINE
  8
0
 10
-5.94447
 20
36.3
 11
-6.10605
 21
36.6171
  0
LINE
  8
0
 10
-6.10605
 20
36.6171
 11
-6.23358
 21
36.9493
  0
LINE
  8
0
 10
-6.23358
 20
36.9493
 11
-6.31064
 21
37.2369
  0
LINE
  8
0
 10
-6.31064
 20
37.2369
 11
-7.11862
 21
45.8554
  0
LINE
  8
0
 10
-7.11862
 20
45.8554
 11
-7.17429
 21
46.2069
  0
LINE
  8
0
 10
-7.17429
 20
46.2069
 11
-7.2664
 21
46.5506
  0
LINE
  8
0
 10
-7.2664
 20
46.5506
 11
-7.39394
 21
46.8829
  0
LINE
  8
0
 10
-7.39394
 20
46.8829
 11
-7.55551
 21
47.2
  0
LINE
  8
0
 10
-7.55551
 20
47.2
 11
-7.74933
 21
47.4985
  0
LINE
  8
0
 10
-7.74933
 20
47.4985
 11
-7.9733
 21
47.775
  0
LINE
  8
0
 10
-7.9733
 20
47.775
 11
-8.22495
 21
48.0267
  0
LINE
  8
0
 10
-8.22495
 20
48.0267
 11
-8.50153
 21
48.2507
  0
LINE
  8
0
 10
-8.50153
 20
48.2507
 11
-8.79999
 21
48.4445
  0
LINE
  8
0
 10
-8.79999
 20
48.4445
 11
-9.11708
 21
48.606
  0
LINE
  8
0
 10
-9.11708
 20
48.606
 11
-9.44934
 21
48.7336
  0
LINE
  8
0
 10
-9.44934
 20
48.7336
 11
-9.79309
 21
48.8257
  0
LINE
  8
0
 10
-9.79309
 20
48.8257
 11
-10.1446
 21
48.8814
  0
LINE
  8
0
 10
-10.1446
 20
48.8814
 11
-10.5
 21
48.9
  0
LINE
  8
0
 10
-10.5
 20
48.9
 11
-10.8554
 21
48.8814
  0
LINE
  8
0
 10
-10.8554
 20
48.8814
 11
-11.2069
 21
48.8257
  0
LINE
  8
0
 10
-11.2069
 20
48.8257
 11
-11.5506
 21
48.7336
  0
LINE
  8
0
 10
-11.5506
 20
48.7336
 11
-51.5506
 21
33.7336
  0
LINE
  8
0
 10
-51.5506
 20
33.7336
 11
-51.8829
 21
33.606
  0
LINE
  8
0
 10
-51.8829
 20
33.606
 11
-52.2
 21
33.4445
  0
LINE
  8
0
 10
-52.2
 20
33.4445
 11
-52.4985
 21
33.2507
  0
LINE
  8
0
 10
-52.4985
 20
33.2507
 11
-52.775
 21
33.0267
  0
LINE
  8
0
 10
-52.775
 20
33.0267
 11
-53.0267
 21
32.775
  0
LINE
  8
0
 10
-53.0267
 20
32.775
 11
-53.2507
 21
32.4985
  0
LINE
  8
0
 10
-53.2507
 20
32.4985
 11
-53.4445
 21
32.2
  0
LINE
  8
0
 10
-53.4445
 20
32.2
 11
-53.606
 21
31.8829
  0
LINE
  8
0
 10
-53.606
 20
31.8829
 11
-53.7336
 21
31.5506
  0
LINE
  8
0
 10
-53.7336
 20
31.5506
 11
-53.8257
 21
31.2069
  0
LINE
  8
0
 10
-53.8257
 20
31.2069
 11
-53.8814
 21
30.8554
  0
LINE
  8
0
 10
-53.8814
 20
30.8554
 11
-53.9
 21
30.5
  0
LINE
  8
0
 10
-53.9
 20
30.5
 11
-53.8814
 21
30.1446
  0
LINE
  8
0
 10
-53.8814
 20
30.1446
 11
-51.8814
 21
9.14459
  0
LINE
  8
0
 10
-51.8814
 20
9.14459
 11
-51.8257
 21
8.79309
  0
LINE
  8
0
 10
-51.8257
 20
8.79309
 11
-51.7336
 21
8.44934
  0
LINE
  8
0
 10
-51.7336
 20
8.44934
 11
-51.606
 21
8.11708
  0
LINE
  8
0
 10
-51.606
 20
8.11708
 11
-51.4445
 21
7.79999
  0
LINE
  8
0
 10
-51.4445
 20
7.79999
 11
-51.2507
 21
7.50153
  0
LINE
  8
0
 10
-51.2507
 20
7.50153
 11
-51.0267
 21
7.22495
  0
LINE
  8
0
 10
-51.0267
 20
7.22495
 11
-50.775
 21
6.9733
  0
LINE
  8
0
 10
-50.775
 20
6.9733
 11
-50.4985
 21
6.74933
  0
LINE
  8
0
 10
-50.4985
 20
6.74933
 11
-50.2
 21
6.55551
  0
LINE
  8
0
 10
-50.2
 20
6.55551
 11
-49.8829
 21
6.39394
  0
LINE
  8
0
 10
-49.8829
 20
6.39394
 11
-49.5506
 21
6.2664
  0
LINE
  8
0
 10
-49.5506
 20
6.2664
 11
-49.2069
 21
6.17429
  0
LINE
  8
0
 10
-49.2069
 20
6.17429
 11
-48.8554
 21
6.11862
  0
LINE
  8
0
 10
-48.8554
 20
6.11862
 11
-48.5
 21
6.09999
  0
LINE
  8
0
 10
-48.5
 20
6.09999
 11
-48.1446
 21
6.11862
  0
LINE
  8
0
 10
-48.1446
 20
6.11862
 11
-20
 21
8.86444
  0
LINE
  8
0
 10
-20
 20
8.86444
 11
-20
 21
8.8569
  0
LINE
  8
0
 10
-20
 20
8.8569
 11
-17.7554
 21
9.08136
  0
LINE
  8
0
 10
-17.7554
 20
9.08136
 11
-17.4
 21
9.09999
  0
LINE
  8
0
 10
-17.4
 20
9.09999
 11
-17.0446
 21
9.08136
  0
LINE
  8
0
 10
-17.0446
 20
9.08136
 11
-16.6931
 21
9.0257
  0
LINE
  8
0
 10
-16.6931
 20
9.0257
 11
-16.3493
 21
8.93358
  0
LINE
  8
0
 10
-16.3493
 20
8.93358
 11
-16.0171
 21
8.80605
  0
LINE
  8
0
 10
-16.0171
 20
8.80605
 11
-15.7
 21
8.64449
  0
LINE
  8
0
 10
-15.7
 20
8.64449
 11
-15.4015
 21
8.45065
  0
LINE
  8
0
 10
-15.4015
 20
8.45065
 11
-15.125
 21
8.22668
  0
LINE
  8
0
 10
-15.125
 20
8.22668
 11
-14.8733
 21
7.97504
  0
LINE
  8
0
 10
-14.8733
 20
7.97504
 11
-14.6493
 21
7.69846
  0
LINE
  8
0
 10
-14.6493
 20
7.69846
 11
-14.4555
 21
7.39999
  0
LINE
  8
0
 10
-14.4555
 20
7.39999
 11
-14.2939
 21
7.0829
  0
LINE
  8
0
 10
-14.2939
 20
7.0829
 11
-14.1664
 21
6.75066
  0
LINE
  8
0
 10
-14.1664
 20
6.75066
 11
-14.0743
 21
6.40689
  0
LINE
  8
0
 10
-14.0743
 20
6.40689
 11
-14.0186
 21
6.05539
  0
LINE
  8
0
 10
-14.0186
 20
6.05539
 11
-14
 21
5.7
  0
LINE
  8
0
 10
-14
 20
5.7
 11
-14
 21
-16
  0
LINE
  8
0
 10
-14
 20
-16
 11
-13.9814
 21
-16.3554
  0
LINE
  8
0
 10
-13.9814
 20
-16.3554
 11
-13.9257
 21
-16.7069
  0
LINE
  8
0
 10
-13.9257
 20
-16.7069
 11
-13.8336
 21
-17.0506
  0
LINE
  8
0
 10
-13.8336
 20
-17.0506
 11
-13.706
 21
-17.3829
  0
LINE
  8
0
 10
-13.706
 20
-17.3829
 11
-13.5445
 21
-17.7
  0
LINE
  8
0
 10
-13.5445
 20
-17.7
 11
-13.3506
 21
-17.9985
  0
LINE
  8
0
 10
-13.3506
 20
-17.9985
 11
-13.1267
 21
-18.275
  0
LINE
  8
0
 10
-13.1267
 20
-18.275
 11
-12.875
 21
-18.5267
  0
LINE
  8
0
 10
-12.875
 20
-18.5267
 11
-12.5984
 21
-18.7507
  0
LINE
  8
0
 10
-12.5984
 20
-18.7507
 11
-12.3
 21
-18.9445
  0
LINE
  8
0
 10
-12.3
 20
-18.9445
 11
-11.9829
 21
-19.106
  0
LINE
  8
0
 10
-11.9829
 20
-19.106
 11
-11.6506
 21
-19.2336
  0
LINE
  8
0
 10
-11.6506
 20
-19.2336
 11
-11.3069
 21
-19.3257
  0
LINE
  8
0
 10
-11.3069
 20
-19.3257
 11
-10.9554
 21
-19.3814
  0
LINE
  8
0
 10
-10.9554
 20
-19.3814
 11
-10.6
 21
-19.4
  0
LINE
  8
0
 10
-10.6
 20
-19.4
 11
10.6
 21
-19.4
  0
LINE
  8
0
 10
10.6
 20
-19.4
 11
10.9554
 21
-19.3814
  0
LINE
  8
0
 10
-10.6881
 20
43.7099
 11
-10.8742
 21
43.7393
  0
LINE
  8
0
 10
-10.8742
 20
43.7393
 11
-11.0562
 21
43.7881
  0
LINE
  8
0
 10
-11.0562
 20
43.7881
 11
-11.2321
 21
43.8556
  0
LINE
  8
0
 10
-11.2321
 20
43.8556
 11
-11.4
 21
43.9411
  0
LINE
  8
0
 10
-11.4
 20
43.9411
 11
-11.558
 21
44.0438
  0
LINE
  8
0
 10
-11.558
 20
44.0438
 11
-11.7044
 21
44.1623
  0
LINE
  8
0
 10
-11.7044
 20
44.1623
 11
-11.8376
 21
44.2956
  0
LINE
  8
0
 10
-11.8376
 20
44.2956
 11
-11.9562
 21
44.442
  0
LINE
  8
0
 10
-11.9562
 20
44.442
 11
-12.0588
 21
44.6
  0
LINE
  8
0
 10
-12.0588
 20
44.6
 11
-12.1444
 21
44.7679
  0
LINE
  8
0
 10
-12.1444
 20
44.7679
 11
-12.2119
 21
44.9438
  0
LINE
  8
0
 10
-12.2119
 20
44.9438
 11
-12.2607
 21
45.1257
  0
LINE
  8
0
 10
-12.2607
 20
45.1257
 11
-12.2901
 21
45.3118
  0
LINE
  8
0
 10
-12.2901
 20
45.3118
 11
-12.3
 21
45.5
  0
LINE
  8
0
 10
-12.3
 20
45.5
 11
-12.2901
 21
45.6881
  0
LINE
  8
0
 10
-12.2901
 20
45.6881
 11
-12.2607
 21
45.8742
  0
LINE
  8
0
 10
-12.2607
 20
45.8742
 11
-12.2119
 21
46.0562
  0
LINE
  8
0
 10
-12.2119
 20
46.0562
 11
-12.1444
 21
46.2321
  0
LINE
  8
0
 10
-12.1444
 20
46.2321
 11
-12.0588
 21
46.4
  0
LINE
  8
0
 10
-12.0588
 20
46.4
 11
-11.9562
 21
46.558
  0
LINE
  8
0
 10
-11.9562
 20
46.558
 11
-11.8376
 21
46.7044
  0
LINE
  8
0
 10
-11.8376
 20
46.7044
 11
-11.7044
 21
46.8376
  0
LINE
  8
0
 10
-11.7044
 20
46.8376
 11
-11.558
 21
46.9562
  0
LINE
  8
0
 10
-11.558
 20
46.9562
 11
-11.4
 21
47.0588
  0
LINE
  8
0
 10
-11.4
 20
47.0588
 11
-11.2321
 21
47.1444
  0
LINE
  8
0
 10
-11.2321
 20
47.1444
 11
-11.0562
 21
47.2119
  0
LINE
  8
0
 10
-11.0562
 20
47.2119
 11
-10.8742
 21
47.2607
  0
LINE
  8
0
 10
-10.8742
 20
47.2607
 11
-10.6881
 21
47.2901
  0
LINE
  8
0
 10
-10.6881
 20
47.2901
 11
-10.5
 21
47.3
  0
LINE
  8
0
 10
-10.5
 20
47.3
 11
-10.3118
 21
47.2901
  0
LINE
  8
0
 10
-10.3118
 20
47.2901
 11
-10.1257
 21
47.2607
  0
LINE
  8
0
 10
-10.1257
 20
47.2607
 11
-9.94376
 21
47.2119
  0
LINE
  8
0
 10
-9.94376
 20
47.2119
 11
-9.76787
 21
47.1444
  0
LINE
  8
0
 10
-9.76787
 20
47.1444
 11
-9.59999
 21
47.0588
  0
LINE
  8
0
 10
-9.59999
 20
47.0588
 11
-9.44199
 21
46.9562
  0
LINE
  8
0
 10
-9.44199
 20
46.9562
 11
-9.29556
 21
46.8376
  0
LINE
  8
0
 10
-9.29556
 20
46.8376
 11
-9.16234
 21
46.7044
  0
LINE
  8
0
 10
-9.16234
 20
46.7044
 11
-9.04376
 21
46.558
  0
LINE
  8
0
 10
-9.04376
 20
46.558
 11
-8.94115
 21
46.4
  0
LINE
  8
0
 10
-8.94115
 20
46.4
 11
-8.85561
 21
46.2321
  0
LINE
  8
0
 10
-8.85561
 20
46.2321
 11
-8.78809
 21
46.0562
  0
LINE
  8
0
 10
-8.78809
 20
46.0562
 11
-8.73933
 21
45.8742
  0
LINE
  8
0
 10
-8.73933
 20
45.8742
 11
-8.70985
 21
45.6881
  0
LINE
  8
0
 10
-8.70985
 20
45.6881
 11
-8.7
 21
45.5
  0
LINE
  8
0
 10
-8.7
 20
45.5
 11
-8.70985
 21
45.3118
  0
LINE
  8
0
 10
-8.70985
 20
45.3118
 11
-8.73933
 21
45.1257
  0
LINE
  8
0
 10
-8.73933
 20
45.1257
 11
-8.78809
 21
44.9438
  0
LINE
  8
0
 10
-8.78809
 20
44.9438
 11
-8.85561
 21
44.7679
  0
LINE
  8
0
 10
-8.85561
 20
44.7679
 11
-8.94115
 21
44.6
  0
LINE
  8
0
 10
-8.94115
 20
44.6
 11
-9.04376
 21
44.442
  0
LINE
  8
0
 10
-9.04376
 20
44.442
 11
-9.16234
 21
44.2956
  0
LINE
  8
0
 10
-9.16234
 20
44.2956
 11
-9.29556
 21
44.1623
  0
LINE
  8
0
 10
-9.29556
 20
44.1623
 11
-9.44199
 21
44.0438
  0
LINE
  8
0
 10
-9.44199
 20
44.0438
 11
-9.59999
 21
43.9411
  0
LINE
  8
0
 10
-9.59999
 20
43.9411
 11
-9.76787
 21
43.8556
  0
LINE
  8
0
 10
-9.76787
 20
43.8556
 11
-9.94376
 21
43.7881
  0
LINE
  8
0
 10
-9.94376
 20
43.7881
 11
-10.1257
 21
43.7393
  0
LINE
  8
0
 10
-10.1257
 20
43.7393
 11
-10.3118
 21
43.7099
  0
LINE
  8
0
 10
-10.3118
 20
43.7099
 11
-10.5
 21
43.7
  0
LINE
  8
0
 10
-10.5
 20
43.7
 11
-10.6881
 21
43.7099
  0
LINE
  8
0
 10
10.3118
 20
43.7099
 11
10.1257
 21
43.7393
  0
LINE
  8
0
 10
10.1257
 20
43.7393
 11
9.94376
 21
43.7881
  0
LINE
  8
0
 10
9.94376
 20
43.7881
 11
9.76787
 21
43.8556
  0
LINE
  8
0
 10
9.76787
 20
43.8556
 11
9.59999
 21
43.9411
  0
LINE
  8
0
 10
9.59999
 20
43.9411
 11
9.44199
 21
44.0438
  0
LINE
  8
0
 10
9.44199
 20
44.0438
 11
9.29556
 21
44.1623
  0
LINE
  8
0
 10
9.29556
 20
44.1623
 11
9.16234
 21
44.2956
  0
LINE
  8
0
 10
9.16234
 20
44.2956
 11
9.04376
 21
44.442
  0
LINE
  8
0
 10
9.04376
 20
44.442
 11
8.94115
 21
44.6
  0
LINE
  8
0
 10
8.94115
 20
44.6
 11
8.85561
 21
44.7679
  0
LINE
  8
0
 10
8.85561
 20
44.7679
 11
8.78809
 21
44.9438
  0
LINE
  8
0
 10
8.78809
 20
44.9438
 11
8.73933
 21
45.1257
  0
LINE
  8
0
 10
8.73933
 20
45.1257
 11
8.70985
 21
45.3118
  0
LINE
  8
0
 10
8.70985
 20
45.3118
 11
8.7
 21
45.5
  0
LINE
  8
0
 10
8.7
 20
45.5
 11
8.70985
 21
45.6881
  0
LINE
  8
0
 10
8.70985
 20
45.6881
 11
8.73933
 21
45.8742
  0
LINE
  8
0
 10
8.73933
 20
45.8742
 11
8.78809
 21
46.0562
  0
LINE
  8
0
 10
8.78809
 20
46.0562
 11
8.85561
 21
46.2321
  0
LINE
  8
0
 10
8.85561
 20
46.2321
 11
8.94115
 21
46.4
  0
LINE
  8
0
 10
8.94115
 20
46.4
 11
9.04376
 21
46.558
  0
LINE
  8
0
 10
9.04376
 20
46.558
 11
9.16234
 21
46.7044
  0
LINE
  8
0
 10
9.16234
 20
46.7044
 11
9.29556
 21
46.8376
  0
LINE
  8
0
 10
9.29556
 20
46.8376
 11
9.44199
 21
46.9562
  0
LINE
  8
0
 10
9.44199
 20
46.9562
 11
9.59999
 21
47.0588
  0
LINE
  8
0
 10
9.59999
 20
47.0588
 11
9.76787
 21
47.1444
  0
LINE
  8
0
 10
9.76787
 20
47.1444
 11
9.94376
 21
47.2119
  0
LINE
  8
0
 10
9.94376
 20
47.2119
 11
10.1257
 21
47.2607
  0
LINE
  8
0
 10
10.1257
 20
47.2607
 11
10.3118
 21
47.2901
  0
LINE
  8
0
 10
10.3118
 20
47.2901
 11
10.5
 21
47.3
  0
LINE
  8
0
 10
10.5
 20
47.3
 11
10.6881
 21
47.2901
  0
LINE
  8
0
 10
10.6881
 20
47.2901
 11
10.8742
 21
47.2607
  0
LINE
  8
0
 10
10.8742
 20
47.2607
 11
11.0562
 21
47.2119
  0
LINE
  8
0
 10
11.0562
 20
47.2119
 11
11.2321
 21
47.1444
  0
LINE
  8
0
 10
11.2321
 20
47.1444
 11
11.4
 21
47.0588
  0
LINE
  8
0
 10
11.4
 20
47.0588
 11
11.558
 21
46.9562
  0
LINE
  8
0
 10
11.558
 20
46.9562
 11
11.7044
 21
46.8376
  0
LINE
  8
0
 10
11.7044
 20
46.8376
 11
11.8376
 21
46.7044
  0
LINE
  8
0
 10
11.8376
 20
46.7044
 11
11.9562
 21
46.558
  0
LINE
  8
0
 10
11.9562
 20
46.558
 11
12.0588
 21
46.4
  0
LINE
  8
0
 10
12.0588
 20
46.4
 11
12.1444
 21
46.2321
  0
LINE
  8
0
 10
12.1444
 20
46.2321
 11
12.2119
 21
46.0562
  0
LINE
  8
0
 10
12.2119
 20
46.0562
 11
12.2607
 21
45.8742
  0
LINE
  8
0
 10
12.2607
 20
45.8742
 11
12.2901
 21
45.6881
  0
LINE
  8
0
 10
12.2901
 20
45.6881
 11
12.3
 21
45.5
  0
LINE
  8
0
 10
12.3
 20
45.5
 11
12.2901
 21
45.3118
  0
LINE
  8
0
 10
12.2901
 20
45.3118
 11
12.2607
 21
45.1257
  0
LINE
  8
0
 10
12.2607
 20
45.1257
 11
12.2119
 21
44.9438
  0
LINE
  8
0
 10
12.2119
 20
44.9438
 11
12.1444
 21
44.7679
  0
LINE
  8
0
 10
12.1444
 20
44.7679
 11
12.0588
 21
44.6
  0
LINE
  8
0
 10
12.0588
 20
44.6
 11
11.9562
 21
44.442
  0
LINE
  8
0
 10
11.9562
 20
44.442
 11
11.8376
 21
44.2956
  0
LINE
  8
0
 10
11.8376
 20
44.2956
 11
11.7044
 21
44.1623
  0
LINE
  8
0
 10
11.7044
 20
44.1623
 11
11.558
 21
44.0438
  0
LINE
  8
0
 10
11.558
 20
44.0438
 11
11.4
 21
43.9411
  0
LINE
  8
0
 10
11.4
 20
43.9411
 11
11.2321
 21
43.8556
  0
LINE
  8
0
 10
11.2321
 20
43.8556
 11
11.0562
 21
43.7881
  0
LINE
  8
0
 10
11.0562
 20
43.7881
 11
10.8742
 21
43.7393
  0
LINE
  8
0
 10
10.8742
 20
43.7393
 11
10.6881
 21
43.7099
  0
LINE
  8
0
 10
10.6881
 20
43.7099
 11
10.5
 21
43.7
  0
LINE
  8
0
 10
10.5
 20
43.7
 11
10.3118
 21
43.7099
  0
LINE
  8
0
 10
-50.6881
 20
28.7099
 11
-50.8742
 21
28.7393
  0
LINE
  8
0
 10
-50.8742
 20
28.7393
 11
-51.0562
 21
28.7881
  0
LINE
  8
0
 10
-51.0562
 20
28.7881
 11
-51.2321
 21
28.8556
  0
LINE
  8
0
 10
-51.2321
 20
28.8556
 11
-51.4
 21
28.9411
  0
LINE
  8
0
 10
-51.4
 20
28.9411
 11
-51.558
 21
29.0438
  0
LINE
  8
0
 10
-51.558
 20
29.0438
 11
-51.7044
 21
29.1623
  0
LINE
  8
0
 10
-51.7044
 20
29.1623
 11
-51.8376
 21
29.2956
  0
LINE
  8
0
 10
-51.8376
 20
29.2956
 11
-51.9562
 21
29.442
  0
LINE
  8
0
 10
-51.9562
 20
29.442
 11
-52.0588
 21
29.6
  0
LINE
  8
0
 10
-52.0588
 20
29.6
 11
-52.1444
 21
29.7679
  0
LINE
  8
0
 10
-52.1444
 20
29.7679
 11
-52.2119
 21
29.9438
  0
LINE
  8
0
 10
-52.2119
 20
29.9438
 11
-52.2607
 21
30.1257
  0
LINE
  8
0
 10
-52.2607
 20
30.1257
 11
-52.2901
 21
30.3118
  0
LINE
  8
0
 10
-52.2901
 20
30.3118
 11
-52.3
 21
30.5
  0
LINE
  8
0
 10
-52.3
 20
30.5
 11
-52.2901
 21
30.6881
  0
LINE
  8
0
 10
-52.2901
 20
30.6881
 11
-52.2607
 21
30.8742
  0
LINE
  8
0
 10
-52.2607
 20
30.8742
 11
-52.2119
 21
31.0562
  0
LINE
  8
0
 10
-52.2119
 20
31.0562
 11
-52.1444
 21
31.2321
  0
LINE
  8
0
 10
-52.1444
 20
31.2321
 11
-52.0588
 21
31.4
  0
LINE
  8
0
 10
-52.0588
 20
31.4
 11
-51.9562
 21
31.558
  0
LINE
  8
0
 10
-51.9562
 20
31.558
 11
-51.8376
 21
31.7044
  0
LINE
  8
0
 10
-51.8376
 20
31.7044
 11
-51.7044
 21
31.8376
  0
LINE
  8
0
 10
-51.7044
 20
31.8376
 11
-51.558
 21
31.9562
  0
LINE
  8
0
 10
-51.558
 20
31.9562
 11
-51.4
 21
32.0588
  0
LINE
  8
0
 10
-51.4
 20
32.0588
 11
-51.2321
 21
32.1444
  0
LINE
  8
0
 10
-51.2321
 20
32.1444
 11
-51.0562
 21
32.2119
  0
LINE
  8
0
 10
-51.0562
 20
32.2119
 11
-50.8742
 21
32.2607
  0
LINE
  8
0
 10
-50.8742
 20
32.2607
 11
-50.6881
 21
32.2901
  0
LINE
  8
0
 10
-50.6881
 20
32.2901
 11
-50.5
 21
32.3
  0
LINE
  8
0
 10
-50.5
 20
32.3
 11
-50.3118
 21
32.2901
  0
LINE
  8
0
 10
-50.3118
 20
32.2901
 11
-50.1257
 21
32.2607
  0
LINE
  8
0
 10
-50.1257
 20
32.2607
 11
-49.9438
 21
32.2119
  0
LINE
  8
0
 10
-49.9438
 20
32.2119
 11
-49.7679
 21
32.1444
  0
LINE
  8
0
 10
-49.7679
 20
32.1444
 11
-49.6
 21
32.0588
  0
LINE
  8
0
 10
-49.6
 20
32.0588
 11
-49.442
 21
31.9562
  0
LINE
  8
0
 10
-49.442
 20
31.9562
 11
-49.2956
 21
31.8376
  0
LINE
  8
0
 10
-49.2956
 20
31.8376
 11
-49.1623
 21
31.7044
  0
LINE
  8
0
 10
-49.1623
 20
31.7044
 11
-49.0438
 21
31.558
  0
LINE
  8
0
 10
-49.0438
 20
31.558
 11
-48.9411
 21
31.4
  0
LINE
  8
0
 10
-48.9411
 20
31.4
 11
-48.8556
 21
31.2321
  0
LINE
  8
0
 10
-48.8556
 20
31.2321
 11
-48.7881
 21
31.0562
  0
LINE
  8
0
 10
-48.7881
 20
31.0562
 11
-48.7393
 21
30.8742
  0
LINE
  8
0
 10
-48.7393
 20
30.8742
 11
-48.7099
 21
30.6881
  0
LINE
  8
0
 10
-48.7099
 20
30.6881
 11
-48.7
 21
30.5
  0
LINE
  8
0
 10
-48.7
 20
30.5
 11
-48.7099
 21
30.3118
  0
LINE
  8
0
 10
-48.7099
 20
30.3118
 11
-48.7393
 21
30.1257
  0
LINE
  8
0
 10
-48.7393
 20
30.1257
 11
-48.7881
 21
29.9438
  0
LINE
  8
0
 10
-48.7881
 20
29.9438
 11
-48.8556
 21
29.7679
  0
LINE
  8
0
 10
-48.8556
 20
29.7679
 11
-48.9411
 21
29.6
  0
LINE
  8
0
 10
-48.9411
 20
29.6
 11
-49.0438
 21
29.442
  0
LINE
  8
0
 10
-49.0438
 20
29.442
 11
-49.1623
 21
29.2956
  0
LINE
  8
0
 10
-49.1623
 20
29.2956
 11
-49.2956
 21
29.1623
  0
LINE
  8
0
 10
-49.2956
 20
29.1623
 11
-49.442
 21
29.0438
  0
LINE
  8
0
 10
-49.442
 20
29.0438
 11
-49.6
 21
28.9411
  0
LINE
  8
0
 10
-49.6
 20
28.9411
 11
-49.7679
 21
28.8556
  0
LINE
  8
0
 10
-49.7679
 20
28.8556
 11
-49.9438
 21
28.7881
  0
LINE
  8
0
 10
-49.9438
 20
28.7881
 11
-50.1257
 21
28.7393
  0
LINE
  8
0
 10
-50.1257
 20
28.7393
 11
-50.3118
 21
28.7099
  0
LINE
  8
0
 10
-50.3118
 20
28.7099
 11
-50.5
 21
28.7
  0
LINE
  8
0
 10
-50.5
 20
28.7
 11
-50.6881
 21
28.7099
  0
LINE
  8
0
 10
50.3118
 20
28.7099
 11
50.1257
 21
28.7393
  0
LINE
  8
0
 10
50.1257
 20
28.7393
 11
49.9438
 21
28.7881
  0
LINE
  8
0
 10
49.9438
 20
28.7881
 11
49.7679
 21
28.8556
  0
LINE
  8
0
 10
49.7679
 20
28.8556
 11
49.6
 21
28.9411
  0
LINE
  8
0
 10
49.6
 20
28.9411
 11
49.442
 21
29.0438
  0
LINE
  8
0
 10
49.442
 20
29.0438
 11
49.2956
 21
29.1623
  0
LINE
  8
0
 10
49.2956
 20
29.1623
 11
49.1623
 21
29.2956
  0
LINE
  8
0
 10
49.1623
 20
29.2956
 11
49.0438
 21
29.442
  0
LINE
  8
0
 10
49.0438
 20
29.442
 11
48.9411
 21
29.6
  0
LINE
  8
0
 10
48.9411
 20
29.6
 11
48.8556
 21
29.7679
  0
LINE
  8
0
 10
48.8556
 20
29.7679
 11
48.7881
 21
29.9438
  0
LINE
  8
0
 10
48.7881
 20
29.9438
 11
48.7393
 21
30.1257
  0
LINE
  8
0
 10
48.7393
 20
30.1257
 11
48.7099
 21
30.3118
  0
LINE
  8
0
 10
48.7099
 20
30.3118
 11
48.7
 21
30.5
  0
LINE
  8
0
 10
48.7
 20
30.5
 11
48.7099
 21
30.6881
  0
LINE
  8
0
 10
48.7099
 20
30.6881
 11
48.7393
 21
30.8742
  0
LINE
  8
0
 10
48.7393
 20
30.8742
 11
48.7881
 21
31.0562
  0
LINE
  8
0
 10
48.7881
 20
31.0562
 11
48.8556
 21
31.2321
  0
LINE
  8
0
 10
48.8556
 20
31.2321
 11
48.9411
 21
31.4
  0
LINE
  8
0
 10
48.9411
 20
31.4
 11
49.0438
 21
31.558
  0
LINE
  8
0
 10
49.0438
 20
31.558
 11
49.1623
 21
31.7044
  0
LINE
  8
0
 10
49.1623
 20
31.7044
 11
49.2956
 21
31.8376
  0
LINE
  8
0
 10
49.2956
 20
31.8376
 11
49.442
 21
31.9562
  0
LINE
  8
0
 10
49.442
 20
31.9562
 11
49.6
 21
32.0588
  0
LINE
  8
0
 10
49.6
 20
32.0588
 11
49.7679
 21
32.1444
  0
LINE
  8
0
 10
49.7679
 20
32.1444
 11
49.9438
 21
32.2119
  0
LINE
  8
0
 10
49.9438
 20
32.2119
 11
50.1257
 21
32.2607
  0
LINE
  8
0
 10
50.1257
 20
32.2607
 11
50.3118
 21
32.2901
  0
LINE
  8
0
 10
50.3118
 20
32.2901
 11
50.5
 21
32.3
  0
LINE
  8
0
 10
50.5
 20
32.3
 11
50.6881
 21
32.2901
  0
LINE
  8
0
 10
50.6881
 20
32.2901
 11
50.8742
 21
32.2607
  0
LINE
  8
0
 10
50.8742
 20
32.2607
 11
51.0562
 21
32.2119
  0
LINE
  8
0
 10
51.0562
 20
32.2119
 11
51.2321
 21
32.1444
  0
LINE
  8
0
 10
51.2321
 20
32.1444
 11
51.4
 21
32.0588
  0
LINE
  8
0
 10
51.4
 20
32.0588
 11
51.558
 21
31.9562
  0
LINE
  8
0
 10
51.558
 20
31.9562
 11
51.7044
 21
31.8376
  0
LINE
  8
0
 10
51.7044
 20
31.8376
 11
51.8376
 21
31.7044
  0
LINE
  8
0
 10
51.8376
 20
31.7044
 11
51.9562
 21
31.558
  0
LINE
  8
0
 10
51.9562
 20
31.558
 11
52.0588
 21
31.4
  0
LINE
  8
0
 10
52.0588
 20
31.4
 11
52.1444
 21
31.2321
  0
LINE
  8
0
 10
52.1444
 20
31.2321
 11
52.2119
 21
31.0562
  0
LINE
  8
0
 10
52.2119
 20
31.0562
 11
52.2607
 21
30.8742
  0
LINE
  8
0
 10
52.2607
 20
30.8742
 11
52.2901
 21
30.6881
  0
LINE
  8
0
 10
52.2901
 20
30.6881
 11
52.3
 21
30.5
  0
LINE
  8
0
 10
52.3
 20
30.5
 11
52.2901
 21
30.3118
  0
LINE
  8
0
 10
52.2901
 20
30.3118
 11
52.2607
 21
30.1257
  0
LINE
  8
0
 10
52.2607
 20
30.1257
 11
52.2119
 21
29.9438
  0
LINE
  8
0
 10
52.2119
 20
29.9438
 11
52.1444
 21
29.7679
  0
LINE
  8
0
 10
52.1444
 20
29.7679
 11
52.0588
 21
29.6
  0
LINE
  8
0
 10
52.0588
 20
29.6
 11
51.9562
 21
29.442
  0
LINE
  8
0
 10
51.9562
 20
29.442
 11
51.8376
 21
29.2956
  0
LINE
  8
0
 10
51.8376
 20
29.2956
 11
51.7044
 21
29.1623
  0
LINE
  8
0
 10
51.7044
 20
29.1623
 11
51.558
 21
29.0438
  0
LINE
  8
0
 10
51.558
 20
29.0438
 11
51.4
 21
28.9411
  0
LINE
  8
0
 10
51.4
 20
28.9411
 11
51.2321
 21
28.8556
  0
LINE
  8
0
 10
51.2321
 20
28.8556
 11
51.0562
 21
28.7881
  0
LINE
  8
0
 10
51.0562
 20
28.7881
 11
50.8742
 21
28.7393
  0
LINE
  8
0
 10
50.8742
 20
28.7393
 11
50.6881
 21
28.7099
  0
LINE
  8
0
 10
50.6881
 20
28.7099
 11
50.5
 21
28.7
  0
LINE
  8
0
 10
50.5
 20
28.7
 11
50.3118
 21
28.7099
  0
LINE
  8
0
 10
-0.188141
 20
28.2099
 11
-0.374237
 21
28.2393
  0
LINE
  8
0
 10
-0.374237
 20
28.2393
 11
-0.556229
 21
28.2881
  0
LINE
  8
0
 10
-0.556229
 20
28.2881
 11
-0.732117
 21
28.3556
  0
LINE
  8
0
 10
-0.732117
 20
28.3556
 11
-0.899994
 21
28.4411
  0
LINE
  8
0
 10
-0.899994
 20
28.4411
 11
-1.058
 21
28.5438
  0
LINE
  8
0
 10
-1.058
 20
28.5438
 11
-1.20442
 21
28.6623
  0
LINE
  8
0
 10
-1.20442
 20
28.6623
 11
-1.33765
 21
28.7956
  0
LINE
  8
0
 10
-1.33765
 20
28.7956
 11
-1.45622
 21
28.942
  0
LINE
  8
0
 10
-1.45622
 20
28.942
 11
-1.55884
 21
29.1
  0
LINE
  8
0
 10
-1.55884
 20
29.1
 11
-1.64438
 21
29.2679
  0
LINE
  8
0
 10
-1.64438
 20
29.2679
 11
-1.7119
 21
29.4438
  0
LINE
  8
0
 10
-1.7119
 20
29.4438
 11
-1.76065
 21
29.6257
  0
LINE
  8
0
 10
-1.76065
 20
29.6257
 11
-1.79013
 21
29.8118
  0
LINE
  8
0
 10
-1.79013
 20
29.8118
 11
-1.79999
 21
30
  0
LINE
  8
0
 10
-1.79999
 20
30
 11
-1.79013
 21
30.1881
  0
LINE
  8
0
 10
-1.79013
 20
30.1881
 11
-1.76065
 21
30.3742
  0
LINE
  8
0
 10
-1.76065
 20
30.3742
 11
-1.7119
 21
30.5562
  0
LINE
  8
0
 10
-1.7119
 20
30.5562
 11
-1.64438
 21
30.7321
  0
LINE
  8
0
 10
-1.64438
 20
30.7321
 11
-1.55884
 21
30.9
  0
LINE
  8
0
 10
-1.55884
 20
30.9
 11
-1.45622
 21
31.058
  0
LINE
  8
0
 10
-1.45622
 20
31.058
 11
-1.33765
 21
31.2044
  0
LINE
  8
0
 10
-1.33765
 20
31.2044
 11
-1.20442
 21
31.3376
  0
LINE
  8
0
 10
-1.20442
 20
31.3376
 11
-1.058
 21
31.4562
  0
LINE
  8
0
 10
-1.058
 20
31.4562
 11
-0.899994
 21
31.5588
  0
LINE
  8
0
 10
-0.899994
 20
31.5588
 11
-0.732117
 21
31.6444
  0
LINE
  8
0
 10
-0.732117
 20
31.6444
 11
-0.556229
 21
31.7119
  0
LINE
  8
0
 10
-0.556229
 20
31.7119
 11
-0.374237
 21
31.7607
  0
LINE
  8
0
 10
-0.374237
 20
31.7607
 11
-0.188141
 21
31.7901
  0
LINE
  8
0
 10
-0.188141
 20
31.7901
 11
0
 21
31.8
  0
LINE
  8
0
 10
0
 20
31.8
 11
0.188141
 21
31.7901
  0
LINE
  8
0
 10
0.188141
 20
31.7901
 11
0.374237
 21
31.7607
  0
LINE
  8
0
 10
0.374237
 20
31.7607
 11
0.556229
 21
31.7119
  0
LINE
  8
0
 10
0.556229
 20
31.7119
 11
0.732117
 21
31.6444
  0
LINE
  8
0
 10
0.732117
 20
31.6444
 11
0.899994
 21
31.5588
  0
LINE
  8
0
 10
0.899994
 20
31.5588
 11
1.058
 21
31.4562
  0
LINE
  8
0
 10
1.058
 20
31.4562
 11
1.20442
 21
31.3376
  0
LINE
  8
0
 10
1.20442
 20
31.3376
 11
1.33765
 21
31.2044
  0
LINE
  8
0
 10
1.33765
 20
31.2044
 11
1.45622
 21
31.058
  0
LINE
  8
0
 10
1.45622
 20
31.058
 11
1.55884
 21
30.9
  0
LINE
  8
0
 10
1.55884
 20
30.9
 11
1.64438
 21
30.7321
  0
LINE
  8
0
 10
1.64438
 20
30.7321
 11
1.7119
 21
30.5562
  0
LINE
  8
0
 10
1.7119
 20
30.5562
 11
1.76065
 21
30.3742
  0
LINE
  8
0
 10
1.76065
 20
30.3742
 11
1.79013
 21
30.1881
  0
LINE
  8
0
 10
1.79013
 20
30.1881
 11
1.79999
 21
30
  0
LINE
  8
0
 10
1.79999
 20
30
 11
1.79013
 21
29.8118
  0
LINE
  8
0
 10
1.79013
 20
29.8118
 11
1.76065
 21
29.6257
  0
LINE
  8
0
 10
1.76065
 20
29.6257
 11
1.7119
 21
29.4438
  0
LINE
  8
0
 10
1.7119
 20
29.4438
 11
1.64438
 21
29.2679
  0
LINE
  8
0
 10
1.64438
 20
29.2679
 11
1.55884
 21
29.1
  0
LINE
  8
0
 10
1.55884
 20
29.1
 11
1.45622
 21
28.942
  0
LINE
  8
0
 10
1.45622
 20
28.942
 11
1.33765
 21
28.7956
  0
LINE
  8
0
 10
1.33765
 20
28.7956
 11
1.20442
 21
28.6623
  0
LINE
  8
0
 10
1.20442
 20
28.6623
 11
1.058
 21
28.5438
  0
LINE
  8
0
 10
1.058
 20
28.5438
 11
0.899994
 21
28.4411
  0
LINE
  8
0
 10
0.899994
 20
28.4411
 11
0.732117
 21
28.3556
  0
LINE
  8
0
 10
0.732117
 20
28.3556
 11
0.556229
 21
28.2881
  0
LINE
  8
0
 10
0.556229
 20
28.2881
 11
0.374237
 21
28.2393
  0
LINE
  8
0
 10
0.374237
 20
28.2393
 11
0.188141
 21
28.2099
  0
LINE
  8
0
 10
0.188141
 20
28.2099
 11
0
 21
28.2
  0
LINE
  8
0
 10
0
 20
28.2
 11
-0.188141
 21
28.2099
  0
LINE
  8
0
 10
-0.188141
 20
21.2099
 11
-0.374237
 21
21.2393
  0
LINE
  8
0
 10
-0.374237
 20
21.2393
 11
-0.556229
 21
21.2881
  0
LINE
  8
0
 10
-0.556229
 20
21.2881
 11
-0.732117
 21
21.3556
  0
LINE
  8
0
 10
-0.732117
 20
21.3556
 11
-0.899994
 21
21.4411
  0
LINE
  8
0
 10
-0.899994
 20
21.4411
 11
-1.058
 21
21.5438
  0
LINE
  8
0
 10
-1.058
 20
21.5438
 11
-1.20442
 21
21.6623
  0
LINE
  8
0
 10
-1.20442
 20
21.6623
 11
-1.33765
 21
21.7956
  0
LINE
  8
0
 10
-1.33765
 20
21.7956
 11
-1.45622
 21
21.942
  0
LINE
  8
0
 10
-1.45622
 20
21.942
 11
-1.55884
 21
22.1
  0
LINE
  8
0
 10
-1.55884
 20
22.1
 11
-1.64438
 21
22.2679
  0
LINE
  8
0
 10
-1.64438
 20
22.2679
 11
-1.7119
 21
22.4438
  0
LINE
  8
0
 10
-1.7119
 20
22.4438
 11
-1.76065
 21
22.6257
  0
LINE
  8
0
 10
-1.76065
 20
22.6257
 11
-1.79013
 21
22.8118
  0
LINE
  8
0
 10
-1.79013
 20
22.8118
 11
-1.79999
 21
23
  0
LINE
  8
0
 10
-1.79999
 20
23
 11
-1.79013
 21
23.1881
  0
LINE
  8
0
 10
-1.79013
 20
23.1881
 11
-1.76065
 21
23.3742
  0
LINE
  8
0
 10
-1.76065
 20
23.3742
 11
-1.7119
 21
23.5562
  0
LINE
  8
0
 10
-1.7119
 20
23.5562
 11
-1.64438
 21
23.7321
  0
LINE
  8
0
 10
-1.64438
 20
23.7321
 11
-1.55884
 21
23.9
  0
LINE
  8
0
 10
-1.55884
 20
23.9
 11
-1.45622
 21
24.058
  0
LINE
  8
0
 10
-1.45622
 20
24.058
 11
-1.33765
 21
24.2044
  0
LINE
  8
0
 10
-1.33765
 20
24.2044
 11
-1.20442
 21
24.3376
  0
LINE
  8
0
 10
-1.20442
 20
24.3376
 11
-1.058
 21
24.4562
  0
LINE
  8
0
 10
-1.058
 20
24.4562
 11
-0.899994
 21
24.5588
  0
LINE
  8
0
 10
-0.899994
 20
24.5588
 11
-0.732117
 21
24.6444
  0
LINE
  8
0
 10
-0.732117
 20
24.6444
 11
-0.556229
 21
24.7119
  0
LINE
  8
0
 10
-0.556229
 20
24.7119
 11
-0.374237
 21
24.7607
  0
LINE
  8
0
 10
-0.374237
 20
24.7607
 11
-0.188141
 21
24.7901
  0
LINE
  8
0
 10
-0.188141
 20
24.7901
 11
0
 21
24.8
  0
LINE
  8
0
 10
0
 20
24.8
 11
0.188141
 21
24.7901
  0
LINE
  8
0
 10
0.188141
 20
24.7901
 11
0.374237
 21
24.7607
  0
LINE
  8
0
 10
0.374237
 20
24.7607
 11
0.556229
 21
24.7119
  0
LINE
  8
0
 10
0.556229
 20
24.7119
 11
0.732117
 21
24.6444
  0
LINE
  8
0
 10
0.732117
 20
24.6444
 11
0.899994
 21
24.5588
  0
LINE
  8
0
 10
0.899994
 20
24.5588
 11
1.058
 21
24.4562
  0
LINE
  8
0
 10
1.058
 20
24.4562
 11
1.20442
 21
24.3376
  0
LINE
  8
0
 10
1.20442
 20
24.3376
 11
1.33765
 21
24.2044
  0
LINE
  8
0
 10
1.33765
 20
24.2044
 11
1.45622
 21
24.058
  0
LINE
  8
0
 10
1.45622
 20
24.058
 11
1.55884
 21
23.9
  0
LINE
  8
0
 10
1.55884
 20
23.9
 11
1.64438
 21
23.7321
  0
LINE
  8
0
 10
1.64438
 20
23.7321
 11
1.7119
 21
23.5562
  0
LINE
  8
0
 10
1.7119
 20
23.5562
 11
1.76065
 21
23.3742
  0
LINE
  8
0
 10
1.76065
 20
23.3742
 11
1.79013
 21
23.1881
  0
LINE
  8
0
 10
1.79013
 20
23.1881
 11
1.79999
 21
23
  0
LINE
  8
0
 10
1.79999
 20
23
 11
1.79013
 21
22.8118
  0
LINE
  8
0
 10
1.79013
 20
22.8118
 11
1.76065
 21
22.6257
  0
LINE
  8
0
 10
1.76065
 20
22.6257
 11
1.7119
 21
22.4438
  0
LINE
  8
0
 10
1.7119
 20
22.4438
 11
1.64438
 21
22.2679
  0
LINE
  8
0
 10
1.64438
 20
22.2679
 11
1.55884
 21
22.1
  0
LINE
  8
0
 10
1.55884
 20
22.1
 11
1.45622
 21
21.942
  0
LINE
  8
0
 10
1.45622
 20
21.942
 11
1.33765
 21
21.7956
  0
LINE
  8
0
 10
1.33765
 20
21.7956
 11
1.20442
 21
21.6623
  0
LINE
  8
0
 10
1.20442
 20
21.6623
 11
1.058
 21
21.5438
  0
LINE
  8
0
 10
1.058
 20
21.5438
 11
0.899994
 21
21.4411
  0
LINE
  8
0
 10
0.899994
 20
21.4411
 11
0.732117
 21
21.3556
  0
LINE
  8
0
 10
0.732117
 20
21.3556
 11
0.556229
 21
21.2881
  0
LINE
  8
0
 10
0.556229
 20
21.2881
 11
0.374237
 21
21.2393
  0
LINE
  8
0
 10
0.374237
 20
21.2393
 11
0.188141
 21
21.2099
  0
LINE
  8
0
 10
0.188141
 20
21.2099
 11
0
 21
21.2
  0
LINE
  8
0
 10
0
 20
21.2
 11
-0.188141
 21
21.2099
  0
LINE
  8
0
 10
-7.68814
 20
11.7099
 11
-7.87424
 21
11.7393
  0
LINE
  8
0
 10
-7.87424
 20
11.7393
 11
-8.05623
 21
11.7881
  0
LINE
  8
0
 10
-8.05623
 20
11.7881
 11
-8.23212
 21
11.8556
  0
LINE
  8
0
 10
-8.23212
 20
11.8556
 11
-8.39999
 21
11.9411
  0
LINE
  8
0
 10
-8.39999
 20
11.9411
 11
-8.558
 21
12.0438
  0
LINE
  8
0
 10
-8.558
 20
12.0438
 11
-8.70442
 21
12.1623
  0
LINE
  8
0
 10
-8.70442
 20
12.1623
 11
-8.83765
 21
12.2956
  0
LINE
  8
0
 10
-8.83765
 20
12.2956
 11
-8.95622
 21
12.442
  0
LINE
  8
0
 10
-8.95622
 20
12.442
 11
-9.05884
 21
12.6
  0
LINE
  8
0
 10
-9.05884
 20
12.6
 11
-9.14438
 21
12.7679
  0
LINE
  8
0
 10
-9.14438
 20
12.7679
 11
-9.2119
 21
12.9438
  0
LINE
  8
0
 10
-9.2119
 20
12.9438
 11
-9.26065
 21
13.1257
  0
LINE
  8
0
 10
-9.26065
 20
13.1257
 11
-9.29013
 21
13.3118
  0
LINE
  8
0
 10
-9.29013
 20
13.3118
 11
-9.29999
 21
13.5
  0
LINE
  8
0
 10
-9.29999
 20
13.5
 11
-9.29013
 21
13.6881
  0
LINE
  8
0
 10
-9.29013
 20
13.6881
 11
-9.26065
 21
13.8742
  0
LINE
  8
0
 10
-9.26065
 20
13.8742
 11
-9.2119
 21
14.0562
  0
LINE
  8
0
 10
-9.2119
 20
14.0562
 11
-9.14438
 21
14.2321
  0
LINE
  8
0
 10
-9.14438
 20
14.2321
 11
-9.05884
 21
14.4
  0
LINE
  8
0
 10
-9.05884
 20
14.4
 11
-8.95622
 21
14.558
  0
LINE
  8
0
 10
-8.95622
 20
14.558
 11
-8.83765
 21
14.7044
  0
LINE
  8
0
 10
-8.83765
 20
14.7044
 11
-8.70442
 21
14.8376
  0
LINE
  8
0
 10
-8.70442
 20
14.8376
 11
-8.558
 21
14.9562
  0
LINE
  8
0
 10
-8.558
 20
14.9562
 11
-8.39999
 21
15.0588
  0
LINE
  8
0
 10
-8.39999
 20
15.0588
 11
-8.23212
 21
15.1444
  0
LINE
  8
0
 10
-8.23212
 20
15.1444
 11
-8.05623
 21
15.2119
  0
LINE
  8
0
 10
-8.05623
 20
15.2119
 11
-7.87424
 21
15.2607
  0
LINE
  8
0
 10
-7.87424
 20
15.2607
 11
-7.68814
 21
15.2901
  0
LINE
  8
0
 10
-7.68814
 20
15.2901
 11
-7.5
 21
15.3
  0
LINE
  8
0
 10
-7.5
 20
15.3
 11
-7.31184
 21
15.2901
  0
LINE
  8
0
 10
-7.31184
 20
15.2901
 11
-7.12575
 21
15.2607
  0
LINE
  8
0
 10
-7.12575
 20
15.2607
 11
-6.94376
 21
15.2119
  0
LINE
  8
0
 10
-6.94376
 20
15.2119
 11
-6.76787
 21
15.1444
  0
LINE
  8
0
 10
-6.76787
 20
15.1444
 11
-6.59999
 21
15.0588
  0
LINE
  8
0
 10
-6.59999
 20
15.0588
 11
-6.44199
 21
14.9562
  0
LINE
  8
0
 10
-6.44199
 20
14.9562
 11
-6.29556
 21
14.8376
  0
LINE
  8
0
 10
-6.29556
 20
14.8376
 11
-6.16234
 21
14.7044
  0
LINE
  8
0
 10
-6.16234
 20
14.7044
 11
-6.04376
 21
14.558
  0
LINE
  8
0
 10
-6.04376
 20
14.558
 11
-5.94115
 21
14.4
  0
LINE
  8
0
 10
-5.94115
 20
14.4
 11
-5.85561
 21
14.2321
  0
LINE
  8
0
 10
-5.85561
 20
14.2321
 11
-5.78809
 21
14.0562
  0
LINE
  8
0
 10
-5.78809
 20
14.0562
 11
-5.73933
 21
13.8742
  0
LINE
  8
0
 10
-5.73933
 20
13.8742
 11
-5.70985
 21
13.6881
  0
LINE
  8
0
 10
-5.70985
 20
13.6881
 11
-5.7
 21
13.5
  0
LINE
  8
0
 10
-5.7
 20
13.5
 11
-5.70985
 21
13.3118
  0
LINE
  8
0
 10
-5.70985
 20
13.3118
 11
-5.73933
 21
13.1257
  0
LINE
  8
0
 10
-5.73933
 20
13.1257
 11
-5.78809
 21
12.9438
  0
LINE
  8
0
 10
-5.78809
 20
12.9438
 11
-5.85561
 21
12.7679
  0
LINE
  8
0
 10
-5.85561
 20
12.7679
 11
-5.94115
 21
12.6
  0
LINE
  8
0
 10
-5.94115
 20
12.6
 11
-6.04376
 21
12.442
  0
LINE
  8
0
 10
-6.04376
 20
12.442
 11
-6.16234
 21
12.2956
  0
LINE
  8
0
 10
-6.16234
 20
12.2956
 11
-6.29556
 21
12.1623
  0
LINE
  8
0
 10
-6.29556
 20
12.1623
 11
-6.44199
 21
12.0438
  0
LINE
  8
0
 10
-6.44199
 20
12.0438
 11
-6.59999
 21
11.9411
  0
LINE
  8
0
 10
-6.59999
 20
11.9411
 11
-6.76787
 21
11.8556
  0
LINE
  8
0
 10
-6.76787
 20
11.8556
 11
-6.94376
 21
11.7881
  0
LINE
  8
0
 10
-6.94376
 20
11.7881
 11
-7.12575
 21
11.7393
  0
LINE
  8
0
 10
-7.12575
 20
11.7393
 11
-7.31184
 21
11.7099
  0
LINE
  8
0
 10
-7.31184
 20
11.7099
 11
-7.5
 21
11.7
  0
LINE
  8
0
 10
-7.5
 20
11.7
 11
-7.68814
 21
11.7099
  0
LINE
  8
0
 10
7.31184
 20
11.7099
 11
7.12575
 21
11.7393
  0
LINE
  8
0
 10
7.12575
 20
11.7393
 11
6.94376
 21
11.7881
  0
LINE
  8
0
 10
6.94376
 20
11.7881
 11
6.76787
 21
11.8556
  0
LINE
  8
0
 10
6.76787
 20
11.8556
 11
6.59999
 21
11.9411
  0
LINE
  8
0
 10
6.59999
 20
11.9411
 11
6.44199
 21
12.0438
  0
LINE
  8
0
 10
6.44199
 20
12.0438
 11
6.29556
 21
12.1623
  0
LINE
  8
0
 10
6.29556
 20
12.1623
 11
6.16234
 21
12.2956
  0
LINE
  8
0
 10
6.16234
 20
12.2956
 11
6.04376
 21
12.442
  0
LINE
  8
0
 10
6.04376
 20
12.442
 11
5.94115
 21
12.6
  0
LINE
  8
0
 10
5.94115
 20
12.6
 11
5.85561
 21
12.7679
  0
LINE
  8
0
 10
5.85561
 20
12.7679
 11
5.78809
 21
12.9438
  0
LINE
  8
0
 10
5.78809
 20
12.9438
 11
5.73933
 21
13.1257
  0
LINE
  8
0
 10
5.73933
 20
13.1257
 11
5.70985
 21
13.3118
  0
LINE
  8
0
 10
5.70985
 20
13.3118
 11
5.7
 21
13.5
  0
LINE
  8
0
 10
5.7
 20
13.5
 11
5.70985
 21
13.6881
  0
LINE
  8
0
 10
5.70985
 20
13.6881
 11
5.73933
 21
13.8742
  0
LINE
  8
0
 10
5.73933
 20
13.8742
 11
5.78809
 21
14.0562
  0
LINE
  8
0
 10
5.78809
 20
14.0562
 11
5.85561
 21
14.2321
  0
LINE
  8
0
 10
5.85561
 20
14.2321
 11
5.94115
 21
14.4
  0
LINE
  8
0
 10
5.94115
 20
14.4
 11
6.04376
 21
14.558
  0
LINE
  8
0
 10
6.04376
 20
14.558
 11
6.16234
 21
14.7044
  0
LINE
  8
0
 10
6.16234
 20
14.7044
 11
6.29556
 21
14.8376
  0
LINE
  8
0
 10
6.29556
 20
14.8376
 11
6.44199
 21
14.9562
  0
LINE
  8
0
 10
6.44199
 20
14.9562
 11
6.59999
 21
15.0588
  0
LINE
  8
0
 10
6.59999
 20
15.0588
 11
6.76787
 21
15.1444
  0
LINE
  8
0
 10
6.76787
 20
15.1444
 11
6.94376
 21
15.2119
  0
LINE
  8
0
 10
6.94376
 20
15.2119
 11
7.12575
 21
15.2607
  0
LINE
  8
0
 10
7.12575
 20
15.2607
 11
7.31184
 21
15.2901
  0
LINE
  8
0
 10
7.31184
 20
15.2901
 11
7.5
 21
15.3
  0
LINE
  8
0
 10
7.5
 20
15.3
 11
7.68814
 21
15.2901
  0
LINE
  8
0
 10
7.68814
 20
15.2901
 11
7.87424
 21
15.2607
  0
LINE
  8
0
 10
7.87424
 20
15.2607
 11
8.05623
 21
15.2119
  0
LINE
  8
0
 10
8.05623
 20
15.2119
 11
8.23212
 21
15.1444
  0
LINE
  8
0
 10
8.23212
 20
15.1444
 11
8.39999
 21
15.0588
  0
LINE
  8
0
 10
8.39999
 20
15.0588
 11
8.558
 21
14.9562
  0
LINE
  8
0
 10
8.558
 20
14.9562
 11
8.70442
 21
14.8376
  0
LINE
  8
0
 10
8.70442
 20
14.8376
 11
8.83765
 21
14.7044
  0
LINE
  8
0
 10
8.83765
 20
14.7044
 11
8.95622
 21
14.558
  0
LINE
  8
0
 10
8.95622
 20
14.558
 11
9.05884
 21
14.4
  0
LINE
  8
0
 10
9.05884
 20
14.4
 11
9.14438
 21
14.2321
  0
LINE
  8
0
 10
9.14438
 20
14.2321
 11
9.2119
 21
14.0562
  0
LINE
  8
0
 10
9.2119
 20
14.0562
 11
9.26065
 21
13.8742
  0
LINE
  8
0
 10
9.26065
 20
13.8742
 11
9.29013
 21
13.6881
  0
LINE
  8
0
 10
9.29013
 20
13.6881
 11
9.29999
 21
13.5
  0
LINE
  8
0
 10
9.29999
 20
13.5
 11
9.29013
 21
13.3118
  0
LINE
  8
0
 10
9.29013
 20
13.3118
 11
9.26065
 21
13.1257
  0
LINE
  8
0
 10
9.26065
 20
13.1257
 11
9.2119
 21
12.9438
  0
LINE
  8
0
 10
9.2119
 20
12.9438
 11
9.14438
 21
12.7679
  0
LINE
  8
0
 10
9.14438
 20
12.7679
 11
9.05884
 21
12.6
  0
LINE
  8
0
 10
9.05884
 20
12.6
 11
8.95622
 21
12.442
  0
LINE
  8
0
 10
8.95622
 20
12.442
 11
8.83765
 21
12.2956
  0
LINE
  8
0
 10
8.83765
 20
12.2956
 11
8.70442
 21
12.1623
  0
LINE
  8
0
 10
8.70442
 20
12.1623
 11
8.558
 21
12.0438
  0
LINE
  8
0
 10
8.558
 20
12.0438
 11
8.39999
 21
11.9411
  0
LINE
  8
0
 10
8.39999
 20
11.9411
 11
8.23212
 21
11.8556
  0
LINE
  8
0
 10
8.23212
 20
11.8556
 11
8.05623
 21
11.7881
  0
LINE
  8
0
 10
8.05623
 20
11.7881
 11
7.87424
 21
11.7393
  0
LINE
  8
0
 10
7.87424
 20
11.7393
 11
7.68814
 21
11.7099
  0
LINE
  8
0
 10
7.68814
 20
11.7099
 11
7.5
 21
11.7
  0
LINE
  8
0
 10
7.5
 20
11.7
 11
7.31184
 21
11.7099
  0
LINE
  8
0
 10
-48.6881
 20
7.70985
 11
-48.8742
 21
7.73933
  0
LINE
  8
0
 10
-48.8742
 20
7.73933
 11
-49.0562
 21
7.78809
  0
LINE
  8
0
 10
-49.0562
 20
7.78809
 11
-49.2321
 21
7.85561
  0
LINE
  8
0
 10
-49.2321
 20
7.85561
 11
-49.4
 21
7.94115
  0
LINE
  8
0
 10
-49.4
 20
7.94115
 11
-49.558
 21
8.04376
  0
LINE
  8
0
 10
-49.558
 20
8.04376
 11
-49.7044
 21
8.16234
  0
LINE
  8
0
 10
-49.7044
 20
8.16234
 11
-49.8376
 21
8.29556
  0
LINE
  8
0
 10
-49.8376
 20
8.29556
 11
-49.9562
 21
8.44199
  0
LINE
  8
0
 10
-49.9562
 20
8.44199
 11
-50.0588
 21
8.59999
  0
LINE
  8
0
 10
-50.0588
 20
8.59999
 11
-50.1444
 21
8.76787
  0
LINE
  8
0
 10
-50.1444
 20
8.76787
 11
-50.2119
 21
8.94376
  0
LINE
  8
0
 10
-50.2119
 20
8.94376
 11
-50.2607
 21
9.12575
  0
LINE
  8
0
 10
-50.2607
 20
9.12575
 11
-50.2901
 21
9.31184
  0
LINE
  8
0
 10
-50.2901
 20
9.31184
 11
-50.3
 21
9.5
  0
LINE
  8
0
 10
-50.3
 20
9.5
 11
-50.2901
 21
9.68814
  0
LINE
  8
0
 10
-50.2901
 20
9.68814
 11
-50.2607
 21
9.87424
  0
LINE
  8
0
 10
-50.2607
 20
9.87424
 11
-50.2119
 21
10.0562
  0
LINE
  8
0
 10
-50.2119
 20
10.0562
 11
-50.1444
 21
10.2321
  0
LINE
  8
0
 10
-50.1444
 20
10.2321
 11
-50.0588
 21
10.4
  0
LINE
  8
0
 10
-50.0588
 20
10.4
 11
-49.9562
 21
10.558
  0
LINE
  8
0
 10
-49.9562
 20
10.558
 11
-49.8376
 21
10.7044
  0
LINE
  8
0
 10
-49.8376
 20
10.7044
 11
-49.7044
 21
10.8376
  0
LINE
  8
0
 10
-49.7044
 20
10.8376
 11
-49.558
 21
10.9562
  0
LINE
  8
0
 10
-49.558
 20
10.9562
 11
-49.4
 21
11.0588
  0
LINE
  8
0
 10
-49.4
 20
11.0588
 11
-49.2321
 21
11.1444
  0
LINE
  8
0
 10
-49.2321
 20
11.1444
 11
-49.0562
 21
11.2119
  0
LINE
  8
0
 10
-49.0562
 20
11.2119
 11
-48.8742
 21
11.2607
  0
LINE
  8
0
 10
-48.8742
 20
11.2607
 11
-48.6881
 21
11.2901
  0
LINE
  8
0
 10
-48.6881
 20
11.2901
 11
-48.5
 21
11.3
  0
LINE
  8
0
 10
-48.5
 20
11.3
 11
-48.3118
 21
11.2901
  0
LINE
  8
0
 10
-48.3118
 20
11.2901
 11
-48.1257
 21
11.2607
  0
LINE
  8
0
 10
-48.1257
 20
11.2607
 11
-47.9438
 21
11.2119
  0
LINE
  8
0
 10
-47.9438
 20
11.2119
 11
-47.7679
 21
11.1444
  0
LINE
  8
0
 10
-47.7679
 20
11.1444
 11
-47.6
 21
11.0588
  0
LINE
  8
0
 10
-47.6
 20
11.0588
 11
-47.442
 21
10.9562
  0
LINE
  8
0
 10
-47.442
 20
10.9562
 11
-47.2956
 21
10.8376
  0
LINE
  8
0
 10
-47.2956
 20
10.8376
 11
-47.1623
 21
10.7044
  0
LINE
  8
0
 10
-47.1623
 20
10.7044
 11
-47.0438
 21
10.558
  0
LINE
  8
0
 10
-47.0438
 20
10.558
 11
-46.9411
 21
10.4
  0
LINE
  8
0
 10
-46.9411
 20
10.4
 11
-46.8556
 21
10.2321
  0
LINE
  8
0
 10
-46.8556
 20
10.2321
 11
-46.7881
 21
10.0562
  0
LINE
  8
0
 10
-46.7881
 20
10.0562
 11
-46.7393
 21
9.87424
  0
LINE
  8
0
 10
-46.7393
 20
9.87424
 11
-46.7099
 21
9.68814
  0
LINE
  8
0
 10
-46.7099
 20
9.68814
 11
-46.7
 21
9.5
  0
LINE
  8
0
 10
-46.7
 20
9.5
 11
-46.7099
 21
9.31184
  0
LINE
  8
0
 10
-46.7099
 20
9.31184
 11
-46.7393
 21
9.12575
  0
LINE
  8
0
 10
-46.7393
 20
9.12575
 11
-46.7881
 21
8.94376
  0
LINE
  8
0
 10
-46.7881
 20
8.94376
 11
-46.8556
 21
8.76787
  0
LINE
  8
0
 10
-46.8556
 20
8.76787
 11
-46.9411
 21
8.59999
  0
LINE
  8
0
 10
-46.9411
 20
8.59999
 11
-47.0438
 21
8.44199
  0
LINE
  8
0
 10
-47.0438
 20
8.44199
 11
-47.1623
 21
8.29556
  0
LINE
  8
0
 10
-47.1623
 20
8.29556
 11
-47.2956
 21
8.16234
  0
LINE
  8
0
 10
-47.2956
 20
8.16234
 11
-47.442
 21
8.04376
  0
LINE
  8
0
 10
-47.442
 20
8.04376
 11
-47.6
 21
7.94115
  0
LINE
  8
0
 10
-47.6
 20
7.94115
 11
-47.7679
 21
7.85561
  0
LINE
  8
0
 10
-47.7679
 20
7.85561
 11
-47.9438
 21
7.78809
  0
LINE
  8
0
 10
-47.9438
 20
7.78809
 11
-48.1257
 21
7.73933
  0
LINE
  8
0
 10
-48.1257
 20
7.73933
 11
-48.3118
 21
7.70985
  0
LINE
  8
0
 10
-48.3118
 20
7.70985
 11
-48.5
 21
7.7
  0
LINE
  8
0
 10
-48.5
 20
7.7
 11
-48.6881
 21
7.70985
  0
LINE
  8
0
 10
48.3118
 20
7.70985
 11
48.1257
 21
7.73933
  0
LINE
  8
0
 10
48.1257
 20
7.73933
 11
47.9438
 21
7.78809
  0
LINE
  8
0
 10
47.9438
 20
7.78809
 11
47.7679
 21
7.85561
  0
LINE
  8
0
 10
47.7679
 20
7.85561
 11
47.6
 21
7.94115
  0
LINE
  8
0
 10
47.6
 20
7.94115
 11
47.442
 21
8.04376
  0
LINE
  8
0
 10
47.442
 20
8.04376
 11
47.2956
 21
8.16234
  0
LINE
  8
0
 10
47.2956
 20
8.16234
 11
47.1623
 21
8.29556
  0
LINE
  8
0
 10
47.1623
 20
8.29556
 11
47.0438
 21
8.44199
  0
LINE
  8
0
 10
47.0438
 20
8.44199
 11
46.9411
 21
8.59999
  0
LINE
  8
0
 10
46.9411
 20
8.59999
 11
46.8556
 21
8.76787
  0
LINE
  8
0
 10
46.8556
 20
8.76787
 11
46.7881
 21
8.94376
  0
LINE
  8
0
 10
46.7881
 20
8.94376
 11
46.7393
 21
9.12575
  0
LINE
  8
0
 10
46.7393
 20
9.12575
 11
46.7099
 21
9.31184
  0
LINE
  8
0
 10
46.7099
 20
9.31184
 11
46.7
 21
9.5
  0
LINE
  8
0
 10
46.7
 20
9.5
 11
46.7099
 21
9.68814
  0
LINE
  8
0
 10
46.7099
 20
9.68814
 11
46.7393
 21
9.87424
  0
LINE
  8
0
 10
46.7393
 20
9.87424
 11
46.7881
 21
10.0562
  0
LINE
  8
0
 10
46.7881
 20
10.0562
 11
46.8556
 21
10.2321
  0
LINE
  8
0
 10
46.8556
 20
10.2321
 11
46.9411
 21
10.4
  0
LINE
  8
0
 10
46.9411
 20
10.4
 11
47.0438
 21
10.558
  0
LINE
  8
0
 10
47.0438
 20
10.558
 11
47.1623
 21
10.7044
  0
LINE
  8
0
 10
47.1623
 20
10.7044
 11
47.2956
 21
10.8376
  0
LINE
  8
0
 10
47.2956
 20
10.8376
 11
47.442
 21
10.9562
  0
LINE
  8
0
 10
47.442
 20
10.9562
 11
47.6
 21
11.0588
  0
LINE
  8
0
 10
47.6
 20
11.0588
 11
47.7679
 21
11.1444
  0
LINE
  8
0
 10
47.7679
 20
11.1444
 11
47.9438
 21
11.2119
  0
LINE
  8
0
 10
47.9438
 20
11.2119
 11
48.1257
 21
11.2607
  0
LINE
  8
0
 10
48.1257
 20
11.2607
 11
48.3118
 21
11.2901
  0
LINE
  8
0
 10
48.3118
 20
11.2901
 11
48.5
 21
11.3
  0
LINE
  8
0
 10
48.5
 20
11.3
 11
48.6881
 21
11.2901
  0
LINE
  8
0
 10
48.6881
 20
11.2901
 11
48.8742
 21
11.2607
  0
LINE
  8
0
 10
48.8742
 20
11.2607
 11
49.0562
 21
11.2119
  0
LINE
  8
0
 10
49.0562
 20
11.2119
 11
49.2321
 21
11.1444
  0
LINE
  8
0
 10
49.2321
 20
11.1444
 11
49.4
 21
11.0588
  0
LINE
  8
0
 10
49.4
 20
11.0588
 11
49.558
 21
10.9562
  0
LINE
  8
0
 10
49.558
 20
10.9562
 11
49.7044
 21
10.8376
  0
LINE
  8
0
 10
49.7044
 20
10.8376
 11
49.8376
 21
10.7044
  0
LINE
  8
0
 10
49.8376
 20
10.7044
 11
49.9562
 21
10.558
  0
LINE
  8
0
 10
49.9562
 20
10.558
 11
50.0588
 21
10.4
  0
LINE
  8
0
 10
50.0588
 20
10.4
 11
50.1444
 21
10.2321
  0
LINE
  8
0
 10
50.1444
 20
10.2321
 11
50.2119
 21
10.0562
  0
LINE
  8
0
 10
50.2119
 20
10.0562
 11
50.2607
 21
9.87424
  0
LINE
  8
0
 10
50.2607
 20
9.87424
 11
50.2901
 21
9.68814
  0
LINE
  8
0
 10
50.2901
 20
9.68814
 11
50.3
 21
9.5
  0
LINE
  8
0
 10
50.3
 20
9.5
 11
50.2901
 21
9.31184
  0
LINE
  8
0
 10
50.2901
 20
9.31184
 11
50.2607
 21
9.12575
  0
LINE
  8
0
 10
50.2607
 20
9.12575
 11
50.2119
 21
8.94376
  0
LINE
  8
0
 10
50.2119
 20
8.94376
 11
50.1444
 21
8.76787
  0
LINE
  8
0
 10
50.1444
 20
8.76787
 11
50.0588
 21
8.59999
  0
LINE
  8
0
 10
50.0588
 20
8.59999
 11
49.9562
 21
8.44199
  0
LINE
  8
0
 10
49.9562
 20
8.44199
 11
49.8376
 21
8.29556
  0
LINE
  8
0
 10
49.8376
 20
8.29556
 11
49.7044
 21
8.16234
  0
LINE
  8
0
 10
49.7044
 20
8.16234
 11
49.558
 21
8.04376
  0
LINE
  8
0
 10
49.558
 20
8.04376
 11
49.4
 21
7.94115
  0
LINE
  8
0
 10
49.4
 20
7.94115
 11
49.2321
 21
7.85561
  0
LINE
  8
0
 10
49.2321
 20
7.85561
 11
49.0562
 21
7.78809
  0
LINE
  8
0
 10
49.0562
 20
7.78809
 11
48.8742
 21
7.73933
  0
LINE
  8
0
 10
48.8742
 20
7.73933
 11
48.6881
 21
7.70985
  0
LINE
  8
0
 10
48.6881
 20
7.70985
 11
48.5
 21
7.7
  0
LINE
  8
0
 10
48.5
 20
7.7
 11
48.3118
 21
7.70985
  0
LINE
  8
0
 10
10.4118
 20
2.30986
 11
10.2258
 21
2.33932
  0
LINE
  8
0
 10
10.2258
 20
2.33932
 11
10.0438
 21
2.38809
  0
LINE
  8
0
 10
10.0438
 20
2.38809
 11
9.86786
 21
2.45561
  0
LINE
  8
0
 10
9.86786
 20
2.45561
 11
9.7
 21
2.54115
  0
LINE
  8
0
 10
9.7
 20
2.54115
 11
9.54198
 21
2.64377
  0
LINE
  8
0
 10
9.54198
 20
2.64377
 11
9.39555
 21
2.76233
  0
LINE
  8
0
 10
9.39555
 20
2.76233
 11
9.26233
 21
2.89555
  0
LINE
  8
0
 10
9.26233
 20
2.89555
 11
9.14377
 21
3.04198
  0
LINE
  8
0
 10
9.14377
 20
3.04198
 11
9.04115
 21
3.2
  0
LINE
  8
0
 10
9.04115
 20
3.2
 11
8.95561
 21
3.36786
  0
LINE
  8
0
 10
8.95561
 20
3.36786
 11
8.88809
 21
3.54376
  0
LINE
  8
0
 10
8.88809
 20
3.54376
 11
8.83932
 21
3.72575
  0
LINE
  8
0
 10
8.83932
 20
3.72575
 11
8.80986
 21
3.91183
  0
LINE
  8
0
 10
8.80986
 20
3.91183
 11
8.79999
 21
4.09999
  0
LINE
  8
0
 10
8.79999
 20
4.09999
 11
8.80986
 21
4.28815
  0
LINE
  8
0
 10
8.80986
 20
4.28815
 11
8.83932
 21
4.47423
  0
LINE
  8
0
 10
8.83932
 20
4.47423
 11
8.88809
 21
4.65622
  0
LINE
  8
0
 10
8.88809
 20
4.65622
 11
8.95561
 21
4.83212
  0
LINE
  8
0
 10
8.95561
 20
4.83212
 11
9.04115
 21
5
  0
LINE
  8
0
 10
9.04115
 20
5
 11
9.14377
 21
5.158
  0
LINE
  8
0
 10
9.14377
 20
5.158
 11
9.26233
 21
5.30443
  0
LINE
  8
0
 10
9.26233
 20
5.30443
 11
9.39555
 21
5.43765
  0
LINE
  8
0
 10
9.39555
 20
5.43765
 11
9.54198
 21
5.55623
  0
LINE
  8
0
 10
9.54198
 20
5.55623
 11
9.7
 21
5.65884
  0
LINE
  8
0
 10
9.7
 20
5.65884
 11
9.86786
 21
5.74437
  0
LINE
  8
0
 10
9.86786
 20
5.74437
 11
10.0438
 21
5.81189
  0
LINE
  8
0
 10
10.0438
 20
5.81189
 11
10.2258
 21
5.86066
  0
LINE
  8
0
 10
10.2258
 20
5.86066
 11
10.4118
 21
5.89014
  0
LINE
  8
0
 10
10.4118
 20
5.89014
 11
10.6
 21
5.89999
  0
LINE
  8
0
 10
10.6
 20
5.89999
 11
10.7881
 21
5.89014
  0
LINE
  8
0
 10
10.7881
 20
5.89014
 11
10.9742
 21
5.86066
  0
LINE
  8
0
 10
10.9742
 20
5.86066
 11
11.1562
 21
5.81189
  0
LINE
  8
0
 10
11.1562
 20
5.81189
 11
11.3321
 21
5.74437
  0
LINE
  8
0
 10
11.3321
 20
5.74437
 11
11.5
 21
5.65884
  0
LINE
  8
0
 10
11.5
 20
5.65884
 11
11.658
 21
5.55623
  0
LINE
  8
0
 10
11.658
 20
5.55623
 11
11.8044
 21
5.43765
  0
LINE
  8
0
 10
11.8044
 20
5.43765
 11
11.9377
 21
5.30443
  0
LINE
  8
0
 10
11.9377
 20
5.30443
 11
12.0562
 21
5.158
  0
LINE
  8
0
 10
12.0562
 20
5.158
 11
12.1588
 21
5
  0
LINE
  8
0
 10
12.1588
 20
5
 11
12.2444
 21
4.83212
  0
LINE
  8
0
 10
12.2444
 20
4.83212
 11
12.3119
 21
4.65622
  0
LINE
  8
0
 10
12.3119
 20
4.65622
 11
12.3607
 21
4.47423
  0
LINE
  8
0
 10
12.3607
 20
4.47423
 11
12.3901
 21
4.28815
  0
LINE
  8
0
 10
12.3901
 20
4.28815
 11
12.4
 21
4.09999
  0
LINE
  8
0
 10
12.4
 20
4.09999
 11
12.3901
 21
3.91183
  0
LINE
  8
0
 10
12.3901
 20
3.91183
 11
12.3607
 21
3.72575
  0
LINE
  8
0
 10
12.3607
 20
3.72575
 11
12.3119
 21
3.54376
  0
LINE
  8
0
 10
12.3119
 20
3.54376
 11
12.2444
 21
3.36786
  0
LINE
  8
0
 10
12.2444
 20
3.36786
 11
12.1588
 21
3.2
  0
LINE
  8
0
 10
12.1588
 20
3.2
 11
12.0562
 21
3.04198
  0
LINE
  8
0
 10
12.0562
 20
3.04198
 11
11.9377
 21
2.89555
  0
LINE
  8
0
 10
11.9377
 20
2.89555
 11
11.8044
 21
2.76233
  0
LINE
  8
0
 10
11.8044
 20
2.76233
 11
11.658
 21
2.64377
  0
LINE
  8
0
 10
11.658
 20
2.64377
 11
11.5
 21
2.54115
  0
LINE
  8
0
 10
11.5
 20
2.54115
 11
11.3321
 21
2.45561
  0
LINE
  8
0
 10
11.3321
 20
2.45561
 11
11.1562
 21
2.38809
  0
LINE
  8
0
 10
11.1562
 20
2.38809
 11
10.9742
 21
2.33932
  0
LINE
  8
0
 10
10.9742
 20
2.33932
 11
10.7881
 21
2.30986
  0
LINE
  8
0
 10
10.7881
 20
2.30986
 11
10.6
 21
2.29999
  0
LINE
  8
0
 10
10.6
 20
2.29999
 11
10.4118
 21
2.30986
  0
LINE
  8
0
 10
-10.7881
 20
2.30986
 11
-10.9742
 21
2.33932
  0
LINE
  8
0
 10
-10.9742
 20
2.33932
 11
-11.1562
 21
2.38809
  0
LINE
  8
0
 10
-11.1562
 20
2.38809
 11
-11.3321
 21
2.45561
  0
LINE
  8
0
 10
-11.3321
 20
2.45561
 11
-11.5
 21
2.54115
  0
LINE
  8
0
 10
-11.5
 20
2.54115
 11
-11.658
 21
2.64377
  0
LINE
  8
0
 10
-11.658
 20
2.64377
 11
-11.8044
 21
2.76233
  0
LINE
  8
0
 10
-11.8044
 20
2.76233
 11
-11.9377
 21
2.89555
  0
LINE
  8
0
 10
-11.9377
 20
2.89555
 11
-12.0562
 21
3.04198
  0
LINE
  8
0
 10
-12.0562
 20
3.04198
 11
-12.1588
 21
3.2
  0
LINE
  8
0
 10
-12.1588
 20
3.2
 11
-12.2444
 21
3.36786
  0
LINE
  8
0
 10
-12.2444
 20
3.36786
 11
-12.3119
 21
3.54376
  0
LINE
  8
0
 10
-12.3119
 20
3.54376
 11
-12.3607
 21
3.72575
  0
LINE
  8
0
 10
-12.3607
 20
3.72575
 11
-12.3901
 21
3.91183
  0
LINE
  8
0
 10
-12.3901
 20
3.91183
 11
-12.4
 21
4.09999
  0
LINE
  8
0
 10
-12.4
 20
4.09999
 11
-12.3901
 21
4.28815
  0
LINE
  8
0
 10
-12.3901
 20
4.28815
 11
-12.3607
 21
4.47423
  0
LINE
  8
0
 10
-12.3607
 20
4.47423
 11
-12.3119
 21
4.65622
  0
LINE
  8
0
 10
-12.3119
 20
4.65622
 11
-12.2444
 21
4.83212
  0
LINE
  8
0
 10
-12.2444
 20
4.83212
 11
-12.1588
 21
5
  0
LINE
  8
0
 10
-12.1588
 20
5
 11
-12.0562
 21
5.158
  0
LINE
  8
0
 10
-12.0562
 20
5.158
 11
-11.9377
 21
5.30443
  0
LINE
  8
0
 10
-11.9377
 20
5.30443
 11
-11.8044
 21
5.43765
  0
LINE
  8
0
 10
-11.8044
 20
5.43765
 11
-11.658
 21
5.55623
  0
LINE
  8
0
 10
-11.658
 20
5.55623
 11
-11.5
 21
5.65884
  0
LINE
  8
0
 10
-11.5
 20
5.65884
 11
-11.3321
 21
5.74437
  0
LINE
  8
0
 10
-11.3321
 20
5.74437
 11
-11.1562
 21
5.81189
  0
LINE
  8
0
 10
-11.1562
 20
5.81189
 11
-10.9742
 21
5.86066
  0
LINE
  8
0
 10
-10.9742
 20
5.86066
 11
-10.7881
 21
5.89014
  0
LINE
  8
0
 10
-10.7881
 20
5.89014
 11
-10.6
 21
5.89999
  0
LINE
  8
0
 10
-10.6
 20
5.89999
 11
-10.4118
 21
5.89014
  0
LINE
  8
0
 10
-10.4118
 20
5.89014
 11
-10.2258
 21
5.86066
  0
LINE
  8
0
 10
-10.2258
 20
5.86066
 11
-10.0438
 21
5.81189
  0
LINE
  8
0
 10
-10.0438
 20
5.81189
 11
-9.86786
 21
5.74437
  0
LINE
  8
0
 10
-9.86786
 20
5.74437
 11
-9.7
 21
5.65884
  0
LINE
  8
0
 10
-9.7
 20
5.65884
 11
-9.54198
 21
5.55623
  0
LINE
  8
0
 10
-9.54198
 20
5.55623
 11
-9.39555
 21
5.43765
  0
LINE
  8
0
 10
-9.39555
 20
5.43765
 11
-9.26233
 21
5.30443
  0
LINE
  8
0
 10
-9.26233
 20
5.30443
 11
-9.14377
 21
5.158
  0
LINE
  8
0
 10
-9.14377
 20
5.158
 11
-9.04115
 21
5
  0
LINE
  8
0
 10
-9.04115
 20
5
 11
-8.95561
 21
4.83212
  0
LINE
  8
0
 10
-8.95561
 20
4.83212
 11
-8.88809
 21
4.65622
  0
LINE
  8
0
 10
-8.88809
 20
4.65622
 11
-8.83932
 21
4.47423
  0
LINE
  8
0
 10
-8.83932
 20
4.47423
 11
-8.80986
 21
4.28815
  0
LINE
  8
0
 10
-8.80986
 20
4.28815
 11
-8.79999
 21
4.09999
  0
LINE
  8
0
 10
-8.79999
 20
4.09999
 11
-8.80986
 21
3.91183
  0
LINE
  8
0
 10
-8.80986
 20
3.91183
 11
-8.83932
 21
3.72575
  0
LINE
  8
0
 10
-8.83932
 20
3.72575
 11
-8.88809
 21
3.54376
  0
LINE
  8
0
 10
-8.88809
 20
3.54376
 11
-8.95561
 21
3.36786
  0
LINE
  8
0
 10
-8.95561
 20
3.36786
 11
-9.04115
 21
3.2
  0
LINE
  8
0
 10
-9.04115
 20
3.2
 11
-9.14377
 21
3.04198
  0
LINE
  8
0
 10
-9.14377
 20
3.04198
 11
-9.26233
 21
2.89555
  0
LINE
  8
0
 10
-9.26233
 20
2.89555
 11
-9.39555
 21
2.76233
  0
LINE
  8
0
 10
-9.39555
 20
2.76233
 11
-9.54198
 21
2.64377
  0
LINE
  8
0
 10
-9.54198
 20
2.64377
 11
-9.7
 21
2.54115
  0
LINE
  8
0
 10
-9.7
 20
2.54115
 11
-9.86786
 21
2.45561
  0
LINE
  8
0
 10
-9.86786
 20
2.45561
 11
-10.0438
 21
2.38809
  0
LINE
  8
0
 10
-10.0438
 20
2.38809
 11
-10.2258
 21
2.33932
  0
LINE
  8
0
 10
-10.2258
 20
2.33932
 11
-10.4118
 21
2.30986
  0
LINE
  8
0
 10
-10.4118
 20
2.30986
 11
-10.6
 21
2.29999
  0
LINE
  8
0
 10
-10.6
 20
2.29999
 11
-10.7881
 21
2.30986
  0
LINE
  8
0
 10
10.4118
 20
-17.6901
 11
10.2258
 21
-17.6607
  0
LINE
  8
0
 10
10.2258
 20
-17.6607
 11
10.0438
 21
-17.6119
  0
LINE
  8
0
 10
10.0438
 20
-17.6119
 11
9.86786
 21
-17.5444
  0
LINE
  8
0
 10
9.86786
 20
-17.5444
 11
9.7
 21
-17.4588
  0
LINE
  8
0
 10
9.7
 20
-17.4588
 11
9.54198
 21
-17.3562
  0
LINE
  8
0
 10
9.54198
 20
-17.3562
 11
9.39555
 21
-17.2377
  0
LINE
  8
0
 10
9.39555
 20
-17.2377
 11
9.26233
 21
-17.1044
  0
LINE
  8
0
 10
9.26233
 20
-17.1044
 11
9.14377
 21
-16.958
  0
LINE
  8
0
 10
9.14377
 20
-16.958
 11
9.04115
 21
-16.8
  0
LINE
  8
0
 10
9.04115
 20
-16.8
 11
8.95561
 21
-16.6321
  0
LINE
  8
0
 10
8.95561
 20
-16.6321
 11
8.88809
 21
-16.4562
  0
LINE
  8
0
 10
8.88809
 20
-16.4562
 11
8.83932
 21
-16.2742
  0
LINE
  8
0
 10
8.83932
 20
-16.2742
 11
8.80986
 21
-16.0882
  0
LINE
  8
0
 10
8.80986
 20
-16.0882
 11
8.79999
 21
-15.9
  0
LINE
  8
0
 10
8.79999
 20
-15.9
 11
8.80986
 21
-15.7118
  0
LINE
  8
0
 10
8.80986
 20
-15.7118
 11
8.83932
 21
-15.5258
  0
LINE
  8
0
 10
8.83932
 20
-15.5258
 11
8.88809
 21
-15.3438
  0
LINE
  8
0
 10
8.88809
 20
-15.3438
 11
8.95561
 21
-15.1679
  0
LINE
  8
0
 10
8.95561
 20
-15.1679
 11
9.04115
 21
-15
  0
LINE
  8
0
 10
9.04115
 20
-15
 11
9.14377
 21
-14.842
  0
LINE
  8
0
 10
9.14377
 20
-14.842
 11
9.26233
 21
-14.6956
  0
LINE
  8
0
 10
9.26233
 20
-14.6956
 11
9.39555
 21
-14.5623
  0
LINE
  8
0
 10
9.39555
 20
-14.5623
 11
9.54198
 21
-14.4438
  0
LINE
  8
0
 10
9.54198
 20
-14.4438
 11
9.7
 21
-14.3411
  0
LINE
  8
0
 10
9.7
 20
-14.3411
 11
9.86786
 21
-14.2556
  0
LINE
  8
0
 10
9.86786
 20
-14.2556
 11
10.0438
 21
-14.1881
  0
LINE
  8
0
 10
10.0438
 20
-14.1881
 11
10.2258
 21
-14.1393
  0
LINE
  8
0
 10
10.2258
 20
-14.1393
 11
10.4118
 21
-14.1098
  0
LINE
  8
0
 10
10.4118
 20
-14.1098
 11
10.6
 21
-14.1
  0
LINE
  8
0
 10
10.6
 20
-14.1
 11
10.7881
 21
-14.1098
  0
LINE
  8
0
 10
10.7881
 20
-14.1098
 11
10.9742
 21
-14.1393
  0
LINE
  8
0
 10
10.9742
 20
-14.1393
 11
11.1562
 21
-14.1881
  0
LINE
  8
0
 10
11.1562
 20
-14.1881
 11
11.3321
 21
-14.2556
  0
LINE
  8
0
 10
11.3321
 20
-14.2556
 11
11.5
 21
-14.3411
  0
LINE
  8
0
 10
11.5
 20
-14.3411
 11
11.658
 21
-14.4438
  0
LINE
  8
0
 10
11.658
 20
-14.4438
 11
11.8044
 21
-14.5623
  0
LINE
  8
0
 10
11.8044
 20
-14.5623
 11
11.9377
 21
-14.6956
  0
LINE
  8
0
 10
11.9377
 20
-14.6956
 11
12.0562
 21
-14.842
  0
LINE
  8
0
 10
12.0562
 20
-14.842
 11
12.1588
 21
-15
  0
LINE
  8
0
 10
12.1588
 20
-15
 11
12.2444
 21
-15.1679
  0
LINE
  8
0
 10
12.2444
 20
-15.1679
 11
12.3119
 21
-15.3438
  0
LINE
  8
0
 10
12.3119
 20
-15.3438
 11
12.3607
 21
-15.5258
  0
LINE
  8
0
 10
12.3607
 20
-15.5258
 11
12.3901
 21
-15.7118
  0
LINE
  8
0
 10
12.3901
 20
-15.7118
 11
12.4
 21
-15.9
  0
LINE
  8
0
 10
12.4
 20
-15.9
 11
12.3901
 21
-16.0882
  0
LINE
  8
0
 10
12.3901
 20
-16.0882
 11
12.3607
 21
-16.2742
  0
LINE
  8
0
 10
12.3607
 20
-16.2742
 11
12.3119
 21
-16.4562
  0
LINE
  8
0
 10
12.3119
 20
-16.4562
 11
12.2444
 21
-16.6321
  0
LINE
  8
0
 10
12.2444
 20
-16.6321
 11
12.1588
 21
-16.8
  0
LINE
  8
0
 10
12.1588
 20
-16.8
 11
12.0562
 21
-16.958
  0
LINE
  8
0
 10
12.0562
 20
-16.958
 11
11.9377
 21
-17.1044
  0
LINE
  8
0
 10
11.9377
 20
-17.1044
 11
11.8044
 21
-17.2377
  0
LINE
  8
0
 10
11.8044
 20
-17.2377
 11
11.658
 21
-17.3562
  0
LINE
  8
0
 10
11.658
 20
-17.3562
 11
11.5
 21
-17.4588
  0
LINE
  8
0
 10
11.5
 20
-17.4588
 11
11.3321
 21
-17.5444
  0
LINE
  8
0
 10
11.3321
 20
-17.5444
 11
11.1562
 21
-17.6119
  0
LINE
  8
0
 10
11.1562
 20
-17.6119
 11
10.9742
 21
-17.6607
  0
LINE
  8
0
 10
10.9742
 20
-17.6607
 11
10.7881
 21
-17.6901
  0
LINE
  8
0
 10
10.7881
 20
-17.6901
 11
10.6
 21
-17.7
  0
LINE
  8
0
 10
10.6
 20
-17.7
 11
10.4118
 21
-17.6901
  0
LINE
  8
0
 10
-10.7881
 20
-17.6901
 11
-10.9742
 21
-17.6607
  0
LINE
  8
0
 10
-10.9742
 20
-17.6607
 11
-11.1562
 21
-17.6119
  0
LINE
  8
0
 10
-11.1562
 20
-17.6119
 11
-11.3321
 21
-17.5444
  0
LINE
  8
0
 10
-11.3321
 20
-17.5444
 11
-11.5
 21
-17.4588
  0
LINE
  8
0
 10
-11.5
 20
-17.4588
 11
-11.658
 21
-17.3562
  0
LINE
  8
0
 10
-11.658
 20
-17.3562
 11
-11.8044
 21
-17.2377
  0
LINE
  8
0
 10
-11.8044
 20
-17.2377
 11
-11.9377
 21
-17.1044
  0
LINE
  8
0
 10
-11.9377
 20
-17.1044
 11
-12.0562
 21
-16.958
  0
LINE
  8
0
 10
-12.0562
 20
-16.958
 11
-12.1588
 21
-16.8
  0
LINE
  8
0
 10
-12.1588
 20
-16.8
 11
-12.2444
 21
-16.6321
  0
LINE
  8
0
 10
-12.2444
 20
-16.6321
 11
-12.3119
 21
-16.4562
  0
LINE
  8
0
 10
-12.3119
 20
-16.4562
 11
-12.3607
 21
-16.2742
  0
LINE
  8
0
 10
-12.3607
 20
-16.2742
 11
-12.3901
 21
-16.0882
  0
LINE
  8
0
 10
-12.3901
 20
-16.0882
 11
-12.4
 21
-15.9
  0
LINE
  8
0
 10
-12.4
 20
-15.9
 11
-12.3901
 21
-15.7118
  0
LINE
  8
0
 10
-12.3901
 20
-15.7118
 11
-12.3607
 21
-15.5258
  0
LINE
  8
0
 10
-12.3607
 20
-15.5258
 11
-12.3119
 21
-15.3438
  0
LINE
  8
0
 10
-12.3119
 20
-15.3438
 11
-12.2444
 21
-15.1679
  0
LINE
  8
0
 10
-12.2444
 20
-15.1679
 11
-12.1588
 21
-15
  0
LINE
  8
0
 10
-12.1588
 20
-15
 11
-12.0562
 21
-14.842
  0
LINE
  8
0
 10
-12.0562
 20
-14.842
 11
-11.9377
 21
-14.6956
  0
LINE
  8
0
 10
-11.9377
 20
-14.6956
 11
-11.8044
 21
-14.5623
  0
LINE
  8
0
 10
-11.8044
 20
-14.5623
 11
-11.658
 21
-14.4438
  0
LINE
  8
0
 10
-11.658
 20
-14.4438
 11
-11.5
 21
-14.3411
  0
LINE
  8
0
 10
-11.5
 20
-14.3411
 11
-11.3321
 21
-14.2556
  0
LINE
  8
0
 10
-11.3321
 20
-14.2556
 11
-11.1562
 21
-14.1881
  0
LINE
  8
0
 10
-11.1562
 20
-14.1881
 11
-10.9742
 21
-14.1393
  0
LINE
  8
0
 10
-10.9742
 20
-14.1393
 11
-10.7881
 21
-14.1098
  0
LINE
  8
0
 10
-10.7881
 20
-14.1098
 11
-10.6
 21
-14.1
  0
LINE
  8
0
 10
-10.6
 20
-14.1
 11
-10.4118
 21
-14.1098
  0
LINE
  8
0
 10
-10.4118
 20
-14.1098
 11
-10.2258
 21
-14.1393
  0
LINE
  8
0
 10
-10.2258
 20
-14.1393
 11
-10.0438
 21
-14.1881
  0
LINE
  8
0
 10
-10.0438
 20
-14.1881
 11
-9.86786
 21
-14.2556
  0
LINE
  8
0
 10
-9.86786
 20
-14.2556
 11
-9.7
 21
-14.3411
  0
LINE
  8
0
 10
-9.7
 20
-14.3411
 11
-9.54198
 21
-14.4438
  0
LINE
  8
0
 10
-9.54198
 20
-14.4438
 11
-9.39555
 21
-14.5623
  0
LINE
  8
0
 10
-9.39555
 20
-14.5623
 11
-9.26233
 21
-14.6956
  0
LINE
  8
0
 10
-9.26233
 20
-14.6956
 11
-9.14377
 21
-14.842
  0
LINE
  8
0
 10
-9.14377
 20
-14.842
 11
-9.04115
 21
-15
  0
LINE
  8
0
 10
-9.04115
 20
-15
 11
-8.95561
 21
-15.1679
  0
LINE
  8
0
 10
-8.95561
 20
-15.1679
 11
-8.88809
 21
-15.3438
  0
LINE
  8
0
 10
-8.88809
 20
-15.3438
 11
-8.83932
 21
-15.5258
  0
LINE
  8
0
 10
-8.83932
 20
-15.5258
 11
-8.80986
 21
-15.7118
  0
LINE
  8
0
 10
-8.80986
 20
-15.7118
 11
-8.79999
 21
-15.9
  0
LINE
  8
0
 10
-8.79999
 20
-15.9
 11
-8.80986
 21
-16.0882
  0
LINE
  8
0
 10
-8.80986
 20
-16.0882
 11
-8.83932
 21
-16.2742
  0
LINE
  8
0
 10
-8.83932
 20
-16.2742
 11
-8.88809
 21
-16.4562
  0
LINE
  8
0
 10
-8.88809
 20
-16.4562
 11
-8.95561
 21
-16.6321
  0
LINE
  8
0
 10
-8.95561
 20
-16.6321
 11
-9.04115
 21
-16.8
  0
LINE
  8
0
 10
-9.04115
 20
-16.8
 11
-9.14377
 21
-16.958
  0
LINE
  8
0
 10
-9.14377
 20
-16.958
 11
-9.26233
 21
-17.1044
  0
LINE
  8
0
 10
-9.26233
 20
-17.1044
 11
-9.39555
 21
-17.2377
  0
LINE
  8
0
 10
-9.39555
 20
-17.2377
 11
-9.54198
 21
-17.3562
  0
LINE
  8
0
 10
-9.54198
 20
-17.3562
 11
-9.7
 21
-17.4588
  0
LINE
  8
0
 10
-9.7
 20
-17.4588
 11
-9.86786
 21
-17.5444
  0
LINE
  8
0
 10
-9.86786
 20
-17.5444
 11
-10.0438
 21
-17.6119
  0
LINE
  8
0
 10
-10.0438
 20
-17.6119
 11
-10.2258
 21
-17.6607
  0
LINE
  8
0
 10
-10.2258
 20
-17.6607
 11
-10.4118
 21
-17.6901
  0
LINE
  8
0
 10
-10.4118
 20
-17.6901
 11
-10.6
 21
-17.7
  0
LINE
  8
0
 10
-10.6
 20
-17.7
 11
-10.7881
 21
-17.6901
  0
ENDSEC
  0
SECTION
  2
OBJECTS
  0
DICTIONARY
  0
ENDSEC
  0
EOF
