<?xml version="1.0" standalone="no"?>
<!DOCTYPE svg PUBLIC "-//W3C//DTD SVG 1.1//EN" "http://www.w3.org/Graphics/SVG/1.1/DTD/svg11.dtd">
<svg width="108mm" height="69mm" viewBox="-54 -49 108 69" xmlns="http://www.w3.org/2000/svg" version="1.1">
<title>OpenSCAD Model</title>
<path d="
M 10.9554,19.3814 L 11.3069,19.3257 L 11.6506,19.2336 L 11.9829,19.106 L 12.3,18.9445 L 12.5984,18.7507
 L 12.875,18.5267 L 13.1267,18.275 L 13.3506,17.9985 L 13.5445,17.7 L 13.706,17.3829 L 13.8336,17.0506
 L 13.9257,16.7069 L 13.9814,16.3554 L 14,16 L 14,-5.7 L 14.0186,-6.05539 L 14.0743,-6.40689
 L 14.1664,-6.75066 L 14.2939,-7.0829 L 14.4555,-7.39999 L 14.6493,-7.69846 L 14.8733,-7.97504 L 15.125,-8.22668
 L 15.4015,-8.45065 L 15.7,-8.64449 L 16.0171,-8.80605 L 16.3493,-8.93358 L 16.6931,-9.0257 L 17.0446,-9.08136
 L 17.4,-9.09999 L 17.7554,-9.08136 L 20,-8.8569 L 20,-8.86444 L 48.1446,-6.11862 L 48.5,-6.09999
 L 48.8554,-6.11862 L 49.2069,-6.17429 L 49.5506,-6.2664 L 49.8829,-6.39394 L 50.2,-6.55551 L 50.4985,-6.74933
 L 50.775,-6.9733 L 51.0267,-7.22495 L 51.2507,-7.50153 L 51.4445,-7.79999 L 51.606,-8.11708 L 51.7336,-8.44934
 L 51.8257,-8.79309 L 51.8814,-9.14459 L 53.8814,-30.1446 L 53.9,-30.5 L 53.8814,-30.8554 L 53.8257,-31.2069
 L 53.7336,-31.5506 L 53.606,-31.8829 L 53.4445,-32.2 L 53.2507,-32.4985 L 53.0267,-32.775 L 52.775,-33.0267
 L 52.4985,-33.2507 L 52.2,-33.4445 L 51.8829,-33.606 L 51.5506,-33.7336 L 11.5506,-48.7336 L 11.2069,-48.8257
 L 10.8554,-48.8814 L 10.5,-48.9 L 10.1446,-48.8814 L 9.79309,-48.8257 L 9.44934,-48.7336 L 9.11708,-48.606
 L 8.79999,-48.4445 L 8.50153,-48.2507 L 8.22495,-48.0267 L 7.9733,-47.775 L 7.74933,-47.4985 L 7.55551,-47.2
 L 7.39394,-46.8829 L 7.2664,-46.5506 L 7.17429,-46.2069 L 7.11862,-45.8554 L 6.31064,-37.2369 L 6.23358,-36.9493
 L 6.10605,-36.6171 L 5.94447,-36.3 L 5.75066,-36.0015 L 5.52669,-35.7249 L 5.27504,-35.4733 L 4.99846,-35.2493
 L 4.7,-35.0555 L 4.3829,-34.8939 L 4.05064,-34.7664 L 3.70689,-34.6743 L 3.35539,-34.6186 L 3,-34.6
 L -3,-34.6 L -3.35539,-34.6186 L -3.70689,-34.6743 L -4.05064,-34.7664 L -4.3829,-34.8939 L -4.7,-35.0555
 L -4.99846,-35.2493 L -5.27504,-35.4733 L -5.52669,-35.7249 L -5.75066,-36.0015 L -5.94447,-36.3 L -6.10605,-36.6171
 L -6.23358,-36.9493 L -6.31064,-37.2369 L -7.11862,-45.8554 L -7.17429,-46.2069 L -7.2664,-46.5506 L -7.39394,-46.8829
 L -7.55551,-47.2 L -7.74933,-47.4985 L -7.9733,-47.775 L -8.22495,-48.0267 L -8.50153,-48.2507 L -8.79999,-48.4445
 L -9.11708,-48.606 L -9.44934,-48.7336 L -9.79309,-48.8257 L -10.1446,-48.8814 L -10.5,-48.9 L -10.8554,-48.8814
 L -11.2069,-48.8257 L -11.5506,-48.7336 L -51.5506,-33.7336 L -51.8829,-33.606 L -52.2,-33.4445 L -52.4985,-33.2507
 L -52.775,-33.0267 L -53.0267,-32.775 L -53.2507,-32.4985 L -53.4445,-32.2 L -53.606,-31.8829 L -53.7336,-31.5506
 L -53.8257,-31.2069 L -53.8814,-30.8554 L -53.9,-30.5 L -53.8814,-30.1446 L -51.8814,-9.14459 L -51.8257,-8.79309
 L -51.7336,-8.44934 L -51.606,-8.11708 L -51.4445,-7.79999 L -51.2507,-7.50153 L -51.0267,-7.22495 L -50.775,-6.9733
 L -50.4985,-6.74933 L -50.2,-6.55551 L -49.8829,-6.39394 L -49.5506,-6.2664 L -49.2069,-6.17429 L -48.8554,-6.11862
 L -48.5,-6.09999 L -48.1446,-6.11862 L -20,-8.86444 L -20,-8.8569 L -17.7554,-9.08136 L -17.4,-9.09999
 L -17.0446,-9.08136 L -16.6931,-9.0257 L -16.3493,-8.93358 L -16.0171,-8.80605 L -15.7,-8.64449 L -15.4015,-8.45065
 L -15.125,-8.22668 L -14.8733,-7.97504 L -14.6493,-7.69846 L -14.4555,-7.39999 L -14.2939,-7.0829 L -14.1664,-6.75066
 L -14.0743,-6.40689 L -14.0186,-6.05539 L -14,-5.7 L -14,16 L -13.9814,16.3554 L -13.9257,16.7069
 L -13.8336,17.0506 L -13.706,17.3829 L -13.5445,17.7 L -13.3506,17.9985 L -13.1267,18.275 L -12.875,18.5267
 L -12.5984,18.7507 L -12.3,18.9445 L -11.9829,19.106 L -11.6506,19.2336 L -11.3069,19.3257 L -10.9554,19.3814
 L -10.6,19.4 L 10.6,19.4 z
M -10.6881,-43.7099 L -10.8742,-43.7393 L -11.0562,-43.7881 L -11.2321,-43.8556 L -11.4,-43.9411 L -11.558,-44.0438
 L -11.7044,-44.1623 L -11.8376,-44.2956 L -11.9562,-44.442 L -12.0588,-44.6 L -12.1444,-44.7679 L -12.2119,-44.9438
 L -12.2607,-45.1257 L -12.2901,-45.3118 L -12.3,-45.5 L -12.2901,-45.6881 L -12.2607,-45.8742 L -12.2119,-46.0562
 L -12.1444,-46.2321 L -12.0588,-46.4 L -11.9562,-46.558 L -11.8376,-46.7044 L -11.7044,-46.8376 L -11.558,-46.9562
 L -11.4,-47.0588 L -11.2321,-47.1444 L -11.0562,-47.2119 L -10.8742,-47.2607 L -10.6881,-47.2901 L -10.5,-47.3
 L -10.3118,-47.2901 L -10.1257,-47.2607 L -9.94376,-47.2119 L -9.76787,-47.1444 L -9.59999,-47.0588 L -9.44199,-46.9562
 L -9.29556,-46.8376 L -9.16234,-46.7044 L -9.04376,-46.558 L -8.94115,-46.4 L -8.85561,-46.2321 L -8.78809,-46.0562
 L -8.73933,-45.8742 L -8.70985,-45.6881 L -8.7,-45.5 L -8.70985,-45.3118 L -8.73933,-45.1257 L -8.78809,-44.9438
 L -8.85561,-44.7679 L -8.94115,-44.6 L -9.04376,-44.442 L -9.16234,-44.2956 L -9.29556,-44.1623 L -9.44199,-44.0438
 L -9.59999,-43.9411 L -9.76787,-43.8556 L -9.94376,-43.7881 L -10.1257,-43.7393 L -10.3118,-43.7099 L -10.5,-43.7
 z
M 10.3118,-43.7099 L 10.1257,-43.7393 L 9.94376,-43.7881 L 9.76787,-43.8556 L 9.59999,-43.9411 L 9.44199,-44.0438
 L 9.29556,-44.1623 L 9.16234,-44.2956 L 9.04376,-44.442 L 8.94115,-44.6 L 8.85561,-44.7679 L 8.78809,-44.9438
 L 8.73933,-45.1257 L 8.70985,-45.3118 L 8.7,-45.5 L 8.70985,-45.6881 L 8.73933,-45.8742 L 8.78809,-46.0562
 L 8.85561,-46.2321 L 8.94115,-46.4 L 9.04376,-46.558 L 9.16234,-46.7044 L 9.29556,-46.8376 L 9.44199,-46.9562
 L 9.59999,-47.0588 L 9.76787,-47.1444 L 9.94376,-47.2119 L 10.1257,-47.2607 L 10.3118,-47.2901 L 10.5,-47.3
 L 10.6881,-47.2901 L 10.8742,-47.2607 L 11.0562,-47.2119 L 11.2321,-47.1444 L 11.4,-47.0588 L 11.558,-46.9562
 L 11.7044,-46.8376 L 11.8376,-46.7044 L 11.9562,-46.558 L 12.0588,-46.4 L 12.1444,-46.2321 L 12.2119,-46.0562
 L 12.2607,-45.8742 L 12.2901,-45.6881 L 12.3,-45.5 L 12.2901,-45.3118 L 12.2607,-45.1257 L 12.2119,-44.9438
 L 12.1444,-44.7679 L 12.0588,-44.6 L 11.9562,-44.442 L 11.8376,-44.2956 L 11.7044,-44.1623 L 11.558,-44.0438
 L 11.4,-43.9411 L 11.2321,-43.8556 L 11.0562,-43.7881 L 10.8742,-43.7393 L 10.6881,-43.7099 L 10.5,-43.7
 z
M 50.3118,-28.7099 L 50.1257,-28.7393 L 49.9438,-28.7881 L 49.7679,-28.8556 L 49.6,-28.9411 L 49.442,-29.0438
 L 49.2956,-29.1623 L 49.1623,-29.2956 L 49.0438,-29.442 L 48.9411,-29.6 L 48.8556,-29.7679 L 48.7881,-29.9438
 L 48.7393,-30.1257 L 48.7099,-30.3118 L 48.7,-30.5 L 48.7099,-30.6881 L 48.7393,-30.8742 L 48.7881,-31.0562
 L 48.8556,-31.2321 L 48.9411,-31.4 L 49.0438,-31.558 L 49.1623,-31.7044 L 49.2956,-31.8376 L 49.442,-31.9562
 L 49.6,-32.0588 L 49.7679,-32.1444 L 49.9438,-32.2119 L 50.1257,-32.2607 L 50.3118,-32.2901 L 50.5,-32.3
 L 50.6881,-32.2901 L 50.8742,-32.2607 L 51.0562,-32.2119 L 51.2321,-32.1444 L 51.4,-32.0588 L 51.558,-31.9562
 L 51.7044,-31.8376 L 51.8376,-31.7044 L 51.9562,-31.558 L 52.0588,-31.4 L 52.1444,-31.2321 L 52.2119,-31.0562
 L 52.2607,-30.8742 L 52.2901,-30.6881 L 52.3,-30.5 L 52.2901,-30.3118 L 52.2607,-30.1257 L 52.2119,-29.9438
 L 52.1444,-29.7679 L 52.0588,-29.6 L 51.9562,-29.442 L 51.8376,-29.2956 L 51.7044,-29.1623 L 51.558,-29.0438
 L 51.4,-28.9411 L 51.2321,-28.8556 L 51.0562,-28.7881 L 50.8742,-28.7393 L 50.6881,-28.7099 L 50.5,-28.7
 z
M -50.6881,-28.7099 L -50.8742,-28.7393 L -51.0562,-28.7881 L -51.2321,-28.8556 L -51.4,-28.9411 L -51.558,-29.0438
 L -51.7044,-29.1623 L -51.8376,-29.2956 L -51.9562,-29.442 L -52.0588,-29.6 L -52.1444,-29.7679 L -52.2119,-29.9438
 L -52.2607,-30.1257 L -52.2901,-30.3118 L -52.3,-30.5 L -52.2901,-30.6881 L -52.2607,-30.8742 L -52.2119,-31.0562
 L -52.1444,-31.2321 L -52.0588,-31.4 L -51.9562,-31.558 L -51.8376,-31.7044 L -51.7044,-31.8376 L -51.558,-31.9562
 L -51.4,-32.0588 L -51.2321,-32.1444 L -51.0562,-32.2119 L -50.8742,-32.2607 L -50.6881,-32.2901 L -50.5,-32.3
 L -50.3118,-32.2901 L -50.1257,-32.2607 L -49.9438,-32.2119 L -49.7679,-32.1444 L -49.6,-32.0588 L -49.442,-31.9562
 L -49.2956,-31.8376 L -49.1623,-31.7044 L -49.0438,-31.558 L -48.9411,-31.4 L -48.8556,-31.2321 L -48.7881,-31.0562
 L -48.7393,-30.8742 L -48.7099,-30.6881 L -48.7,-30.5 L -48.7099,-30.3118 L -48.7393,-30.1257 L -48.7881,-29.9438
 L -48.8556,-29.7679 L -48.9411,-29.6 L -49.0438,-29.442 L -49.1623,-29.2956 L -49.2956,-29.1623 L -49.442,-29.0438
 L -49.6,-28.9411 L -49.7679,-28.8556 L -49.9438,-28.7881 L -50.1257,-28.7393 L -50.3118,-28.7099 L -50.5,-28.7
 z
M -0.188141,-28.2099 L -0.374237,-28.2393 L -0.556229,-28.2881 L -0.732117,-28.3556 L -0.899994,-28.4411 L -1.058,-28.5438
 L -1.20442,-28.6623 L -1.33765,-28.7956 L -1.45622,-28.942 L -1.55884,-29.1 L -1.64438,-29.2679 L -1.7119,-29.4438
 L -1.76065,-29.6257 L -1.79013,-29.8118 L -1.79999,-30 L -1.79013,-30.1881 L -1.76065,-30.3742 L -1.7119,-30.5562
 L -1.64438,-30.7321 L -1.55884,-30.9 L -1.45622,-31.058 L -1.33765,-31.2044 L -1.20442,-31.3376 L -1.058,-31.4562
 L -0.899994,-31.5588 L -0.732117,-31.6444 L -0.556229,-31.7119 L -0.374237,-31.7607 L -0.188141,-31.7901 L 0,-31.8
 L 0.188141,-31.7901 L 0.374237,-31.7607 L 0.556229,-31.7119 L 0.732117,-31.6444 L 0.899994,-31.5588 L 1.058,-31.4562
 L 1.20442,-31.3376 L 1.33765,-31.2044 L 1.45622,-31.058 L 1.55884,-30.9 L 1.64438,-30.7321 L 1.7119,-30.5562
 L 1.76065,-30.3742 L 1.79013,-30.1881 L 1.79999,-30 L 1.79013,-29.8118 L 1.76065,-29.6257 L 1.7119,-29.4438
 L 1.64438,-29.2679 L 1.55884,-29.1 L 1.45622,-28.942 L 1.33765,-28.7956 L 1.20442,-28.6623 L 1.058,-28.5438
 L 0.899994,-28.4411 L 0.732117,-28.3556 L 0.556229,-28.2881 L 0.374237,-28.2393 L 0.188141,-28.2099 L 0,-28.2
 z
M -25.0209,-24.8011 L -25.0416,-24.8044 L -25.0618,-24.8098 L -25.0813,-24.8173 L -25.1,-24.8268 L -25.1176,-24.8382
 L -25.1338,-24.8514 L -25.1486,-24.8662 L -25.1618,-24.8824 L -25.1732,-24.9 L -25.1827,-24.9186 L -25.1902,-24.9382
 L -25.1956,-24.9584 L -25.1989,-24.9791 L -25.2,-25 L -25.1989,-25.0209 L -25.1956,-25.0416 L -25.1902,-25.0618
 L -25.1827,-25.0813 L -25.1732,-25.1 L -25.1618,-25.1176 L -25.1486,-25.1338 L -25.1338,-25.1486 L -25.1176,-25.1618
 L -25.1,-25.1732 L -25.0813,-25.1827 L -25.0618,-25.1902 L -25.0416,-25.1956 L -25.0209,-25.1989 L -25,-25.2
 L -24.9791,-25.1989 L -24.9584,-25.1956 L -24.9382,-25.1902 L -24.9186,-25.1827 L -24.9,-25.1732 L -24.8824,-25.1618
 L -24.8662,-25.1486 L -24.8514,-25.1338 L -24.8382,-25.1176 L -24.8268,-25.1 L -24.8173,-25.0813 L -24.8098,-25.0618
 L -24.8044,-25.0416 L -24.8011,-25.0209 L -24.8,-25 L -24.8011,-24.9791 L -24.8044,-24.9584 L -24.8098,-24.9382
 L -24.8173,-24.9186 L -24.8268,-24.9 L -24.8382,-24.8824 L -24.8514,-24.8662 L -24.8662,-24.8514 L -24.8824,-24.8382
 L -24.9,-24.8268 L -24.9186,-24.8173 L -24.9382,-24.8098 L -24.9584,-24.8044 L -24.9791,-24.8011 L -25,-24.8
 z
M 24.9791,-24.8011 L 24.9584,-24.8044 L 24.9382,-24.8098 L 24.9186,-24.8173 L 24.9,-24.8268 L 24.8824,-24.8382
 L 24.8662,-24.8514 L 24.8514,-24.8662 L 24.8382,-24.8824 L 24.8268,-24.9 L 24.8173,-24.9186 L 24.8098,-24.9382
 L 24.8044,-24.9584 L 24.8011,-24.9791 L 24.8,-25 L 24.8011,-25.0209 L 24.8044,-25.0416 L 24.8098,-25.0618
 L 24.8173,-25.0813 L 24.8268,-25.1 L 24.8382,-25.1176 L 24.8514,-25.1338 L 24.8662,-25.1486 L 24.8824,-25.1618
 L 24.9,-25.1732 L 24.9186,-25.1827 L 24.9382,-25.1902 L 24.9584,-25.1956 L 24.9791,-25.1989 L 25,-25.2
 L 25.0209,-25.1989 L 25.0416,-25.1956 L 25.0618,-25.1902 L 25.0813,-25.1827 L 25.1,-25.1732 L 25.1176,-25.1618
 L 25.1338,-25.1486 L 25.1486,-25.1338 L 25.1618,-25.1176 L 25.1732,-25.1 L 25.1827,-25.0813 L 25.1902,-25.0618
 L 25.1956,-25.0416 L 25.1989,-25.0209 L 25.2,-25 L 25.1989,-24.9791 L 25.1956,-24.9584 L 25.1902,-24.9382
 L 25.1827,-24.9186 L 25.1732,-24.9 L 25.1618,-24.8824 L 25.1486,-24.8662 L 25.1338,-24.8514 L 25.1176,-24.8382
 L 25.1,-24.8268 L 25.0813,-24.8173 L 25.0618,-24.8098 L 25.0416,-24.8044 L 25.0209,-24.8011 L 25,-24.8
 z
M -0.188141,-21.2099 L -0.374237,-21.2393 L -0.556229,-21.2881 L -0.732117,-21.3556 L -0.899994,-21.4411 L -1.058,-21.5438
 L -1.20442,-21.6623 L -1.33765,-21.7956 L -1.45622,-21.942 L -1.55884,-22.1 L -1.64438,-22.2679 L -1.7119,-22.4438
 L -1.76065,-22.6257 L -1.79013,-22.8118 L -1.79999,-23 L -1.79013,-23.1881 L -1.76065,-23.3742 L -1.7119,-23.5562
 L -1.64438,-23.7321 L -1.55884,-23.9 L -1.45622,-24.058 L -1.33765,-24.2044 L -1.20442,-24.3376 L -1.058,-24.4562
 L -0.899994,-24.5588 L -0.732117,-24.6444 L -0.556229,-24.7119 L -0.374237,-24.7607 L -0.188141,-24.7901 L 0,-24.8
 L 0.188141,-24.7901 L 0.374237,-24.7607 L 0.556229,-24.7119 L 0.732117,-24.6444 L 0.899994,-24.5588 L 1.058,-24.4562
 L 1.20442,-24.3376 L 1.33765,-24.2044 L 1.45622,-24.058 L 1.55884,-23.9 L 1.64438,-23.7321 L 1.7119,-23.5562
 L 1.76065,-23.3742 L 1.79013,-23.1881 L 1.79999,-23 L 1.79013,-22.8118 L 1.76065,-22.6257 L 1.7119,-22.4438
 L 1.64438,-22.2679 L 1.55884,-22.1 L 1.45622,-21.942 L 1.33765,-21.7956 L 1.20442,-21.6623 L 1.058,-21.5438
 L 0.899994,-21.4411 L 0.732117,-21.3556 L 0.556229,-21.2881 L 0.374237,-21.2393 L 0.188141,-21.2099 L 0,-21.2
 z
M -7.68814,-11.7099 L -7.87424,-11.7393 L -8.05623,-11.7881 L -8.23212,-11.8556 L -8.39999,-11.9411 L -8.558,-12.0438
 L -8.70442,-12.1623 L -8.83765,-12.2956 L -8.95622,-12.442 L -9.05884,-12.6 L -9.14438,-12.7679 L -9.2119,-12.9438
 L -9.26065,-13.1257 L -9.29013,-13.3118 L -9.29999,-13.5 L -9.29013,-13.6881 L -9.26065,-13.8742 L -9.2119,-14.0562
 L -9.14438,-14.2321 L -9.05884,-14.4 L -8.95622,-14.558 L -8.83765,-14.7044 L -8.70442,-14.8376 L -8.558,-14.9562
 L -8.39999,-15.0588 L -8.23212,-15.1444 L -8.05623,-15.2119 L -7.87424,-15.2607 L -7.68814,-15.2901 L -7.5,-15.3
 L -7.31184,-15.2901 L -7.12575,-15.2607 L -6.94376,-15.2119 L -6.76787,-15.1444 L -6.59999,-15.0588 L -6.44199,-14.9562
 L -6.29556,-14.8376 L -6.16234,-14.7044 L -6.04376,-14.558 L -5.94115,-14.4 L -5.85561,-14.2321 L -5.78809,-14.0562
 L -5.73933,-13.8742 L -5.70985,-13.6881 L -5.7,-13.5 L -5.70985,-13.3118 L -5.73933,-13.1257 L -5.78809,-12.9438
 L -5.85561,-12.7679 L -5.94115,-12.6 L -6.04376,-12.442 L -6.16234,-12.2956 L -6.29556,-12.1623 L -6.44199,-12.0438
 L -6.59999,-11.9411 L -6.76787,-11.8556 L -6.94376,-11.7881 L -7.12575,-11.7393 L -7.31184,-11.7099 L -7.5,-11.7
 z
M 7.31184,-11.7099 L 7.12575,-11.7393 L 6.94376,-11.7881 L 6.76787,-11.8556 L 6.59999,-11.9411 L 6.44199,-12.0438
 L 6.29556,-12.1623 L 6.16234,-12.2956 L 6.04376,-12.442 L 5.94115,-12.6 L 5.85561,-12.7679 L 5.78809,-12.9438
 L 5.73933,-13.1257 L 5.70985,-13.3118 L 5.7,-13.5 L 5.70985,-13.6881 L 5.73933,-13.8742 L 5.78809,-14.0562
 L 5.85561,-14.2321 L 5.94115,-14.4 L 6.04376,-14.558 L 6.16234,-14.7044 L 6.29556,-14.8376 L 6.44199,-14.9562
 L 6.59999,-15.0588 L 6.76787,-15.1444 L 6.94376,-15.2119 L 7.12575,-15.2607 L 7.31184,-15.2901 L 7.5,-15.3
 L 7.68814,-15.2901 L 7.87424,-15.2607 L 8.05623,-15.2119 L 8.23212,-15.1444 L 8.39999,-15.0588 L 8.558,-14.9562
 L 8.70442,-14.8376 L 8.83765,-14.7044 L 8.95622,-14.558 L 9.05884,-14.4 L 9.14438,-14.2321 L 9.2119,-14.0562
 L 9.26065,-13.8742 L 9.29013,-13.6881 L 9.29999,-13.5 L 9.29013,-13.3118 L 9.26065,-13.1257 L 9.2119,-12.9438
 L 9.14438,-12.7679 L 9.05884,-12.6 L 8.95622,-12.442 L 8.83765,-12.2956 L 8.70442,-12.1623 L 8.558,-12.0438
 L 8.39999,-11.9411 L 8.23212,-11.8556 L 8.05623,-11.7881 L 7.87424,-11.7393 L 7.68814,-11.7099 L 7.5,-11.7
 z
M 48.3118,-7.70985 L 48.1257,-7.73933 L 47.9438,-7.78809 L 47.7679,-7.85561 L 47.6,-7.94115 L 47.442,-8.04376
 L 47.2956,-8.16234 L 47.1623,-8.29556 L 47.0438,-8.44199 L 46.9411,-8.59999 L 46.8556,-8.76787 L 46.7881,-8.94376
 L 46.7393,-9.12575 L 46.7099,-9.31184 L 46.7,-9.5 L 46.7099,-9.68814 L 46.7393,-9.87424 L 46.7881,-10.0562
 L 46.8556,-10.2321 L 46.9411,-10.4 L 47.0438,-10.558 L 47.1623,-10.7044 L 47.2956,-10.8376 L 47.442,-10.9562
 L 47.6,-11.0588 L 47.7679,-11.1444 L 47.9438,-11.2119 L 48.1257,-11.2607 L 48.3118,-11.2901 L 48.5,-11.3
 L 48.6881,-11.2901 L 48.8742,-11.2607 L 49.0562,-11.2119 L 49.2321,-11.1444 L 49.4,-11.0588 L 49.558,-10.9562
 L 49.7044,-10.8376 L 49.8376,-10.7044 L 49.9562,-10.558 L 50.0588,-10.4 L 50.1444,-10.2321 L 50.2119,-10.0562
 L 50.2607,-9.87424 L 50.2901,-9.68814 L 50.3,-9.5 L 50.2901,-9.31184 L 50.2607,-9.12575 L 50.2119,-8.94376
 L 50.1444,-8.76787 L 50.0588,-8.59999 L 49.9562,-8.44199 L 49.8376,-8.29556 L 49.7044,-8.16234 L 49.558,-8.04376
 L 49.4,-7.94115 L 49.2321,-7.85561 L 49.0562,-7.78809 L 48.8742,-7.73933 L 48.6881,-7.70985 L 48.5,-7.7
 z
M -48.6881,-7.70985 L -48.8742,-7.73933 L -49.0562,-7.78809 L -49.2321,-7.85561 L -49.4,-7.94115 L -49.558,-8.04376
 L -49.7044,-8.16234 L -49.8376,-8.29556 L -49.9562,-8.44199 L -50.0588,-8.59999 L -50.1444,-8.76787 L -50.2119,-8.94376
 L -50.2607,-9.12575 L -50.2901,-9.31184 L -50.3,-9.5 L -50.2901,-9.68814 L -50.2607,-9.87424 L -50.2119,-10.0562
 L -50.1444,-10.2321 L -50.0588,-10.4 L -49.9562,-10.558 L -49.8376,-10.7044 L -49.7044,-10.8376 L -49.558,-10.9562
 L -49.4,-11.0588 L -49.2321,-11.1444 L -49.0562,-11.2119 L -48.8742,-11.2607 L -48.6881,-11.2901 L -48.5,-11.3
 L -48.3118,-11.2901 L -48.1257,-11.2607 L -47.9438,-11.2119 L -47.7679,-11.1444 L -47.6,-11.0588 L -47.442,-10.9562
 L -47.2956,-10.8376 L -47.1623,-10.7044 L -47.0438,-10.558 L -46.9411,-10.4 L -46.8556,-10.2321 L -46.7881,-10.0562
 L -46.7393,-9.87424 L -46.7099,-9.68814 L -46.7,-9.5 L -46.7099,-9.31184 L -46.7393,-9.12575 L -46.7881,-8.94376
 L -46.8556,-8.76787 L -46.9411,-8.59999 L -47.0438,-8.44199 L -47.1623,-8.29556 L -47.2956,-8.16234 L -47.442,-8.04376
 L -47.6,-7.94115 L -47.7679,-7.85561 L -47.9438,-7.78809 L -48.1257,-7.73933 L -48.3118,-7.70985 L -48.5,-7.7
 z
M -10.7881,-2.30986 L -10.9742,-2.33932 L -11.1562,-2.38809 L -11.3321,-2.45561 L -11.5,-2.54115 L -11.658,-2.64377
 L -11.8044,-2.76233 L -11.9377,-2.89555 L -12.0562,-3.04198 L -12.1588,-3.2 L -12.2444,-3.36786 L -12.3119,-3.54376
 L -12.3607,-3.72575 L -12.3901,-3.91183 L -12.4,-4.09999 L -12.3901,-4.28815 L -12.3607,-4.47423 L -12.3119,-4.65622
 L -12.2444,-4.83212 L -12.1588,-5 L -12.0562,-5.158 L -11.9377,-5.30443 L -11.8044,-5.43765 L -11.658,-5.55623
 L -11.5,-5.65884 L -11.3321,-5.74437 L -11.1562,-5.81189 L -10.9742,-5.86066 L -10.7881,-5.89014 L -10.6,-5.89999
 L -10.4118,-5.89014 L -10.2258,-5.86066 L -10.0438,-5.81189 L -9.86786,-5.74437 L -9.7,-5.65884 L -9.54198,-5.55623
 L -9.39555,-5.43765 L -9.26233,-5.30443 L -9.14377,-5.158 L -9.04115,-5 L -8.95561,-4.83212 L -8.88809,-4.65622
 L -8.83932,-4.47423 L -8.80986,-4.28815 L -8.79999,-4.09999 L -8.80986,-3.91183 L -8.83932,-3.72575 L -8.88809,-3.54376
 L -8.95561,-3.36786 L -9.04115,-3.2 L -9.14377,-3.04198 L -9.26233,-2.89555 L -9.39555,-2.76233 L -9.54198,-2.64377
 L -9.7,-2.54115 L -9.86786,-2.45561 L -10.0438,-2.38809 L -10.2258,-2.33932 L -10.4118,-2.30986 L -10.6,-2.29999
 z
M 10.4118,-2.30986 L 10.2258,-2.33932 L 10.0438,-2.38809 L 9.86786,-2.45561 L 9.7,-2.54115 L 9.54198,-2.64377
 L 9.39555,-2.76233 L 9.26233,-2.89555 L 9.14377,-3.04198 L 9.04115,-3.2 L 8.95561,-3.36786 L 8.88809,-3.54376
 L 8.83932,-3.72575 L 8.80986,-3.91183 L 8.79999,-4.09999 L 8.80986,-4.28815 L 8.83932,-4.47423 L 8.88809,-4.65622
 L 8.95561,-4.83212 L 9.04115,-5 L 9.14377,-5.158 L 9.26233,-5.30443 L 9.39555,-5.43765 L 9.54198,-5.55623
 L 9.7,-5.65884 L 9.86786,-5.74437 L 10.0438,-5.81189 L 10.2258,-5.86066 L 10.4118,-5.89014 L 10.6,-5.89999
 L 10.7881,-5.89014 L 10.9742,-5.86066 L 11.1562,-5.81189 L 11.3321,-5.74437 L 11.5,-5.65884 L 11.658,-5.55623
 L 11.8044,-5.43765 L 11.9377,-5.30443 L 12.0562,-5.158 L 12.1588,-5 L 12.2444,-4.83212 L 12.3119,-4.65622
 L 12.3607,-4.47423 L 12.3901,-4.28815 L 12.4,-4.09999 L 12.3901,-3.91183 L 12.3607,-3.72575 L 12.3119,-3.54376
 L 12.2444,-3.36786 L 12.1588,-3.2 L 12.0562,-3.04198 L 11.9377,-2.89555 L 11.8044,-2.76233 L 11.658,-2.64377
 L 11.5,-2.54115 L 11.3321,-2.45561 L 11.1562,-2.38809 L 10.9742,-2.33932 L 10.7881,-2.30986 L 10.6,-2.29999
 z
M -0.0209045,-2.05109 L -0.0415802,-2.05437 L -0.0617981,-2.05978 L -0.0813446,-2.06728 L -0.0999908,-2.07678 L -0.117554,-2.0882
 L -0.13382,-2.10136 L -0.148621,-2.11617 L -0.161789,-2.13243 L -0.173203,-2.14999 L -0.182709,-2.16864 L -0.190201,-2.18819
 L -0.195618,-2.2084 L -0.198898,-2.22908 L -0.199997,-2.25 L -0.198898,-2.2709 L -0.195618,-2.29158 L -0.190201,-2.3118
 L -0.182709,-2.33134 L -0.173203,-2.34999 L -0.161789,-2.36755 L -0.148621,-2.38382 L -0.13382,-2.39862 L -0.117554,-2.41179
 L -0.0999908,-2.4232 L -0.0813446,-2.43271 L -0.0617981,-2.4402 L -0.0415802,-2.44562 L -0.0209045,-2.4489 L 0,-2.45
 L 0.0209045,-2.4489 L 0.0415802,-2.44562 L 0.0617981,-2.4402 L 0.0813446,-2.43271 L 0.0999908,-2.4232 L 0.117554,-2.41179
 L 0.13382,-2.39862 L 0.148621,-2.38382 L 0.161789,-2.36755 L 0.173203,-2.34999 L 0.182709,-2.33134 L 0.190201,-2.3118
 L 0.195618,-2.29158 L 0.198898,-2.2709 L 0.199997,-2.25 L 0.198898,-2.22908 L 0.195618,-2.2084 L 0.190201,-2.18819
 L 0.182709,-2.16864 L 0.173203,-2.14999 L 0.161789,-2.13243 L 0.148621,-2.11617 L 0.13382,-2.10136 L 0.117554,-2.0882
 L 0.0999908,-2.07678 L 0.0813446,-2.06728 L 0.0617981,-2.05978 L 0.0415802,-2.05437 L 0.0209045,-2.05109 L 0,-2.04999
 z
M -0.0209045,5.9489 L -0.0415802,5.94562 L -0.0617981,5.9402 L -0.0813446,5.93271 L -0.0999908,5.9232 L -0.117554,5.91179
 L -0.13382,5.89862 L -0.148621,5.88382 L -0.161789,5.86755 L -0.173203,5.84999 L -0.182709,5.83134 L -0.190201,5.8118
 L -0.195618,5.79158 L -0.198898,5.7709 L -0.199997,5.75 L -0.198898,5.72908 L -0.195618,5.7084 L -0.190201,5.68819
 L -0.182709,5.66864 L -0.173203,5.64999 L -0.161789,5.63243 L -0.148621,5.61617 L -0.13382,5.60136 L -0.117554,5.5882
 L -0.0999908,5.57678 L -0.0813446,5.56728 L -0.0617981,5.55978 L -0.0415802,5.55437 L -0.0209045,5.55109 L 0,5.54999
 L 0.0209045,5.55109 L 0.0415802,5.55437 L 0.0617981,5.55978 L 0.0813446,5.56728 L 0.0999908,5.57678 L 0.117554,5.5882
 L 0.13382,5.60136 L 0.148621,5.61617 L 0.161789,5.63243 L 0.173203,5.64999 L 0.182709,5.66864 L 0.190201,5.68819
 L 0.195618,5.7084 L 0.198898,5.72908 L 0.199997,5.75 L 0.198898,5.7709 L 0.195618,5.79158 L 0.190201,5.8118
 L 0.182709,5.83134 L 0.173203,5.84999 L 0.161789,5.86755 L 0.148621,5.88382 L 0.13382,5.89862 L 0.117554,5.91179
 L 0.0999908,5.9232 L 0.0813446,5.93271 L 0.0617981,5.9402 L 0.0415802,5.94562 L 0.0209045,5.9489 L 0,5.95
 z
M 7.97908,5.9489 L 7.9584,5.94562 L 7.93819,5.9402 L 7.91864,5.93271 L 7.89999,5.9232 L 7.88243,5.91179
 L 7.86617,5.89862 L 7.85136,5.88382 L 7.8382,5.86755 L 7.82678,5.84999 L 7.81728,5.83134 L 7.80978,5.8118
 L 7.80437,5.79158 L 7.80109,5.7709 L 7.79999,5.75 L 7.80109,5.72908 L 7.80437,5.7084 L 7.80978,5.68819
 L 7.81728,5.66864 L 7.82678,5.64999 L 7.8382,5.63243 L 7.85136,5.61617 L 7.86617,5.60136 L 7.88243,5.5882
 L 7.89999,5.57678 L 7.91864,5.56728 L 7.93819,5.55978 L 7.9584,5.55437 L 7.97908,5.55109 L 8,5.54999
 L 8.0209,5.55109 L 8.04158,5.55437 L 8.0618,5.55978 L 8.08134,5.56728 L 8.09999,5.57678 L 8.11755,5.5882
 L 8.13382,5.60136 L 8.14862,5.61617 L 8.16179,5.63243 L 8.1732,5.64999 L 8.18271,5.66864 L 8.1902,5.68819
 L 8.19562,5.7084 L 8.1989,5.72908 L 8.2,5.75 L 8.1989,5.7709 L 8.19562,5.79158 L 8.1902,5.8118
 L 8.18271,5.83134 L 8.1732,5.84999 L 8.16179,5.86755 L 8.14862,5.88382 L 8.13382,5.89862 L 8.11755,5.91179
 L 8.09999,5.9232 L 8.08134,5.93271 L 8.0618,5.9402 L 8.04158,5.94562 L 8.0209,5.9489 L 8,5.95
 z
M -8.0209,5.9489 L -8.04158,5.94562 L -8.0618,5.9402 L -8.08134,5.93271 L -8.09999,5.9232 L -8.11755,5.91179
 L -8.13382,5.89862 L -8.14862,5.88382 L -8.16179,5.86755 L -8.1732,5.84999 L -8.18271,5.83134 L -8.1902,5.8118
 L -8.19562,5.79158 L -8.1989,5.7709 L -8.2,5.75 L -8.1989,5.72908 L -8.19562,5.7084 L -8.1902,5.68819
 L -8.18271,5.66864 L -8.1732,5.64999 L -8.16179,5.63243 L -8.14862,5.61617 L -8.13382,5.60136 L -8.11755,5.5882
 L -8.09999,5.57678 L -8.08134,5.56728 L -8.0618,5.55978 L -8.04158,5.55437 L -8.0209,5.55109 L -8,5.54999
 L -7.97908,5.55109 L -7.9584,5.55437 L -7.93819,5.55978 L -7.91864,5.56728 L -7.89999,5.57678 L -7.88243,5.5882
 L -7.86617,5.60136 L -7.85136,5.61617 L -7.8382,5.63243 L -7.82678,5.64999 L -7.81728,5.66864 L -7.80978,5.68819
 L -7.80437,5.7084 L -7.80109,5.72908 L -7.79999,5.75 L -7.80109,5.7709 L -7.80437,5.79158 L -7.80978,5.8118
 L -7.81728,5.83134 L -7.82678,5.84999 L -7.8382,5.86755 L -7.85136,5.88382 L -7.86617,5.89862 L -7.88243,5.91179
 L -7.89999,5.9232 L -7.91864,5.93271 L -7.93819,5.9402 L -7.9584,5.94562 L -7.97908,5.9489 L -8,5.95
 z
M -0.0209045,13.9489 L -0.0415802,13.9456 L -0.0617981,13.9402 L -0.0813446,13.9327 L -0.0999908,13.9232 L -0.117554,13.9118
 L -0.13382,13.8986 L -0.148621,13.8838 L -0.161789,13.8676 L -0.173203,13.85 L -0.182709,13.8313 L -0.190201,13.8118
 L -0.195618,13.7916 L -0.198898,13.7709 L -0.199997,13.75 L -0.198898,13.7291 L -0.195618,13.7084 L -0.190201,13.6882
 L -0.182709,13.6686 L -0.173203,13.65 L -0.161789,13.6324 L -0.148621,13.6162 L -0.13382,13.6014 L -0.117554,13.5882
 L -0.0999908,13.5768 L -0.0813446,13.5673 L -0.0617981,13.5598 L -0.0415802,13.5544 L -0.0209045,13.5511 L 0,13.55
 L 0.0209045,13.5511 L 0.0415802,13.5544 L 0.0617981,13.5598 L 0.0813446,13.5673 L 0.0999908,13.5768 L 0.117554,13.5882
 L 0.13382,13.6014 L 0.148621,13.6162 L 0.161789,13.6324 L 0.173203,13.65 L 0.182709,13.6686 L 0.190201,13.6882
 L 0.195618,13.7084 L 0.198898,13.7291 L 0.199997,13.75 L 0.198898,13.7709 L 0.195618,13.7916 L 0.190201,13.8118
 L 0.182709,13.8313 L 0.173203,13.85 L 0.161789,13.8676 L 0.148621,13.8838 L 0.13382,13.8986 L 0.117554,13.9118
 L 0.0999908,13.9232 L 0.0813446,13.9327 L 0.0617981,13.9402 L 0.0415802,13.9456 L 0.0209045,13.9489 L 0,13.95
 z
M 10.4118,17.6901 L 10.2258,17.6607 L 10.0438,17.6119 L 9.86786,17.5444 L 9.7,17.4588 L 9.54198,17.3562
 L 9.39555,17.2377 L 9.26233,17.1044 L 9.14377,16.958 L 9.04115,16.8 L 8.95561,16.6321 L 8.88809,16.4562
 L 8.83932,16.2742 L 8.80986,16.0882 L 8.79999,15.9 L 8.80986,15.7118 L 8.83932,15.5258 L 8.88809,15.3438
 L 8.95561,15.1679 L 9.04115,15 L 9.14377,14.842 L 9.26233,14.6956 L 9.39555,14.5623 L 9.54198,14.4438
 L 9.7,14.3411 L 9.86786,14.2556 L 10.0438,14.1881 L 10.2258,14.1393 L 10.4118,14.1098 L 10.6,14.1
 L 10.7881,14.1098 L 10.9742,14.1393 L 11.1562,14.1881 L 11.3321,14.2556 L 11.5,14.3411 L 11.658,14.4438
 L 11.8044,14.5623 L 11.9377,14.6956 L 12.0562,14.842 L 12.1588,15 L 12.2444,15.1679 L 12.3119,15.3438
 L 12.3607,15.5258 L 12.3901,15.7118 L 12.4,15.9 L 12.3901,16.0882 L 12.3607,16.2742 L 12.3119,16.4562
 L 12.2444,16.6321 L 12.1588,16.8 L 12.0562,16.958 L 11.9377,17.1044 L 11.8044,17.2377 L 11.658,17.3562
 L 11.5,17.4588 L 11.3321,17.5444 L 11.1562,17.6119 L 10.9742,17.6607 L 10.7881,17.6901 L 10.6,17.7
 z
M -10.7881,17.6901 L -10.9742,17.6607 L -11.1562,17.6119 L -11.3321,17.5444 L -11.5,17.4588 L -11.658,17.3562
 L -11.8044,17.2377 L -11.9377,17.1044 L -12.0562,16.958 L -12.1588,16.8 L -12.2444,16.6321 L -12.3119,16.4562
 L -12.3607,16.2742 L -12.3901,16.0882 L -12.4,15.9 L -12.3901,15.7118 L -12.3607,15.5258 L -12.3119,15.3438
 L -12.2444,15.1679 L -12.1588,15 L -12.0562,14.842 L -11.9377,14.6956 L -11.8044,14.5623 L -11.658,14.4438
 L -11.5,14.3411 L -11.3321,14.2556 L -11.1562,14.1881 L -10.9742,14.1393 L -10.7881,14.1098 L -10.6,14.1
 L -10.4118,14.1098 L -10.2258,14.1393 L -10.0438,14.1881 L -9.86786,14.2556 L -9.7,14.3411 L -9.54198,14.4438
 L -9.39555,14.5623 L -9.26233,14.6956 L -9.14377,14.842 L -9.04115,15 L -8.95561,15.1679 L -8.88809,15.3438
 L -8.83932,15.5258 L -8.80986,15.7118 L -8.79999,15.9 L -8.80986,16.0882 L -8.83932,16.2742 L -8.88809,16.4562
 L -8.95561,16.6321 L -9.04115,16.8 L -9.14377,16.958 L -9.26233,17.1044 L -9.39555,17.2377 L -9.54198,17.3562
 L -9.7,17.4588 L -9.86786,17.5444 L -10.0438,17.6119 L -10.2258,17.6607 L -10.4118,17.6901 L -10.6,17.7
 z
" stroke="black" fill="lightgray" stroke-width="0.5"/>
</svg>
