%TF.GenerationSoftware,KiCad,Pcbnew,7.0.8*%
%TF.CreationDate,2023-10-23T18:19:39+02:00*%
%TF.ProjectId,LED_Eyes2,4c45445f-4579-4657-9332-2e6b69636164,rev?*%
%TF.SameCoordinates,Original*%
%TF.FileFunction,Legend,Top*%
%TF.FilePolarity,Positive*%
%FSLAX46Y46*%
G04 Gerber Fmt 4.6, Leading zero omitted, Abs format (unit mm)*
G04 Created by KiCad (PCBNEW 7.0.8) date 2023-10-23 18:19:39*
%MOMM*%
%LPD*%
G01*
G04 APERTURE LIST*
%ADD10C,0.150000*%
%ADD11C,0.120000*%
G04 APERTURE END LIST*
D10*
X179066666Y-102154819D02*
X179066666Y-102869104D01*
X179066666Y-102869104D02*
X179019047Y-103011961D01*
X179019047Y-103011961D02*
X178923809Y-103107200D01*
X178923809Y-103107200D02*
X178780952Y-103154819D01*
X178780952Y-103154819D02*
X178685714Y-103154819D01*
X179495238Y-102250057D02*
X179542857Y-102202438D01*
X179542857Y-102202438D02*
X179638095Y-102154819D01*
X179638095Y-102154819D02*
X179876190Y-102154819D01*
X179876190Y-102154819D02*
X179971428Y-102202438D01*
X179971428Y-102202438D02*
X180019047Y-102250057D01*
X180019047Y-102250057D02*
X180066666Y-102345295D01*
X180066666Y-102345295D02*
X180066666Y-102440533D01*
X180066666Y-102440533D02*
X180019047Y-102583390D01*
X180019047Y-102583390D02*
X179447619Y-103154819D01*
X179447619Y-103154819D02*
X180066666Y-103154819D01*
X137833333Y-111459580D02*
X137785714Y-111507200D01*
X137785714Y-111507200D02*
X137642857Y-111554819D01*
X137642857Y-111554819D02*
X137547619Y-111554819D01*
X137547619Y-111554819D02*
X137404762Y-111507200D01*
X137404762Y-111507200D02*
X137309524Y-111411961D01*
X137309524Y-111411961D02*
X137261905Y-111316723D01*
X137261905Y-111316723D02*
X137214286Y-111126247D01*
X137214286Y-111126247D02*
X137214286Y-110983390D01*
X137214286Y-110983390D02*
X137261905Y-110792914D01*
X137261905Y-110792914D02*
X137309524Y-110697676D01*
X137309524Y-110697676D02*
X137404762Y-110602438D01*
X137404762Y-110602438D02*
X137547619Y-110554819D01*
X137547619Y-110554819D02*
X137642857Y-110554819D01*
X137642857Y-110554819D02*
X137785714Y-110602438D01*
X137785714Y-110602438D02*
X137833333Y-110650057D01*
X138690476Y-110888152D02*
X138690476Y-111554819D01*
X138452381Y-110507200D02*
X138214286Y-111221485D01*
X138214286Y-111221485D02*
X138833333Y-111221485D01*
X171433333Y-92354819D02*
X171100000Y-91878628D01*
X170861905Y-92354819D02*
X170861905Y-91354819D01*
X170861905Y-91354819D02*
X171242857Y-91354819D01*
X171242857Y-91354819D02*
X171338095Y-91402438D01*
X171338095Y-91402438D02*
X171385714Y-91450057D01*
X171385714Y-91450057D02*
X171433333Y-91545295D01*
X171433333Y-91545295D02*
X171433333Y-91688152D01*
X171433333Y-91688152D02*
X171385714Y-91783390D01*
X171385714Y-91783390D02*
X171338095Y-91831009D01*
X171338095Y-91831009D02*
X171242857Y-91878628D01*
X171242857Y-91878628D02*
X170861905Y-91878628D01*
X172385714Y-92354819D02*
X171814286Y-92354819D01*
X172100000Y-92354819D02*
X172100000Y-91354819D01*
X172100000Y-91354819D02*
X172004762Y-91497676D01*
X172004762Y-91497676D02*
X171909524Y-91592914D01*
X171909524Y-91592914D02*
X171814286Y-91640533D01*
X176638095Y-91454819D02*
X176638095Y-92264342D01*
X176638095Y-92264342D02*
X176685714Y-92359580D01*
X176685714Y-92359580D02*
X176733333Y-92407200D01*
X176733333Y-92407200D02*
X176828571Y-92454819D01*
X176828571Y-92454819D02*
X177019047Y-92454819D01*
X177019047Y-92454819D02*
X177114285Y-92407200D01*
X177114285Y-92407200D02*
X177161904Y-92359580D01*
X177161904Y-92359580D02*
X177209523Y-92264342D01*
X177209523Y-92264342D02*
X177209523Y-91454819D01*
X178209523Y-92454819D02*
X177638095Y-92454819D01*
X177923809Y-92454819D02*
X177923809Y-91454819D01*
X177923809Y-91454819D02*
X177828571Y-91597676D01*
X177828571Y-91597676D02*
X177733333Y-91692914D01*
X177733333Y-91692914D02*
X177638095Y-91740533D01*
X134933333Y-131859580D02*
X134885714Y-131907200D01*
X134885714Y-131907200D02*
X134742857Y-131954819D01*
X134742857Y-131954819D02*
X134647619Y-131954819D01*
X134647619Y-131954819D02*
X134504762Y-131907200D01*
X134504762Y-131907200D02*
X134409524Y-131811961D01*
X134409524Y-131811961D02*
X134361905Y-131716723D01*
X134361905Y-131716723D02*
X134314286Y-131526247D01*
X134314286Y-131526247D02*
X134314286Y-131383390D01*
X134314286Y-131383390D02*
X134361905Y-131192914D01*
X134361905Y-131192914D02*
X134409524Y-131097676D01*
X134409524Y-131097676D02*
X134504762Y-131002438D01*
X134504762Y-131002438D02*
X134647619Y-130954819D01*
X134647619Y-130954819D02*
X134742857Y-130954819D01*
X134742857Y-130954819D02*
X134885714Y-131002438D01*
X134885714Y-131002438D02*
X134933333Y-131050057D01*
X135790476Y-130954819D02*
X135600000Y-130954819D01*
X135600000Y-130954819D02*
X135504762Y-131002438D01*
X135504762Y-131002438D02*
X135457143Y-131050057D01*
X135457143Y-131050057D02*
X135361905Y-131192914D01*
X135361905Y-131192914D02*
X135314286Y-131383390D01*
X135314286Y-131383390D02*
X135314286Y-131764342D01*
X135314286Y-131764342D02*
X135361905Y-131859580D01*
X135361905Y-131859580D02*
X135409524Y-131907200D01*
X135409524Y-131907200D02*
X135504762Y-131954819D01*
X135504762Y-131954819D02*
X135695238Y-131954819D01*
X135695238Y-131954819D02*
X135790476Y-131907200D01*
X135790476Y-131907200D02*
X135838095Y-131859580D01*
X135838095Y-131859580D02*
X135885714Y-131764342D01*
X135885714Y-131764342D02*
X135885714Y-131526247D01*
X135885714Y-131526247D02*
X135838095Y-131431009D01*
X135838095Y-131431009D02*
X135790476Y-131383390D01*
X135790476Y-131383390D02*
X135695238Y-131335771D01*
X135695238Y-131335771D02*
X135504762Y-131335771D01*
X135504762Y-131335771D02*
X135409524Y-131383390D01*
X135409524Y-131383390D02*
X135361905Y-131431009D01*
X135361905Y-131431009D02*
X135314286Y-131526247D01*
X150233333Y-120759580D02*
X150185714Y-120807200D01*
X150185714Y-120807200D02*
X150042857Y-120854819D01*
X150042857Y-120854819D02*
X149947619Y-120854819D01*
X149947619Y-120854819D02*
X149804762Y-120807200D01*
X149804762Y-120807200D02*
X149709524Y-120711961D01*
X149709524Y-120711961D02*
X149661905Y-120616723D01*
X149661905Y-120616723D02*
X149614286Y-120426247D01*
X149614286Y-120426247D02*
X149614286Y-120283390D01*
X149614286Y-120283390D02*
X149661905Y-120092914D01*
X149661905Y-120092914D02*
X149709524Y-119997676D01*
X149709524Y-119997676D02*
X149804762Y-119902438D01*
X149804762Y-119902438D02*
X149947619Y-119854819D01*
X149947619Y-119854819D02*
X150042857Y-119854819D01*
X150042857Y-119854819D02*
X150185714Y-119902438D01*
X150185714Y-119902438D02*
X150233333Y-119950057D01*
X150566667Y-119854819D02*
X151233333Y-119854819D01*
X151233333Y-119854819D02*
X150804762Y-120854819D01*
X172066666Y-86654819D02*
X172066666Y-87369104D01*
X172066666Y-87369104D02*
X172019047Y-87511961D01*
X172019047Y-87511961D02*
X171923809Y-87607200D01*
X171923809Y-87607200D02*
X171780952Y-87654819D01*
X171780952Y-87654819D02*
X171685714Y-87654819D01*
X173066666Y-87654819D02*
X172495238Y-87654819D01*
X172780952Y-87654819D02*
X172780952Y-86654819D01*
X172780952Y-86654819D02*
X172685714Y-86797676D01*
X172685714Y-86797676D02*
X172590476Y-86892914D01*
X172590476Y-86892914D02*
X172495238Y-86940533D01*
X143361905Y-130754819D02*
X143361905Y-129754819D01*
X143361905Y-129754819D02*
X143600000Y-129754819D01*
X143600000Y-129754819D02*
X143742857Y-129802438D01*
X143742857Y-129802438D02*
X143838095Y-129897676D01*
X143838095Y-129897676D02*
X143885714Y-129992914D01*
X143885714Y-129992914D02*
X143933333Y-130183390D01*
X143933333Y-130183390D02*
X143933333Y-130326247D01*
X143933333Y-130326247D02*
X143885714Y-130516723D01*
X143885714Y-130516723D02*
X143838095Y-130611961D01*
X143838095Y-130611961D02*
X143742857Y-130707200D01*
X143742857Y-130707200D02*
X143600000Y-130754819D01*
X143600000Y-130754819D02*
X143361905Y-130754819D01*
X144838095Y-129754819D02*
X144361905Y-129754819D01*
X144361905Y-129754819D02*
X144314286Y-130231009D01*
X144314286Y-130231009D02*
X144361905Y-130183390D01*
X144361905Y-130183390D02*
X144457143Y-130135771D01*
X144457143Y-130135771D02*
X144695238Y-130135771D01*
X144695238Y-130135771D02*
X144790476Y-130183390D01*
X144790476Y-130183390D02*
X144838095Y-130231009D01*
X144838095Y-130231009D02*
X144885714Y-130326247D01*
X144885714Y-130326247D02*
X144885714Y-130564342D01*
X144885714Y-130564342D02*
X144838095Y-130659580D01*
X144838095Y-130659580D02*
X144790476Y-130707200D01*
X144790476Y-130707200D02*
X144695238Y-130754819D01*
X144695238Y-130754819D02*
X144457143Y-130754819D01*
X144457143Y-130754819D02*
X144361905Y-130707200D01*
X144361905Y-130707200D02*
X144314286Y-130659580D01*
X136135714Y-125454819D02*
X135564286Y-125454819D01*
X135850000Y-125454819D02*
X135850000Y-124454819D01*
X135850000Y-124454819D02*
X135754762Y-124597676D01*
X135754762Y-124597676D02*
X135659524Y-124692914D01*
X135659524Y-124692914D02*
X135564286Y-124740533D01*
X112133333Y-89759580D02*
X112085714Y-89807200D01*
X112085714Y-89807200D02*
X111942857Y-89854819D01*
X111942857Y-89854819D02*
X111847619Y-89854819D01*
X111847619Y-89854819D02*
X111704762Y-89807200D01*
X111704762Y-89807200D02*
X111609524Y-89711961D01*
X111609524Y-89711961D02*
X111561905Y-89616723D01*
X111561905Y-89616723D02*
X111514286Y-89426247D01*
X111514286Y-89426247D02*
X111514286Y-89283390D01*
X111514286Y-89283390D02*
X111561905Y-89092914D01*
X111561905Y-89092914D02*
X111609524Y-88997676D01*
X111609524Y-88997676D02*
X111704762Y-88902438D01*
X111704762Y-88902438D02*
X111847619Y-88854819D01*
X111847619Y-88854819D02*
X111942857Y-88854819D01*
X111942857Y-88854819D02*
X112085714Y-88902438D01*
X112085714Y-88902438D02*
X112133333Y-88950057D01*
X112514286Y-88950057D02*
X112561905Y-88902438D01*
X112561905Y-88902438D02*
X112657143Y-88854819D01*
X112657143Y-88854819D02*
X112895238Y-88854819D01*
X112895238Y-88854819D02*
X112990476Y-88902438D01*
X112990476Y-88902438D02*
X113038095Y-88950057D01*
X113038095Y-88950057D02*
X113085714Y-89045295D01*
X113085714Y-89045295D02*
X113085714Y-89140533D01*
X113085714Y-89140533D02*
X113038095Y-89283390D01*
X113038095Y-89283390D02*
X112466667Y-89854819D01*
X112466667Y-89854819D02*
X113085714Y-89854819D01*
X127561905Y-130754819D02*
X127561905Y-129754819D01*
X127561905Y-129754819D02*
X127800000Y-129754819D01*
X127800000Y-129754819D02*
X127942857Y-129802438D01*
X127942857Y-129802438D02*
X128038095Y-129897676D01*
X128038095Y-129897676D02*
X128085714Y-129992914D01*
X128085714Y-129992914D02*
X128133333Y-130183390D01*
X128133333Y-130183390D02*
X128133333Y-130326247D01*
X128133333Y-130326247D02*
X128085714Y-130516723D01*
X128085714Y-130516723D02*
X128038095Y-130611961D01*
X128038095Y-130611961D02*
X127942857Y-130707200D01*
X127942857Y-130707200D02*
X127800000Y-130754819D01*
X127800000Y-130754819D02*
X127561905Y-130754819D01*
X128466667Y-129754819D02*
X129085714Y-129754819D01*
X129085714Y-129754819D02*
X128752381Y-130135771D01*
X128752381Y-130135771D02*
X128895238Y-130135771D01*
X128895238Y-130135771D02*
X128990476Y-130183390D01*
X128990476Y-130183390D02*
X129038095Y-130231009D01*
X129038095Y-130231009D02*
X129085714Y-130326247D01*
X129085714Y-130326247D02*
X129085714Y-130564342D01*
X129085714Y-130564342D02*
X129038095Y-130659580D01*
X129038095Y-130659580D02*
X128990476Y-130707200D01*
X128990476Y-130707200D02*
X128895238Y-130754819D01*
X128895238Y-130754819D02*
X128609524Y-130754819D01*
X128609524Y-130754819D02*
X128514286Y-130707200D01*
X128514286Y-130707200D02*
X128466667Y-130659580D01*
X127135714Y-125454819D02*
X126564286Y-125454819D01*
X126850000Y-125454819D02*
X126850000Y-124454819D01*
X126850000Y-124454819D02*
X126754762Y-124597676D01*
X126754762Y-124597676D02*
X126659524Y-124692914D01*
X126659524Y-124692914D02*
X126564286Y-124740533D01*
X161561905Y-99654819D02*
X161561905Y-98654819D01*
X161561905Y-98654819D02*
X161800000Y-98654819D01*
X161800000Y-98654819D02*
X161942857Y-98702438D01*
X161942857Y-98702438D02*
X162038095Y-98797676D01*
X162038095Y-98797676D02*
X162085714Y-98892914D01*
X162085714Y-98892914D02*
X162133333Y-99083390D01*
X162133333Y-99083390D02*
X162133333Y-99226247D01*
X162133333Y-99226247D02*
X162085714Y-99416723D01*
X162085714Y-99416723D02*
X162038095Y-99511961D01*
X162038095Y-99511961D02*
X161942857Y-99607200D01*
X161942857Y-99607200D02*
X161800000Y-99654819D01*
X161800000Y-99654819D02*
X161561905Y-99654819D01*
X163085714Y-99654819D02*
X162514286Y-99654819D01*
X162800000Y-99654819D02*
X162800000Y-98654819D01*
X162800000Y-98654819D02*
X162704762Y-98797676D01*
X162704762Y-98797676D02*
X162609524Y-98892914D01*
X162609524Y-98892914D02*
X162514286Y-98940533D01*
X134361905Y-137954819D02*
X134361905Y-136954819D01*
X134361905Y-136954819D02*
X134600000Y-136954819D01*
X134600000Y-136954819D02*
X134742857Y-137002438D01*
X134742857Y-137002438D02*
X134838095Y-137097676D01*
X134838095Y-137097676D02*
X134885714Y-137192914D01*
X134885714Y-137192914D02*
X134933333Y-137383390D01*
X134933333Y-137383390D02*
X134933333Y-137526247D01*
X134933333Y-137526247D02*
X134885714Y-137716723D01*
X134885714Y-137716723D02*
X134838095Y-137811961D01*
X134838095Y-137811961D02*
X134742857Y-137907200D01*
X134742857Y-137907200D02*
X134600000Y-137954819D01*
X134600000Y-137954819D02*
X134361905Y-137954819D01*
X135790476Y-136954819D02*
X135600000Y-136954819D01*
X135600000Y-136954819D02*
X135504762Y-137002438D01*
X135504762Y-137002438D02*
X135457143Y-137050057D01*
X135457143Y-137050057D02*
X135361905Y-137192914D01*
X135361905Y-137192914D02*
X135314286Y-137383390D01*
X135314286Y-137383390D02*
X135314286Y-137764342D01*
X135314286Y-137764342D02*
X135361905Y-137859580D01*
X135361905Y-137859580D02*
X135409524Y-137907200D01*
X135409524Y-137907200D02*
X135504762Y-137954819D01*
X135504762Y-137954819D02*
X135695238Y-137954819D01*
X135695238Y-137954819D02*
X135790476Y-137907200D01*
X135790476Y-137907200D02*
X135838095Y-137859580D01*
X135838095Y-137859580D02*
X135885714Y-137764342D01*
X135885714Y-137764342D02*
X135885714Y-137526247D01*
X135885714Y-137526247D02*
X135838095Y-137431009D01*
X135838095Y-137431009D02*
X135790476Y-137383390D01*
X135790476Y-137383390D02*
X135695238Y-137335771D01*
X135695238Y-137335771D02*
X135504762Y-137335771D01*
X135504762Y-137335771D02*
X135409524Y-137383390D01*
X135409524Y-137383390D02*
X135361905Y-137431009D01*
X135361905Y-137431009D02*
X135314286Y-137526247D01*
X143833333Y-122159580D02*
X143785714Y-122207200D01*
X143785714Y-122207200D02*
X143642857Y-122254819D01*
X143642857Y-122254819D02*
X143547619Y-122254819D01*
X143547619Y-122254819D02*
X143404762Y-122207200D01*
X143404762Y-122207200D02*
X143309524Y-122111961D01*
X143309524Y-122111961D02*
X143261905Y-122016723D01*
X143261905Y-122016723D02*
X143214286Y-121826247D01*
X143214286Y-121826247D02*
X143214286Y-121683390D01*
X143214286Y-121683390D02*
X143261905Y-121492914D01*
X143261905Y-121492914D02*
X143309524Y-121397676D01*
X143309524Y-121397676D02*
X143404762Y-121302438D01*
X143404762Y-121302438D02*
X143547619Y-121254819D01*
X143547619Y-121254819D02*
X143642857Y-121254819D01*
X143642857Y-121254819D02*
X143785714Y-121302438D01*
X143785714Y-121302438D02*
X143833333Y-121350057D01*
X144738095Y-121254819D02*
X144261905Y-121254819D01*
X144261905Y-121254819D02*
X144214286Y-121731009D01*
X144214286Y-121731009D02*
X144261905Y-121683390D01*
X144261905Y-121683390D02*
X144357143Y-121635771D01*
X144357143Y-121635771D02*
X144595238Y-121635771D01*
X144595238Y-121635771D02*
X144690476Y-121683390D01*
X144690476Y-121683390D02*
X144738095Y-121731009D01*
X144738095Y-121731009D02*
X144785714Y-121826247D01*
X144785714Y-121826247D02*
X144785714Y-122064342D01*
X144785714Y-122064342D02*
X144738095Y-122159580D01*
X144738095Y-122159580D02*
X144690476Y-122207200D01*
X144690476Y-122207200D02*
X144595238Y-122254819D01*
X144595238Y-122254819D02*
X144357143Y-122254819D01*
X144357143Y-122254819D02*
X144261905Y-122207200D01*
X144261905Y-122207200D02*
X144214286Y-122159580D01*
X128433333Y-121059580D02*
X128385714Y-121107200D01*
X128385714Y-121107200D02*
X128242857Y-121154819D01*
X128242857Y-121154819D02*
X128147619Y-121154819D01*
X128147619Y-121154819D02*
X128004762Y-121107200D01*
X128004762Y-121107200D02*
X127909524Y-121011961D01*
X127909524Y-121011961D02*
X127861905Y-120916723D01*
X127861905Y-120916723D02*
X127814286Y-120726247D01*
X127814286Y-120726247D02*
X127814286Y-120583390D01*
X127814286Y-120583390D02*
X127861905Y-120392914D01*
X127861905Y-120392914D02*
X127909524Y-120297676D01*
X127909524Y-120297676D02*
X128004762Y-120202438D01*
X128004762Y-120202438D02*
X128147619Y-120154819D01*
X128147619Y-120154819D02*
X128242857Y-120154819D01*
X128242857Y-120154819D02*
X128385714Y-120202438D01*
X128385714Y-120202438D02*
X128433333Y-120250057D01*
X128766667Y-120154819D02*
X129385714Y-120154819D01*
X129385714Y-120154819D02*
X129052381Y-120535771D01*
X129052381Y-120535771D02*
X129195238Y-120535771D01*
X129195238Y-120535771D02*
X129290476Y-120583390D01*
X129290476Y-120583390D02*
X129338095Y-120631009D01*
X129338095Y-120631009D02*
X129385714Y-120726247D01*
X129385714Y-120726247D02*
X129385714Y-120964342D01*
X129385714Y-120964342D02*
X129338095Y-121059580D01*
X129338095Y-121059580D02*
X129290476Y-121107200D01*
X129290476Y-121107200D02*
X129195238Y-121154819D01*
X129195238Y-121154819D02*
X128909524Y-121154819D01*
X128909524Y-121154819D02*
X128814286Y-121107200D01*
X128814286Y-121107200D02*
X128766667Y-121059580D01*
X144261905Y-116454819D02*
X144261905Y-115454819D01*
X144261905Y-115454819D02*
X144500000Y-115454819D01*
X144500000Y-115454819D02*
X144642857Y-115502438D01*
X144642857Y-115502438D02*
X144738095Y-115597676D01*
X144738095Y-115597676D02*
X144785714Y-115692914D01*
X144785714Y-115692914D02*
X144833333Y-115883390D01*
X144833333Y-115883390D02*
X144833333Y-116026247D01*
X144833333Y-116026247D02*
X144785714Y-116216723D01*
X144785714Y-116216723D02*
X144738095Y-116311961D01*
X144738095Y-116311961D02*
X144642857Y-116407200D01*
X144642857Y-116407200D02*
X144500000Y-116454819D01*
X144500000Y-116454819D02*
X144261905Y-116454819D01*
X145690476Y-115788152D02*
X145690476Y-116454819D01*
X145452381Y-115407200D02*
X145214286Y-116121485D01*
X145214286Y-116121485D02*
X145833333Y-116121485D01*
X136135714Y-116454819D02*
X135564286Y-116454819D01*
X135850000Y-116454819D02*
X135850000Y-115454819D01*
X135850000Y-115454819D02*
X135754762Y-115597676D01*
X135754762Y-115597676D02*
X135659524Y-115692914D01*
X135659524Y-115692914D02*
X135564286Y-115740533D01*
X150961905Y-130754819D02*
X150961905Y-129754819D01*
X150961905Y-129754819D02*
X151200000Y-129754819D01*
X151200000Y-129754819D02*
X151342857Y-129802438D01*
X151342857Y-129802438D02*
X151438095Y-129897676D01*
X151438095Y-129897676D02*
X151485714Y-129992914D01*
X151485714Y-129992914D02*
X151533333Y-130183390D01*
X151533333Y-130183390D02*
X151533333Y-130326247D01*
X151533333Y-130326247D02*
X151485714Y-130516723D01*
X151485714Y-130516723D02*
X151438095Y-130611961D01*
X151438095Y-130611961D02*
X151342857Y-130707200D01*
X151342857Y-130707200D02*
X151200000Y-130754819D01*
X151200000Y-130754819D02*
X150961905Y-130754819D01*
X151866667Y-129754819D02*
X152533333Y-129754819D01*
X152533333Y-129754819D02*
X152104762Y-130754819D01*
X145135714Y-125454819D02*
X144564286Y-125454819D01*
X144850000Y-125454819D02*
X144850000Y-124454819D01*
X144850000Y-124454819D02*
X144754762Y-124597676D01*
X144754762Y-124597676D02*
X144659524Y-124692914D01*
X144659524Y-124692914D02*
X144564286Y-124740533D01*
X175157142Y-99859580D02*
X175109523Y-99907200D01*
X175109523Y-99907200D02*
X174966666Y-99954819D01*
X174966666Y-99954819D02*
X174871428Y-99954819D01*
X174871428Y-99954819D02*
X174728571Y-99907200D01*
X174728571Y-99907200D02*
X174633333Y-99811961D01*
X174633333Y-99811961D02*
X174585714Y-99716723D01*
X174585714Y-99716723D02*
X174538095Y-99526247D01*
X174538095Y-99526247D02*
X174538095Y-99383390D01*
X174538095Y-99383390D02*
X174585714Y-99192914D01*
X174585714Y-99192914D02*
X174633333Y-99097676D01*
X174633333Y-99097676D02*
X174728571Y-99002438D01*
X174728571Y-99002438D02*
X174871428Y-98954819D01*
X174871428Y-98954819D02*
X174966666Y-98954819D01*
X174966666Y-98954819D02*
X175109523Y-99002438D01*
X175109523Y-99002438D02*
X175157142Y-99050057D01*
X175538095Y-99050057D02*
X175585714Y-99002438D01*
X175585714Y-99002438D02*
X175680952Y-98954819D01*
X175680952Y-98954819D02*
X175919047Y-98954819D01*
X175919047Y-98954819D02*
X176014285Y-99002438D01*
X176014285Y-99002438D02*
X176061904Y-99050057D01*
X176061904Y-99050057D02*
X176109523Y-99145295D01*
X176109523Y-99145295D02*
X176109523Y-99240533D01*
X176109523Y-99240533D02*
X176061904Y-99383390D01*
X176061904Y-99383390D02*
X175490476Y-99954819D01*
X175490476Y-99954819D02*
X176109523Y-99954819D01*
X176728571Y-98954819D02*
X176823809Y-98954819D01*
X176823809Y-98954819D02*
X176919047Y-99002438D01*
X176919047Y-99002438D02*
X176966666Y-99050057D01*
X176966666Y-99050057D02*
X177014285Y-99145295D01*
X177014285Y-99145295D02*
X177061904Y-99335771D01*
X177061904Y-99335771D02*
X177061904Y-99573866D01*
X177061904Y-99573866D02*
X177014285Y-99764342D01*
X177014285Y-99764342D02*
X176966666Y-99859580D01*
X176966666Y-99859580D02*
X176919047Y-99907200D01*
X176919047Y-99907200D02*
X176823809Y-99954819D01*
X176823809Y-99954819D02*
X176728571Y-99954819D01*
X176728571Y-99954819D02*
X176633333Y-99907200D01*
X176633333Y-99907200D02*
X176585714Y-99859580D01*
X176585714Y-99859580D02*
X176538095Y-99764342D01*
X176538095Y-99764342D02*
X176490476Y-99573866D01*
X176490476Y-99573866D02*
X176490476Y-99335771D01*
X176490476Y-99335771D02*
X176538095Y-99145295D01*
X176538095Y-99145295D02*
X176585714Y-99050057D01*
X176585714Y-99050057D02*
X176633333Y-99002438D01*
X176633333Y-99002438D02*
X176728571Y-98954819D01*
X164533333Y-89359580D02*
X164485714Y-89407200D01*
X164485714Y-89407200D02*
X164342857Y-89454819D01*
X164342857Y-89454819D02*
X164247619Y-89454819D01*
X164247619Y-89454819D02*
X164104762Y-89407200D01*
X164104762Y-89407200D02*
X164009524Y-89311961D01*
X164009524Y-89311961D02*
X163961905Y-89216723D01*
X163961905Y-89216723D02*
X163914286Y-89026247D01*
X163914286Y-89026247D02*
X163914286Y-88883390D01*
X163914286Y-88883390D02*
X163961905Y-88692914D01*
X163961905Y-88692914D02*
X164009524Y-88597676D01*
X164009524Y-88597676D02*
X164104762Y-88502438D01*
X164104762Y-88502438D02*
X164247619Y-88454819D01*
X164247619Y-88454819D02*
X164342857Y-88454819D01*
X164342857Y-88454819D02*
X164485714Y-88502438D01*
X164485714Y-88502438D02*
X164533333Y-88550057D01*
X165485714Y-89454819D02*
X164914286Y-89454819D01*
X165200000Y-89454819D02*
X165200000Y-88454819D01*
X165200000Y-88454819D02*
X165104762Y-88597676D01*
X165104762Y-88597676D02*
X165009524Y-88692914D01*
X165009524Y-88692914D02*
X164914286Y-88740533D01*
D11*
%TO.C,C4*%
X138276248Y-112665000D02*
X138798752Y-112665000D01*
X138276248Y-114135000D02*
X138798752Y-114135000D01*
%TO.C,R1*%
X170787742Y-93377500D02*
X171262258Y-93377500D01*
X170787742Y-94422500D02*
X171262258Y-94422500D01*
%TO.C,U1*%
X176237500Y-96410000D02*
X178037500Y-96410000D01*
X176237500Y-96410000D02*
X175437500Y-96410000D01*
X176237500Y-93290000D02*
X177037500Y-93290000D01*
X176237500Y-93290000D02*
X175437500Y-93290000D01*
%TO.C,C6*%
X138301248Y-130765000D02*
X138823752Y-130765000D01*
X138301248Y-132235000D02*
X138823752Y-132235000D01*
%TO.C,C7*%
X147301248Y-121765000D02*
X147823752Y-121765000D01*
X147301248Y-123235000D02*
X147823752Y-123235000D01*
%TO.C,D2*%
X111350000Y-92750000D02*
X118650000Y-92750000D01*
X111350000Y-98250000D02*
X118650000Y-98250000D01*
X118650000Y-98250000D02*
X118650000Y-97100000D01*
%TO.C,D5*%
X136350000Y-123850000D02*
X143650000Y-123850000D01*
X136350000Y-129350000D02*
X143650000Y-129350000D01*
X143650000Y-129350000D02*
X143650000Y-128200000D01*
%TO.C,C2*%
X113401248Y-90765000D02*
X113923752Y-90765000D01*
X113401248Y-92235000D02*
X113923752Y-92235000D01*
%TO.C,D3*%
X127350000Y-123850000D02*
X134650000Y-123850000D01*
X127350000Y-129350000D02*
X134650000Y-129350000D01*
X134650000Y-129350000D02*
X134650000Y-128200000D01*
%TO.C,D1*%
X161350000Y-92750000D02*
X168650000Y-92750000D01*
X161350000Y-98250000D02*
X168650000Y-98250000D01*
X168650000Y-98250000D02*
X168650000Y-97100000D01*
%TO.C,D6*%
X136350000Y-132850000D02*
X143650000Y-132850000D01*
X136350000Y-138350000D02*
X143650000Y-138350000D01*
X143650000Y-138350000D02*
X143650000Y-137200000D01*
%TO.C,C5*%
X138501248Y-121965000D02*
X139023752Y-121965000D01*
X138501248Y-123435000D02*
X139023752Y-123435000D01*
%TO.C,C3*%
X129401248Y-121965000D02*
X129923752Y-121965000D01*
X129401248Y-123435000D02*
X129923752Y-123435000D01*
%TO.C,D4*%
X136350000Y-114850000D02*
X143650000Y-114850000D01*
X136350000Y-120350000D02*
X143650000Y-120350000D01*
X143650000Y-120350000D02*
X143650000Y-119200000D01*
%TO.C,D7*%
X145350000Y-123850000D02*
X152650000Y-123850000D01*
X145350000Y-129350000D02*
X152650000Y-129350000D01*
X152650000Y-129350000D02*
X152650000Y-128200000D01*
%TO.C,C20*%
X175734420Y-97090000D02*
X176015580Y-97090000D01*
X175734420Y-98110000D02*
X176015580Y-98110000D01*
%TO.C,C1*%
X163338748Y-90465000D02*
X163861252Y-90465000D01*
X163338748Y-91935000D02*
X163861252Y-91935000D01*
%TD*%
M02*
