G04 #@! TF.GenerationSoftware,KiCad,Pcbnew,7.0.8*
G04 #@! TF.CreationDate,2023-10-23T18:30:09+02:00*
G04 #@! TF.ProjectId,LED_Eyes2,4c45445f-4579-4657-9332-2e6b69636164,rev?*
G04 #@! TF.SameCoordinates,Original*
G04 #@! TF.FileFunction,Profile,NP*
%FSLAX46Y46*%
G04 Gerber Fmt 4.6, Leading zero omitted, Abs format (unit mm)*
G04 Created by KiCad (PCBNEW 7.0.8) date 2023-10-23 18:30:09*
%MOMM*%
%LPD*%
G01*
G04 APERTURE LIST*
G04 #@! TA.AperFunction,Profile*
%ADD10C,0.100000*%
G04 #@! TD*
G04 APERTURE END LIST*
D10*
X128893200Y-134621700D02*
X129075200Y-134572900D01*
X148849390Y-116333610D02*
X148859260Y-116145450D01*
X141505620Y-89375600D02*
X141608240Y-89533600D01*
X189649400Y-88374800D02*
X189817300Y-88289200D01*
X188175100Y-112694270D02*
X187993200Y-112645510D01*
X127737500Y-136889800D02*
X127688700Y-136707800D01*
X149842490Y-71607900D02*
X149498740Y-71700000D01*
X138991400Y-88977400D02*
X139149406Y-88874800D01*
X146282980Y-83484300D02*
X146155450Y-83816500D01*
X149310050Y-107307900D02*
X149261300Y-107489800D01*
X141608240Y-96533600D02*
X141693780Y-96701500D01*
X152410100Y-135959400D02*
X152439500Y-136145400D01*
X193930800Y-89578200D02*
X193875100Y-89226700D01*
X127688700Y-115959370D02*
X127737500Y-115777380D01*
X132076100Y-72658600D02*
X131824450Y-72406900D01*
X188759300Y-89745500D02*
X188788700Y-89559400D01*
X138844980Y-96096000D02*
X138991400Y-95977400D01*
X157804800Y-111352240D02*
X160049400Y-111576700D01*
X152924400Y-138960300D02*
X153176100Y-138708600D01*
X145047860Y-85184300D02*
X144749400Y-85378100D01*
X90817300Y-109289200D02*
X90993200Y-109221700D01*
X152439500Y-116145450D02*
X152449400Y-116333610D01*
X149211740Y-73729200D02*
X149344960Y-73596000D01*
X134108250Y-106033600D02*
X134193790Y-106201500D01*
X141107400Y-91889800D02*
X140949394Y-91992500D01*
X130256310Y-71607900D02*
X129904800Y-71552200D01*
X148905010Y-74201500D02*
X148990550Y-74033600D01*
X128549400Y-117892450D02*
X128391400Y-117789830D01*
X149444950Y-114995950D02*
X149591380Y-114877370D01*
X150649400Y-138133600D02*
X150461200Y-138123700D01*
X141810050Y-90059400D02*
X141839530Y-90245500D01*
X131239540Y-136521800D02*
X131210080Y-136707800D01*
X192310100Y-89559400D02*
X192339500Y-89745500D01*
X128093200Y-73875600D02*
X128211800Y-73729200D01*
X154922700Y-112458560D02*
X155174400Y-112206920D01*
X92449400Y-112492450D02*
X92281500Y-112577990D01*
X91923700Y-109172900D02*
X92105600Y-109221700D01*
X89737600Y-91723700D02*
X89549400Y-91733600D01*
X132175160Y-108694300D02*
X131993170Y-108645500D01*
X128391400Y-117789830D02*
X128245000Y-117671270D01*
X138259270Y-90621800D02*
X138249410Y-90433600D01*
X130507420Y-114877370D02*
X130653850Y-114995950D01*
X149093160Y-73875600D02*
X149211740Y-73729200D01*
X149339530Y-106745500D02*
X149349390Y-106933600D01*
X191300100Y-112932070D02*
X191493900Y-112633610D01*
X91361300Y-112723750D02*
X91175200Y-112694270D01*
X192547900Y-87182900D02*
X192249400Y-86989100D01*
X131210080Y-136707800D02*
X131161310Y-136889800D01*
X149005010Y-135601500D02*
X149090550Y-135433600D01*
X129637600Y-114543460D02*
X129823600Y-114572940D01*
X150549400Y-76733600D02*
X150361200Y-76723700D01*
X190193800Y-110201500D02*
X190261300Y-110377400D01*
X86168000Y-90289000D02*
X88168000Y-111289010D01*
X126922700Y-138708600D02*
X127174400Y-138960300D01*
X92753800Y-109596000D02*
X92887100Y-109729200D01*
X193076100Y-87658600D02*
X192824400Y-87406900D01*
X127737500Y-116889840D02*
X127688700Y-116707850D01*
X138337500Y-89877400D02*
X138405020Y-89701500D01*
X141839530Y-97621800D02*
X141810050Y-97807900D01*
X129175200Y-73172900D02*
X129361300Y-73143500D01*
X134339550Y-107121800D02*
X134310070Y-107307900D01*
X130181540Y-137978000D02*
X130005600Y-138045500D01*
X89788700Y-111307850D02*
X89759300Y-111121760D01*
X138490560Y-98333600D02*
X138405020Y-98165700D01*
X148759250Y-75121800D02*
X148749400Y-74933600D01*
X91549400Y-114333610D02*
X91904800Y-114314980D01*
X146817270Y-108578000D02*
X146649390Y-108492500D01*
X86315800Y-88883000D02*
X86223700Y-89226700D01*
X151753800Y-73596000D02*
X151887000Y-73729200D01*
X86149400Y-89933600D02*
X86168000Y-90289000D01*
X139149406Y-91992500D02*
X138991400Y-91889800D01*
X190261300Y-111489840D02*
X190193800Y-111665730D01*
X152449400Y-136333600D02*
X152439500Y-136521800D01*
X90211800Y-112138040D02*
X90093200Y-111991610D01*
X127749400Y-74933600D02*
X127759300Y-74745500D01*
X149005010Y-115601480D02*
X149090550Y-115433600D01*
X187093200Y-109875600D02*
X187211700Y-109729200D01*
X189105600Y-109221700D02*
X189281500Y-109289200D01*
X127174400Y-138960300D02*
X127451000Y-139184300D01*
X150649400Y-114533610D02*
X150837500Y-114543460D01*
X146344960Y-108271300D02*
X146211740Y-108138000D01*
X191930800Y-111289010D02*
X193930800Y-90289000D01*
X129923700Y-76694300D02*
X129737600Y-76723700D01*
X89990600Y-111833610D02*
X89905000Y-111665730D01*
X127649400Y-136333600D02*
X127659300Y-136145400D01*
X146993160Y-108645500D02*
X146817270Y-108578000D01*
X149349390Y-106933600D02*
X149339530Y-107121800D01*
X139675163Y-92194300D02*
X139493171Y-92145500D01*
X132783000Y-73883000D02*
X132655460Y-73550700D01*
X88491400Y-88477400D02*
X88649400Y-88374800D01*
X131993170Y-105221700D02*
X132175160Y-105172900D01*
X151700000Y-139667200D02*
X152032300Y-139539600D01*
X190549400Y-88133600D02*
X190737500Y-88143500D01*
X87849400Y-86989100D02*
X87550900Y-87182900D01*
X88798700Y-112932070D02*
X89022700Y-113208650D01*
X129737600Y-73143500D02*
X129923700Y-73172900D01*
X188990500Y-90833600D02*
X188905000Y-90665700D01*
X138288750Y-90807900D02*
X138259270Y-90621800D01*
X134261310Y-107489800D02*
X134193790Y-107665700D01*
X189449400Y-112492450D02*
X189281500Y-112577990D01*
X138844980Y-89096000D02*
X138991400Y-88977400D01*
X151256300Y-71607900D02*
X150904800Y-71552200D01*
X131161310Y-135777400D02*
X131210080Y-135959400D01*
X91361300Y-109143500D02*
X91549400Y-109133600D01*
X149261300Y-107489800D02*
X149193780Y-107665700D01*
X91349400Y-89933600D02*
X91339500Y-90121800D01*
X90345000Y-109596000D02*
X90491400Y-109477400D01*
X193875100Y-89226700D02*
X193783000Y-88883000D01*
X151707400Y-117789830D02*
X151549400Y-117892450D01*
X186990500Y-110033600D02*
X187093200Y-109875600D01*
X189491400Y-91389800D02*
X189345000Y-91271300D01*
X125593900Y-113033610D02*
X125755500Y-113350700D01*
X127659300Y-116521770D02*
X127649400Y-116333610D01*
X122649400Y-111333610D02*
X123004800Y-111352240D01*
X152310100Y-74559400D02*
X152339500Y-74745500D01*
X140949394Y-98992500D02*
X140781517Y-99078000D01*
X149491390Y-73477400D02*
X149649390Y-73374800D01*
X150461200Y-138123700D02*
X150275200Y-138094300D01*
X130005600Y-138045500D02*
X129823600Y-138094300D01*
X133449410Y-108492500D02*
X133281530Y-108578000D01*
X151023600Y-114572940D02*
X151205600Y-114621710D01*
X128549400Y-134774700D02*
X128717300Y-134689200D01*
X189600000Y-114167200D02*
X189932300Y-114039660D01*
X149917260Y-114689230D02*
X150093200Y-114621710D01*
X140423637Y-99194300D02*
X140237541Y-99223700D01*
X125883000Y-113682940D02*
X125975100Y-114026710D01*
X147798730Y-72935100D02*
X147604910Y-73233600D01*
X152293800Y-117065740D02*
X152208200Y-117233600D01*
X141761300Y-89877400D02*
X141810050Y-90059400D01*
X131261310Y-74377400D02*
X131310070Y-74559400D01*
X149491390Y-76389800D02*
X149344960Y-76271300D01*
X90753800Y-91271300D02*
X90607400Y-91389800D01*
X191887000Y-91138000D02*
X191753800Y-91271300D01*
X188749400Y-89933600D02*
X188759300Y-89745500D01*
X87990600Y-90833600D02*
X87905000Y-90665700D01*
X131108250Y-75833600D02*
X131005640Y-75991600D01*
X141810050Y-97807900D02*
X141761300Y-97989800D01*
X147737540Y-108723700D02*
X147549400Y-108733600D01*
X125975100Y-114026710D02*
X126030800Y-114378210D01*
X90753800Y-88596000D02*
X90887100Y-88729200D01*
X130105640Y-73221700D02*
X130281530Y-73289200D01*
X134193790Y-106201500D02*
X134261310Y-106377400D01*
X87274400Y-87406900D02*
X87022700Y-87658600D01*
X126049400Y-114733600D02*
X126049400Y-136433600D01*
X140605629Y-95721700D02*
X140781517Y-95789200D01*
X141839530Y-90245500D02*
X141849390Y-90433600D01*
X130181540Y-117977990D02*
X130005600Y-118045510D01*
X132493890Y-73233600D02*
X132300070Y-72935100D01*
X189105600Y-112645510D02*
X188923600Y-112694270D01*
X127993200Y-137391600D02*
X127890600Y-137233600D01*
X131547870Y-72182900D02*
X131249410Y-71989100D01*
X130507420Y-137789800D02*
X130349400Y-137892400D01*
X139861259Y-99223700D02*
X139675163Y-99194300D01*
X149591380Y-117789830D02*
X149444950Y-117671270D01*
X141849390Y-97433600D02*
X141839530Y-97621800D01*
X138337500Y-90989800D02*
X138288750Y-90807900D01*
X140423637Y-88672900D02*
X140605629Y-88721700D01*
X88211800Y-91138000D02*
X88093200Y-90991600D01*
X129823600Y-134572900D02*
X130005600Y-134621700D01*
X86168000Y-89578200D02*
X86149400Y-89933600D01*
X189607400Y-112389840D02*
X189449400Y-112492450D01*
X93108300Y-110033600D02*
X93193800Y-110201500D01*
X190339500Y-111121760D02*
X190310100Y-111307850D01*
X155174400Y-112206920D02*
X155450900Y-111982950D01*
X189211700Y-91138000D02*
X189093200Y-90991600D01*
X141608240Y-98333600D02*
X141505620Y-98491600D01*
X143049400Y-85833600D02*
X137049400Y-85833600D01*
X127749400Y-139378100D02*
X128066500Y-139539600D01*
X189491400Y-88477400D02*
X189649400Y-88374800D01*
X149498740Y-71700000D02*
X149166480Y-71827600D01*
X129075200Y-134572900D02*
X129261300Y-134543400D01*
X187993200Y-109221700D02*
X188175100Y-109172900D01*
X140237541Y-99223700D02*
X140049400Y-99233600D01*
X152105600Y-137391600D02*
X151987100Y-137538000D01*
X187093200Y-111991610D02*
X186990500Y-111833610D01*
X149993160Y-76645500D02*
X149817270Y-76578000D01*
X151449400Y-73374800D02*
X151607400Y-73477400D01*
X149817270Y-76578000D02*
X149649390Y-76492500D01*
X152261300Y-74377400D02*
X152310100Y-74559400D01*
X149344960Y-73596000D02*
X149491390Y-73477400D01*
X130759270Y-107121800D02*
X130749410Y-106933600D01*
X139493171Y-92145500D02*
X139317283Y-92078000D01*
X90491400Y-112389840D02*
X90345000Y-112271260D01*
X133887060Y-105729200D02*
X134005640Y-105875600D01*
X187817300Y-112577990D02*
X187649400Y-112492450D01*
X128245000Y-114995950D02*
X128391400Y-114877370D01*
X91175200Y-112694270D02*
X90993200Y-112645510D01*
X133449410Y-105374800D02*
X133607410Y-105477400D01*
X89549400Y-88133600D02*
X89737600Y-88143500D01*
X146817270Y-105289200D02*
X146993160Y-105221700D01*
X148937490Y-136889800D02*
X148888720Y-136707800D01*
X151987100Y-135129200D02*
X152105600Y-135275600D01*
X132875110Y-74226700D02*
X132783000Y-73883000D01*
X141810050Y-97059400D02*
X141839530Y-97245500D01*
X130990560Y-106033600D02*
X131093180Y-105875600D01*
X152310100Y-75307900D02*
X152261300Y-75489800D01*
X147361240Y-105143500D02*
X147549400Y-105133600D01*
X131817280Y-105289200D02*
X131993170Y-105221700D01*
X135050940Y-85184300D02*
X134774360Y-84960300D01*
X152005600Y-73875600D02*
X152108200Y-74033600D01*
X90993200Y-109221700D02*
X91175200Y-109172900D01*
X123700100Y-111500020D02*
X124032300Y-111627550D01*
X186759300Y-110745460D02*
X186788700Y-110559360D01*
X191607400Y-91389800D02*
X191449400Y-91492500D01*
X134310070Y-106559400D02*
X134339550Y-106745500D01*
X140605629Y-92145500D02*
X140423637Y-92194300D01*
X187345000Y-109596000D02*
X187491400Y-109477400D01*
X152361300Y-115777380D02*
X152410100Y-115959370D01*
X192108200Y-89033600D02*
X192193800Y-89201500D01*
X147175150Y-108694300D02*
X146993160Y-108645500D01*
X134104930Y-84133600D02*
X133943350Y-83816500D01*
X186749400Y-110933600D02*
X186759300Y-110745460D01*
X189887000Y-109729200D02*
X190005600Y-109875600D01*
X126068000Y-136789000D02*
X126123700Y-137140500D01*
X131817280Y-108578000D02*
X131649410Y-108492500D01*
X131310070Y-74559400D02*
X131339550Y-74745500D01*
X148281520Y-105289200D02*
X148449390Y-105374800D01*
X129637600Y-138123700D02*
X129449400Y-138133600D01*
X134005640Y-105875600D02*
X134108250Y-106033600D01*
X151381500Y-114689230D02*
X151549400Y-114774760D01*
X191875100Y-111640510D02*
X191930800Y-111289010D01*
X151607400Y-76389800D02*
X151449400Y-76492500D01*
X153593900Y-138133600D02*
X153755400Y-137816500D01*
X130990560Y-107833600D02*
X130905020Y-107665700D01*
X149311730Y-135129200D02*
X149444950Y-134995900D01*
X131005640Y-73875600D02*
X131108250Y-74033600D01*
X138593180Y-89375600D02*
X138711750Y-89229200D01*
X152293800Y-115601480D02*
X152361300Y-115777380D01*
X189449400Y-109374800D02*
X189607400Y-109477400D01*
X186759300Y-111121760D02*
X186749400Y-110933600D01*
X150093200Y-114621710D02*
X150275200Y-114572940D01*
X93005600Y-111991610D02*
X92887100Y-112138040D01*
X157449400Y-111333610D02*
X157804800Y-111352240D01*
X190310100Y-111307850D02*
X190261300Y-111489840D01*
X148281520Y-108578000D02*
X148105630Y-108645500D01*
X190261300Y-110377400D02*
X190310100Y-110559360D01*
X152208200Y-135433600D02*
X152293800Y-135601500D01*
X152361300Y-136889800D02*
X152293800Y-137065700D01*
X131005640Y-75991600D02*
X130887060Y-76138000D01*
X190005600Y-111991610D02*
X189887000Y-112138040D01*
X152193800Y-75665700D02*
X152108200Y-75833600D01*
X192108200Y-90833600D02*
X192005600Y-90991600D01*
X93310100Y-110559360D02*
X93339500Y-110745460D01*
X188788700Y-89559400D02*
X188837500Y-89377400D01*
X154030800Y-136789000D02*
X154049400Y-136433600D01*
X128345000Y-73596000D02*
X128491400Y-73477400D01*
X192339500Y-89745500D02*
X192349400Y-89933600D01*
X150361200Y-73143500D02*
X150549400Y-73133600D01*
X131824450Y-72406900D02*
X131547870Y-72182900D01*
X152339500Y-74745500D02*
X152349400Y-74933600D01*
X154343300Y-113350700D02*
X154504900Y-113033610D01*
X141761300Y-90989800D02*
X141693780Y-91165700D01*
X188990500Y-89033600D02*
X189093200Y-88875600D01*
X144432300Y-85539700D02*
X144100040Y-85667200D01*
X145990550Y-107833600D02*
X145905010Y-107665700D01*
X150837500Y-114543460D02*
X151023600Y-114572940D01*
X91194000Y-114314980D02*
X91549400Y-114333610D01*
X92281500Y-112577990D02*
X92105600Y-112645510D01*
X141693780Y-98165700D02*
X141608240Y-98333600D01*
X140949394Y-95874800D02*
X141107400Y-95977400D01*
X128211800Y-73729200D02*
X128345000Y-73596000D01*
X90449400Y-88374800D02*
X90607400Y-88477400D01*
X90993200Y-112645510D02*
X90817300Y-112577990D01*
X149591380Y-114877370D02*
X149749400Y-114774760D01*
X131261310Y-75489800D02*
X131193790Y-75665700D01*
X92105600Y-112645510D02*
X91923700Y-112694270D01*
X134298740Y-84432100D02*
X134104930Y-84133600D01*
X129261300Y-134543400D02*
X129449400Y-134533600D01*
X130653850Y-114995950D02*
X130787070Y-115129170D01*
X191281500Y-91578000D02*
X191105600Y-91645500D01*
X152005600Y-75991600D02*
X151887000Y-76138000D01*
X133887060Y-108138000D02*
X133753840Y-108271300D01*
X91339500Y-90121800D02*
X91310100Y-90307900D01*
X152105600Y-115275600D02*
X152208200Y-115433600D01*
X128717300Y-134689200D02*
X128893200Y-134621700D01*
X90607400Y-91389800D02*
X90449400Y-91492500D01*
X190310100Y-110559360D02*
X190339500Y-110745460D01*
X145837490Y-106377400D02*
X145905010Y-106201500D01*
X92887100Y-109729200D02*
X93005600Y-109875600D01*
X128491400Y-76389800D02*
X128345000Y-76271300D01*
X132737560Y-105143500D02*
X132923650Y-105172900D01*
X134522710Y-84708700D02*
X134298740Y-84432100D01*
X152349400Y-139378100D02*
X152647800Y-139184300D01*
X130449410Y-73374800D02*
X130607410Y-73477400D01*
X131008250Y-137233600D02*
X130905630Y-137391600D01*
X87788700Y-90307900D02*
X87759300Y-90121800D01*
X149917260Y-134689200D02*
X150093200Y-134621700D01*
X129449400Y-138133600D02*
X129261300Y-138123700D01*
X131249410Y-116333610D02*
X131239540Y-116521770D01*
X192349400Y-89933600D02*
X192339500Y-90121800D01*
X141693780Y-89701500D02*
X141761300Y-89877400D01*
X128391400Y-134877400D02*
X128549400Y-134774700D01*
X87788700Y-89559400D02*
X87837500Y-89377400D01*
X130607410Y-73477400D02*
X130753840Y-73596000D01*
X131108250Y-74033600D02*
X131193790Y-74201500D01*
X190193800Y-111665730D02*
X190108200Y-111833610D01*
X151381500Y-117977990D02*
X151205600Y-118045510D01*
X134310070Y-107307900D02*
X134261310Y-107489800D01*
X123356300Y-111407900D02*
X123700100Y-111500020D01*
X151205600Y-114621710D02*
X151381500Y-114689230D01*
X93261300Y-110377400D02*
X93310100Y-110559360D01*
X147443340Y-73550700D02*
X147315800Y-73883000D01*
X126123700Y-137140500D02*
X126215800Y-137484200D01*
X86798700Y-87935100D02*
X86604900Y-88233600D01*
X138259270Y-97245500D02*
X138288750Y-97059400D01*
X130837500Y-106377400D02*
X130905020Y-106201500D01*
X152439500Y-136521800D02*
X152410100Y-136707800D01*
X141693780Y-96701500D02*
X141761300Y-96877400D01*
X191783000Y-111984260D02*
X191875100Y-111640510D01*
X129361300Y-76723700D02*
X129175200Y-76694300D01*
X151853800Y-137671300D02*
X151707400Y-137789800D01*
X190737500Y-91723700D02*
X190549400Y-91733600D01*
X131239540Y-116521770D02*
X131210080Y-116707850D01*
X130181540Y-114689230D02*
X130349400Y-114774760D01*
X138844980Y-98771300D02*
X138711750Y-98638000D01*
X138711750Y-96229200D02*
X138844980Y-96096000D01*
X131093790Y-137065700D02*
X131008250Y-137233600D01*
X130787070Y-137538000D02*
X130653850Y-137671300D01*
X141608240Y-89533600D02*
X141693780Y-89701500D01*
X130607410Y-76389800D02*
X130449410Y-76492500D01*
X189093200Y-88875600D02*
X189211700Y-88729200D01*
X130653850Y-134995900D02*
X130787070Y-135129200D01*
X89759300Y-111121760D02*
X89749400Y-110933600D01*
X188549400Y-112733600D02*
X188361200Y-112723750D01*
X128549400Y-114774760D02*
X128717300Y-114689230D01*
X130787070Y-115129170D02*
X130905630Y-115275600D01*
X154698700Y-112735140D02*
X154922700Y-112458560D01*
X193655400Y-88550700D02*
X193493900Y-88233600D01*
X124647900Y-111982950D02*
X124924400Y-112206920D01*
X93310100Y-111307850D02*
X93261300Y-111489840D01*
X130749410Y-106933600D02*
X130759270Y-106745500D01*
X127890600Y-117233600D02*
X127805000Y-117065740D01*
X129823600Y-114572940D02*
X130005600Y-114621710D01*
X151549400Y-137892400D02*
X151381500Y-137978000D01*
X154123700Y-114026710D02*
X154215800Y-113682940D01*
X149193780Y-107665700D02*
X149108240Y-107833600D01*
X127837500Y-75489800D02*
X127788700Y-75307900D01*
X90166500Y-114039660D02*
X90498800Y-114167200D01*
X146211740Y-105729200D02*
X146344960Y-105596000D01*
X133753840Y-108271300D02*
X133607410Y-108389800D01*
X128893200Y-118045510D02*
X128717300Y-117977990D01*
X150549400Y-73133600D02*
X150737500Y-73143500D01*
X88345000Y-88596000D02*
X88491400Y-88477400D01*
X88093200Y-88875600D02*
X88211800Y-88729200D01*
X156742500Y-111407900D02*
X157094000Y-111352240D01*
X152410100Y-115959370D02*
X152439500Y-116145450D01*
X188923600Y-109172900D02*
X189105600Y-109221700D01*
X133105640Y-105221700D02*
X133281530Y-105289200D01*
X145749400Y-106933600D02*
X145759250Y-106745500D01*
X187993200Y-112645510D02*
X187817300Y-112577990D01*
X131093790Y-117065740D02*
X131008250Y-117233600D01*
X149591380Y-137789800D02*
X149444950Y-137671300D01*
X90345000Y-112271260D02*
X90211800Y-112138040D01*
X132655460Y-73550700D02*
X132493890Y-73233600D01*
X148859260Y-136145400D02*
X148888720Y-135959400D01*
X141253820Y-96096000D02*
X141387050Y-96229200D01*
X150649400Y-118133610D02*
X150461200Y-118123740D01*
X89022700Y-113208650D02*
X89274400Y-113460300D01*
X146344960Y-105596000D02*
X146491390Y-105477400D01*
X145990550Y-106033600D02*
X146093160Y-105875600D01*
X147737540Y-105143500D02*
X147923640Y-105172900D01*
X90281500Y-88289200D02*
X90449400Y-88374800D01*
X149090550Y-135433600D02*
X149193170Y-135275600D01*
X151753800Y-76271300D02*
X151607400Y-76389800D01*
X151987100Y-137538000D02*
X151853800Y-137671300D01*
X129449400Y-118133610D02*
X129261300Y-118123740D01*
X138288750Y-90059400D02*
X138337500Y-89877400D01*
X128245000Y-137671300D02*
X128111700Y-137538000D01*
X90498800Y-114167200D02*
X90842500Y-114259310D01*
X130653850Y-137671300D02*
X130507420Y-137789800D01*
X187649400Y-112492450D02*
X187491400Y-112389840D01*
X89361300Y-88143500D02*
X89549400Y-88133600D01*
X88166500Y-86827600D02*
X87849400Y-86989100D01*
X129075200Y-114572940D02*
X129261300Y-114543460D01*
X138490560Y-91333600D02*
X138405020Y-91165700D01*
X151023600Y-118094280D02*
X150837500Y-118123740D01*
X87550900Y-87182900D02*
X87274400Y-87406900D01*
X149193170Y-115275600D02*
X149311730Y-115129170D01*
X188194000Y-114314980D02*
X188549400Y-114333610D01*
X149193780Y-106201500D02*
X149261300Y-106377400D01*
X144749400Y-85378100D02*
X144432300Y-85539700D01*
X128817300Y-76578000D02*
X128649400Y-76492500D01*
X134774360Y-84960300D02*
X134522710Y-84708700D01*
X141387050Y-96229200D02*
X141505620Y-96375600D01*
X151281500Y-73289200D02*
X151449400Y-73374800D01*
X192193800Y-89201500D02*
X192261300Y-89377400D01*
X149193170Y-117391620D02*
X149090550Y-117233600D01*
X149339530Y-107121800D02*
X149310050Y-107307900D01*
X131993170Y-108645500D02*
X131817280Y-108578000D01*
X131161310Y-116889840D02*
X131093790Y-117065740D01*
X139317283Y-88789200D02*
X139493171Y-88721700D01*
X129549400Y-73133600D02*
X129737600Y-73143500D01*
X130932320Y-71827600D02*
X130600060Y-71700000D01*
X134005640Y-107991600D02*
X133887060Y-108138000D01*
X133281530Y-105289200D02*
X133449410Y-105374800D01*
X130653850Y-117671270D02*
X130507420Y-117789830D01*
X93193800Y-110201500D02*
X93261300Y-110377400D01*
X190175100Y-88172900D02*
X190361200Y-88143500D01*
X151356300Y-139759300D02*
X151700000Y-139667200D01*
X151707400Y-137789800D02*
X151549400Y-137892400D01*
X86223700Y-89226700D02*
X86168000Y-89578200D01*
X190923600Y-88172900D02*
X191105600Y-88221700D01*
X149817270Y-73289200D02*
X149993160Y-73221700D01*
X124032300Y-111627550D02*
X124349400Y-111789110D01*
X191753800Y-88596000D02*
X191887000Y-88729200D01*
X131210080Y-116707850D02*
X131161310Y-116889840D01*
X141253820Y-98771300D02*
X141107400Y-98889800D01*
X131008250Y-135433600D02*
X131093790Y-135601500D01*
X189345000Y-91271300D02*
X189211700Y-91138000D01*
X89788700Y-110559360D02*
X89837500Y-110377400D01*
X130005600Y-134621700D02*
X130181540Y-134689200D01*
X148753820Y-108271300D02*
X148607400Y-108389800D01*
X188549400Y-109133600D02*
X188737500Y-109143500D01*
X88168000Y-111289010D02*
X88223700Y-111640510D01*
X128993200Y-76645500D02*
X128817300Y-76578000D01*
X152261300Y-75489800D02*
X152193800Y-75665700D01*
X140237541Y-95643500D02*
X140423637Y-95672900D01*
X188837500Y-89377400D02*
X188905000Y-89201500D01*
X131249410Y-136333600D02*
X131239540Y-136521800D01*
X189607400Y-109477400D02*
X189753800Y-109596000D01*
X152410100Y-116707850D02*
X152361300Y-116889840D01*
X189753800Y-112271260D02*
X189607400Y-112389840D01*
X91108300Y-90833600D02*
X91005600Y-90991600D01*
X87905000Y-89201500D02*
X87990600Y-89033600D01*
X127890600Y-137233600D02*
X127805000Y-137065700D01*
X141253820Y-91771300D02*
X141107400Y-91889800D01*
X152361300Y-135777400D02*
X152410100Y-135959400D01*
X150904800Y-71552200D02*
X150549400Y-71533600D01*
X131239540Y-136145400D02*
X131249410Y-136333600D01*
X134261310Y-106377400D02*
X134310070Y-106559400D01*
X89990600Y-110033600D02*
X90093200Y-109875600D01*
X139493171Y-99145500D02*
X139317283Y-99078000D01*
X148888720Y-115959370D02*
X148937490Y-115777380D01*
X88498800Y-86700000D02*
X88166500Y-86827600D01*
X88093200Y-90991600D02*
X87990600Y-90833600D01*
X132549400Y-105133600D02*
X132737560Y-105143500D01*
X132175160Y-105172900D02*
X132361260Y-105143500D01*
X147923640Y-105172900D02*
X148105630Y-105221700D01*
X145905010Y-107665700D02*
X145837490Y-107489800D01*
X151205600Y-138045500D02*
X151023600Y-138094300D01*
X188361200Y-112723750D02*
X188175100Y-112694270D01*
X152105600Y-117391620D02*
X151987100Y-117538050D01*
X141693780Y-91165700D02*
X141608240Y-91333600D01*
X188904800Y-114314980D02*
X189256300Y-114259310D01*
X131491400Y-108389800D02*
X131344980Y-108271300D01*
X138249410Y-90433600D02*
X138259270Y-90245500D01*
X130788750Y-106559400D02*
X130837500Y-106377400D01*
X150093200Y-138045500D02*
X149917260Y-137978000D01*
X150093200Y-134621700D02*
X150275200Y-134572900D01*
X128717300Y-117977990D02*
X128549400Y-117892450D01*
X147361240Y-108723700D02*
X147175150Y-108694300D01*
X130887060Y-76138000D02*
X130753840Y-76271300D01*
X149166480Y-71827600D02*
X148849390Y-71989100D01*
X120049400Y-111569160D02*
X120049400Y-111576700D01*
X153755400Y-137816500D02*
X153883000Y-137484200D01*
X127737500Y-115777380D02*
X127805000Y-115601480D01*
X145324440Y-84960300D02*
X145047860Y-85184300D01*
X128111700Y-137538000D02*
X127993200Y-137391600D01*
X127737500Y-135777400D02*
X127805000Y-135601500D01*
X145800060Y-84432100D02*
X145576090Y-84708700D01*
X149444950Y-137671300D02*
X149311730Y-137538000D01*
X190175100Y-91694300D02*
X189993200Y-91645500D01*
X148888720Y-136707800D02*
X148859260Y-136521800D01*
X89175200Y-88172900D02*
X89361300Y-88143500D01*
X129449400Y-139833600D02*
X150649400Y-139833600D01*
X88649400Y-88374800D02*
X88817300Y-88289200D01*
X147923640Y-108694300D02*
X147737540Y-108723700D01*
X138405020Y-96701500D02*
X138490560Y-96533600D01*
X139317283Y-99078000D02*
X139149406Y-98992500D01*
X190005600Y-109875600D02*
X190108200Y-110033600D01*
X149005620Y-105875600D02*
X149108240Y-106033600D01*
X129075200Y-118094280D02*
X128893200Y-118045510D01*
X138259270Y-97621800D02*
X138249410Y-97433600D01*
X130753840Y-76271300D02*
X130607410Y-76389800D01*
X141839530Y-97245500D02*
X141849390Y-97433600D01*
X188905000Y-90665700D02*
X188837500Y-90489800D01*
X191105600Y-91645500D02*
X190923600Y-91694300D01*
X147175150Y-105172900D02*
X147361240Y-105143500D01*
X88993200Y-91645500D02*
X88817300Y-91578000D01*
X127659300Y-136521800D02*
X127649400Y-136333600D01*
X152293800Y-137065700D02*
X152208200Y-137233600D01*
X129261300Y-118123740D02*
X129075200Y-118094280D01*
X131093180Y-105875600D02*
X131211750Y-105729200D01*
X131344980Y-108271300D02*
X131211750Y-108138000D01*
X190361200Y-88143500D02*
X190549400Y-88133600D01*
X154504900Y-113033610D02*
X154698700Y-112735140D01*
X151549400Y-114774760D02*
X151707400Y-114877370D01*
X139149406Y-88874800D02*
X139317283Y-88789200D01*
X149005010Y-137065700D02*
X148937490Y-136889800D01*
X140049400Y-95633600D02*
X140237541Y-95643500D01*
X193493900Y-88233600D02*
X193300100Y-87935100D01*
X130788750Y-107307900D02*
X130759270Y-107121800D01*
X141387050Y-98638000D02*
X141253820Y-98771300D01*
X146491390Y-105477400D02*
X146649390Y-105374800D01*
X190361200Y-91723700D02*
X190175100Y-91694300D01*
X150461200Y-118123740D02*
X150275200Y-118094280D01*
X141505620Y-96375600D02*
X141608240Y-96533600D01*
X145759250Y-106745500D02*
X145788730Y-106559400D01*
X93005600Y-109875600D02*
X93108300Y-110033600D01*
X149090550Y-117233600D02*
X149005010Y-117065740D01*
X189753800Y-109596000D02*
X189887000Y-109729200D01*
X148849390Y-71989100D02*
X148550930Y-72182900D01*
X93339500Y-110745460D02*
X93349400Y-110933600D01*
X131008250Y-115433600D02*
X131093790Y-115601480D01*
X130837500Y-107489800D02*
X130788750Y-107307900D01*
X189993200Y-88221700D02*
X190175100Y-88172900D01*
X92887100Y-112138040D02*
X92753800Y-112271260D01*
X155749400Y-111789110D02*
X156066500Y-111627550D01*
X190923600Y-91694300D02*
X190737500Y-91723700D01*
X152108200Y-74033600D02*
X152193800Y-74201500D01*
X128345000Y-76271300D02*
X128211800Y-76138000D01*
X189281500Y-109289200D02*
X189449400Y-109374800D01*
X130905630Y-137391600D02*
X130787070Y-137538000D01*
X132930780Y-74578200D02*
X132875110Y-74226700D01*
X148888720Y-116707850D02*
X148859260Y-116521770D01*
X128391400Y-114877370D02*
X128549400Y-114774760D01*
X136342510Y-85759300D02*
X135998760Y-85667200D01*
X91904800Y-114314980D02*
X120049400Y-111569160D01*
X131249410Y-71989100D02*
X130932320Y-71827600D01*
X147315800Y-73883000D02*
X147223690Y-74226700D01*
X130281530Y-73289200D02*
X130449410Y-73374800D01*
X148905010Y-75665700D02*
X148837490Y-75489800D01*
X148753820Y-105596000D02*
X148887050Y-105729200D01*
X131239540Y-116145450D02*
X131249410Y-116333610D01*
X138405020Y-98165700D02*
X138337500Y-97989800D01*
X148607400Y-108389800D02*
X148449390Y-108492500D01*
X138337500Y-96877400D02*
X138405020Y-96701500D01*
X133607410Y-108389800D02*
X133449410Y-108492500D01*
X92449400Y-109374800D02*
X92607400Y-109477400D01*
X150275200Y-134572900D02*
X150461200Y-134543400D01*
X150275200Y-138094300D02*
X150093200Y-138045500D01*
X138844980Y-91771300D02*
X138711750Y-91638000D01*
X130759270Y-106745500D02*
X130788750Y-106559400D01*
X146093160Y-107991600D02*
X145990550Y-107833600D01*
X148887050Y-108138000D02*
X148753820Y-108271300D01*
X128111700Y-135129200D02*
X128245000Y-134995900D01*
X139149406Y-95874800D02*
X139317283Y-95789200D01*
X91193800Y-89201500D02*
X91261300Y-89377400D01*
X140237541Y-88643500D02*
X140423637Y-88672900D01*
X89549400Y-91733600D02*
X89361300Y-91723700D01*
X188923600Y-112694270D02*
X188737500Y-112723750D01*
X148105630Y-105221700D02*
X148281520Y-105289200D01*
X148888720Y-135959400D02*
X148937490Y-135777400D01*
X141761300Y-96877400D02*
X141810050Y-97059400D01*
X139493171Y-88721700D02*
X139675163Y-88672900D01*
X138288750Y-97807900D02*
X138259270Y-97621800D01*
X149311730Y-137538000D02*
X149193170Y-137391600D01*
X92281500Y-109289200D02*
X92449400Y-109374800D01*
X150923600Y-76694300D02*
X150737500Y-76723700D01*
X141608240Y-91333600D02*
X141505620Y-91491600D01*
X150837500Y-138123700D02*
X150649400Y-138133600D01*
X153975100Y-137140500D02*
X154030800Y-136789000D01*
X88223700Y-111640510D02*
X88315800Y-111984260D01*
X145576090Y-84708700D02*
X145324440Y-84960300D01*
X123004800Y-111352240D02*
X123356300Y-111407900D01*
X149261300Y-106377400D02*
X149310050Y-106559400D01*
X131008250Y-117233600D02*
X130905630Y-117391620D01*
X127805000Y-115601480D02*
X127890600Y-115433600D01*
X141810050Y-90807900D02*
X141761300Y-90989800D01*
X124924400Y-112206920D02*
X125176100Y-112458560D01*
X150837500Y-118123740D02*
X150649400Y-118133610D01*
X152032300Y-139539600D02*
X152349400Y-139378100D01*
X89923700Y-91694300D02*
X89737600Y-91723700D01*
X141387050Y-89229200D02*
X141505620Y-89375600D01*
X133105640Y-108645500D02*
X132923650Y-108694300D01*
X126698800Y-138432100D02*
X126922700Y-138708600D01*
X188737500Y-109143500D02*
X188923600Y-109172900D01*
X91549400Y-109133600D02*
X91737600Y-109143500D01*
X149090550Y-137233600D02*
X149005010Y-137065700D01*
X192824400Y-87406900D02*
X192547900Y-87182900D01*
X92607400Y-109477400D02*
X92753800Y-109596000D01*
X191493900Y-112633610D02*
X191655400Y-112316520D01*
X140049400Y-92233600D02*
X139861259Y-92223700D01*
X186837500Y-110377400D02*
X186905000Y-110201500D01*
X128717300Y-137978000D02*
X128549400Y-137892400D01*
X148837490Y-74377400D02*
X148905010Y-74201500D01*
X130181540Y-134689200D02*
X130349400Y-134774700D01*
X129823600Y-118094280D02*
X129637600Y-118123740D01*
X138490560Y-89533600D02*
X138593180Y-89375600D01*
X140781517Y-99078000D02*
X140605629Y-99145500D01*
X129449400Y-134533600D02*
X129637600Y-134543400D01*
X148937490Y-135777400D02*
X149005010Y-135601500D01*
X127805000Y-137065700D02*
X127737500Y-136889800D01*
X188837500Y-90489800D02*
X188788700Y-90307900D01*
X150361200Y-76723700D02*
X150175100Y-76694300D01*
X150175100Y-76694300D02*
X149993160Y-76645500D01*
X89837500Y-111489840D02*
X89788700Y-111307850D01*
X88345000Y-91271300D02*
X88211800Y-91138000D01*
X151023600Y-138094300D02*
X150837500Y-138123700D01*
X128993200Y-73221700D02*
X129175200Y-73172900D01*
X127688700Y-136707800D02*
X127659300Y-136521800D01*
X149311730Y-115129170D02*
X149444950Y-114995950D01*
X151707400Y-134877400D02*
X151853800Y-134995900D01*
X154215800Y-113682940D02*
X154343300Y-113350700D01*
X131649410Y-105374800D02*
X131817280Y-105289200D01*
X152439500Y-116521770D02*
X152410100Y-116707850D01*
X138337500Y-97989800D02*
X138288750Y-97807900D01*
X186837500Y-111489840D02*
X186788700Y-111307850D01*
X130787070Y-117538050D02*
X130653850Y-117671270D01*
X91175200Y-109172900D02*
X91361300Y-109143500D01*
X127993200Y-115275600D02*
X128111700Y-115129170D01*
X191600000Y-86700000D02*
X151600000Y-71700000D01*
X192005600Y-90991600D02*
X191887000Y-91138000D01*
X127805000Y-135601500D02*
X127890600Y-135433600D01*
X160049400Y-111576700D02*
X160049400Y-111569160D01*
X149108240Y-107833600D02*
X149005620Y-107991600D01*
X91737600Y-112723750D02*
X91549400Y-112733600D01*
X91310100Y-89559400D02*
X91339500Y-89745500D01*
X133943350Y-83816500D02*
X133815820Y-83484300D01*
X130349400Y-114774760D02*
X130507420Y-114877370D01*
X127688700Y-135959400D02*
X127737500Y-135777400D01*
X151449400Y-76492500D02*
X151281500Y-76578000D01*
X131211750Y-108138000D02*
X131093180Y-107991600D01*
X134193790Y-107665700D02*
X134108250Y-107833600D01*
X188737500Y-112723750D02*
X188549400Y-112733600D01*
X141505620Y-91491600D02*
X141387050Y-91638000D01*
X149108240Y-106033600D02*
X149193780Y-106201500D01*
X149749400Y-117892450D02*
X149591380Y-117789830D01*
X150737500Y-73143500D02*
X150923600Y-73172900D01*
X134339550Y-106745500D02*
X134349400Y-106933600D01*
X131093790Y-115601480D02*
X131161310Y-115777380D01*
X130905020Y-106201500D02*
X130990560Y-106033600D01*
X129549400Y-71533600D02*
X129194000Y-71552200D01*
X148937490Y-115777380D02*
X149005010Y-115601480D01*
X128093200Y-75991600D02*
X127990600Y-75833600D01*
X148859260Y-116145450D02*
X148888720Y-115959370D01*
X141107400Y-95977400D02*
X141253820Y-96096000D01*
X127659300Y-136145400D02*
X127688700Y-135959400D01*
X93349400Y-110933600D02*
X93339500Y-111121760D01*
X130449410Y-76492500D02*
X130281530Y-76578000D01*
X130905630Y-135275600D02*
X131008250Y-135433600D01*
X125400100Y-112735140D02*
X125593900Y-113033610D01*
X127993200Y-135275600D02*
X128111700Y-135129200D01*
X148887050Y-105729200D02*
X149005620Y-105875600D01*
X90093200Y-111991610D02*
X89990600Y-111833610D01*
X86604900Y-88233600D02*
X86443400Y-88550700D01*
X90105600Y-91645500D02*
X89923700Y-91694300D01*
X89274400Y-113460300D02*
X89550900Y-113684270D01*
X131211750Y-105729200D02*
X131344980Y-105596000D01*
X90491400Y-109477400D02*
X90649400Y-109374800D01*
X138490560Y-96533600D02*
X138593180Y-96375600D01*
X128817300Y-73289200D02*
X128993200Y-73221700D01*
X150194000Y-71552200D02*
X149842490Y-71607900D01*
X191887000Y-88729200D02*
X192005600Y-88875600D01*
X88491400Y-91389800D02*
X88345000Y-91271300D01*
X88817300Y-88289200D02*
X88993200Y-88221700D01*
X189256300Y-114259310D02*
X189600000Y-114167200D01*
X90649400Y-112492450D02*
X90491400Y-112389840D01*
X149444950Y-134995900D02*
X149591380Y-134877400D01*
X140949394Y-91992500D02*
X140781517Y-92078000D01*
X191076100Y-113208650D02*
X191300100Y-112932070D01*
X138991400Y-98889800D02*
X138844980Y-98771300D01*
X89849400Y-113878090D02*
X90166500Y-114039660D01*
X149344960Y-76271300D02*
X149211740Y-76138000D01*
X138711750Y-98638000D02*
X138593180Y-98491600D01*
X150837500Y-134543400D02*
X151023600Y-134572900D01*
X188759300Y-90121800D02*
X188749400Y-89933600D01*
X128498800Y-71700000D02*
X88498800Y-86700000D01*
X149005010Y-117065740D02*
X148937490Y-116889840D01*
X145993870Y-84133600D02*
X145800060Y-84432100D01*
X192193800Y-90665700D02*
X192108200Y-90833600D01*
X145759250Y-107121800D02*
X145749400Y-106933600D01*
X89361300Y-91723700D02*
X89175200Y-91694300D01*
X138991400Y-91889800D02*
X138844980Y-91771300D01*
X150923600Y-73172900D02*
X151105600Y-73221700D01*
X141839530Y-90621800D02*
X141810050Y-90807900D01*
X150461200Y-134543400D02*
X150649400Y-134533600D01*
X187491400Y-109477400D02*
X187649400Y-109374800D01*
X131491400Y-105477400D02*
X131649410Y-105374800D01*
X189817300Y-91578000D02*
X189649400Y-91492500D01*
X146649390Y-105374800D02*
X146817270Y-105289200D01*
X188361200Y-109143500D02*
X188549400Y-109133600D01*
X91923700Y-112694270D02*
X91737600Y-112723750D01*
X150275200Y-118094280D02*
X150093200Y-118045510D01*
X157094000Y-111352240D02*
X157449400Y-111333610D01*
X138991400Y-95977400D02*
X139149406Y-95874800D01*
X191655400Y-112316520D02*
X191783000Y-111984260D01*
X128491400Y-73477400D02*
X128649400Y-73374800D01*
X189281500Y-112577990D02*
X189105600Y-112645510D01*
X141505620Y-98491600D02*
X141387050Y-98638000D01*
X148788730Y-74559400D02*
X148837490Y-74377400D01*
X148837490Y-75489800D02*
X148788730Y-75307900D01*
X129904800Y-71552200D02*
X129549400Y-71533600D01*
X192261300Y-89377400D02*
X192310100Y-89559400D01*
X149090550Y-115433600D02*
X149193170Y-115275600D01*
X129261300Y-114543460D02*
X129449400Y-114533610D01*
X152105600Y-135275600D02*
X152208200Y-135433600D01*
X144100040Y-85667200D02*
X143756290Y-85759300D01*
X190737500Y-88143500D02*
X190923600Y-88172900D01*
X127788700Y-74559400D02*
X127837500Y-74377400D01*
X139675163Y-88672900D02*
X139861259Y-88643500D01*
X128398800Y-139667200D02*
X128742500Y-139759300D01*
X127890600Y-115433600D02*
X127993200Y-115275600D01*
X139861259Y-95643500D02*
X140049400Y-95633600D01*
X152208200Y-115433600D02*
X152293800Y-115601480D01*
X90093200Y-109875600D02*
X90211800Y-109729200D01*
X138593180Y-96375600D02*
X138711750Y-96229200D01*
X149749400Y-134774700D02*
X149917260Y-134689200D01*
X93339500Y-111121760D02*
X93310100Y-111307850D01*
X191932300Y-86827600D02*
X191600000Y-86700000D01*
X152108200Y-75833600D02*
X152005600Y-75991600D01*
X128066500Y-139539600D02*
X128398800Y-139667200D01*
X152208200Y-137233600D02*
X152105600Y-137391600D01*
X187491400Y-112389840D02*
X187345000Y-112271260D01*
X147223690Y-74226700D02*
X147168020Y-74578200D01*
X187211700Y-112138040D02*
X187093200Y-111991610D01*
X148449390Y-108492500D02*
X148281520Y-108578000D01*
X148550930Y-72182900D02*
X148274350Y-72406900D01*
X128245000Y-117671270D02*
X128111700Y-117538050D01*
X145837490Y-107489800D02*
X145788730Y-107307900D01*
X140781517Y-92078000D02*
X140605629Y-92145500D01*
X148274350Y-72406900D02*
X148022700Y-72658600D01*
X130105640Y-76645500D02*
X129923700Y-76694300D01*
X128893200Y-114621710D02*
X129075200Y-114572940D01*
X92607400Y-112389840D02*
X92449400Y-112492450D01*
X148990550Y-74033600D02*
X149093160Y-73875600D01*
X189093200Y-90991600D02*
X188990500Y-90833600D01*
X151887000Y-73729200D02*
X152005600Y-73875600D01*
X140049400Y-99233600D02*
X139861259Y-99223700D01*
X140781517Y-95789200D02*
X140949394Y-95874800D01*
X139317283Y-95789200D02*
X139493171Y-95721700D01*
X133738760Y-83196700D02*
X132930780Y-74578200D01*
X146649390Y-108492500D02*
X146491390Y-108389800D01*
X138593180Y-98491600D02*
X138490560Y-98333600D01*
X127659300Y-116145450D02*
X127688700Y-115959370D01*
X148990550Y-75833600D02*
X148905010Y-75665700D01*
X140605629Y-88721700D02*
X140781517Y-88789200D01*
X130349400Y-117892450D02*
X130181540Y-117977990D01*
X88649400Y-91492500D02*
X88491400Y-91389800D01*
X141849390Y-90433600D02*
X141839530Y-90621800D01*
X154049400Y-136433600D02*
X154049400Y-114733600D01*
X193949400Y-89933600D02*
X193930800Y-89578200D01*
X193300100Y-87935100D02*
X193076100Y-87658600D01*
X89905000Y-110201500D02*
X89990600Y-110033600D01*
X192005600Y-88875600D02*
X192108200Y-89033600D01*
X186905000Y-111665730D02*
X186837500Y-111489840D01*
X147549400Y-105133600D02*
X147737540Y-105143500D01*
X127993200Y-117391620D02*
X127890600Y-117233600D01*
X89837500Y-110377400D02*
X89905000Y-110201500D01*
X139149406Y-98992500D02*
X138991400Y-98889800D01*
X149310050Y-106559400D02*
X149339530Y-106745500D01*
X192261300Y-90489800D02*
X192193800Y-90665700D01*
X140781517Y-88789200D02*
X140949394Y-88874800D01*
X129261300Y-138123700D02*
X129075200Y-138094300D01*
X131339550Y-74745500D02*
X131349400Y-74933600D01*
X152361300Y-116889840D02*
X152293800Y-117065740D01*
X186905000Y-110201500D02*
X186990500Y-110033600D01*
X149993160Y-73221700D02*
X150175100Y-73172900D01*
X151549400Y-117892450D02*
X151381500Y-117977990D01*
X152339500Y-75121800D02*
X152310100Y-75307900D01*
X148749400Y-74933600D02*
X148759250Y-74745500D01*
X130281530Y-76578000D02*
X130105640Y-76645500D01*
X131093790Y-135601500D02*
X131161310Y-135777400D01*
X133815820Y-83484300D02*
X133738760Y-83196700D01*
X146211740Y-108138000D02*
X146093160Y-107991600D01*
X131344980Y-105596000D02*
X131491400Y-105477400D01*
X130349400Y-134774700D02*
X130507420Y-134877400D01*
X190249400Y-113878090D02*
X190547900Y-113684270D01*
X146360040Y-83196700D02*
X146282980Y-83484300D01*
X135349400Y-85378100D02*
X135050940Y-85184300D01*
X90887100Y-88729200D02*
X91005600Y-88875600D01*
X193930800Y-90289000D02*
X193949400Y-89933600D01*
X127990600Y-75833600D02*
X127905000Y-75665700D01*
X189887000Y-112138040D02*
X189753800Y-112271260D01*
X191105600Y-88221700D02*
X191281500Y-88289200D01*
X130887060Y-73729200D02*
X131005640Y-73875600D01*
X125755500Y-113350700D02*
X125883000Y-113682940D01*
X143404790Y-85815000D02*
X143049400Y-85833600D01*
X130349400Y-137892400D02*
X130181540Y-137978000D01*
X138711750Y-91638000D02*
X138593180Y-91491600D01*
X152439500Y-136145400D02*
X152449400Y-136333600D01*
X151205600Y-134621700D02*
X151381500Y-134689200D01*
X191281500Y-88289200D02*
X191449400Y-88374800D01*
X133281530Y-108578000D02*
X133105640Y-108645500D01*
X90449400Y-91492500D02*
X90281500Y-91578000D01*
X132300070Y-72935100D02*
X132076100Y-72658600D01*
X186990500Y-111833610D02*
X186905000Y-111665730D01*
X140949394Y-88874800D02*
X141107400Y-88977400D01*
X147604910Y-73233600D02*
X147443340Y-73550700D01*
X190549400Y-91733600D02*
X190361200Y-91723700D01*
X189649400Y-91492500D02*
X189491400Y-91389800D01*
X127905000Y-74201500D02*
X127990600Y-74033600D01*
X140049400Y-88633600D02*
X140237541Y-88643500D01*
X140423637Y-92194300D02*
X140237541Y-92223700D01*
X128649400Y-73374800D02*
X128817300Y-73289200D01*
X90607400Y-88477400D02*
X90753800Y-88596000D01*
X151600000Y-71700000D02*
X151256300Y-71607900D01*
X138288750Y-97059400D02*
X138337500Y-96877400D01*
X149649390Y-76492500D02*
X149491390Y-76389800D01*
X137049400Y-85833600D02*
X136694010Y-85815000D01*
X151281500Y-76578000D02*
X151105600Y-76645500D01*
X129094000Y-139815000D02*
X129449400Y-139833600D01*
X88604900Y-112633610D02*
X88798700Y-112932070D01*
X88211800Y-88729200D02*
X88345000Y-88596000D01*
X126049400Y-136433600D02*
X126068000Y-136789000D01*
X149444950Y-117671270D02*
X149311730Y-117538050D01*
X152349400Y-74933600D02*
X152339500Y-75121800D01*
X138405020Y-91165700D02*
X138337500Y-90989800D01*
X141253820Y-89096000D02*
X141387050Y-89229200D01*
X128742500Y-139759300D02*
X129094000Y-139815000D01*
X152193800Y-74201500D02*
X152261300Y-74377400D01*
X127451000Y-139184300D02*
X127749400Y-139378100D01*
X91549400Y-112733600D02*
X91361300Y-112723750D01*
X150275200Y-114572940D02*
X150461200Y-114543460D01*
X141761300Y-97989800D02*
X141693780Y-98165700D01*
X89175200Y-91694300D02*
X88993200Y-91645500D01*
X150549400Y-71533600D02*
X150194000Y-71552200D01*
X127649400Y-116333610D02*
X127659300Y-116145450D01*
X192249400Y-86989100D02*
X191932300Y-86827600D01*
X87837500Y-90489800D02*
X87788700Y-90307900D01*
X191753800Y-91271300D02*
X191607400Y-91389800D01*
X151549400Y-134774700D02*
X151707400Y-134877400D01*
X151381500Y-137978000D02*
X151205600Y-138045500D01*
X129637600Y-134543400D02*
X129823600Y-134572900D01*
X130005600Y-118045510D02*
X129823600Y-118094280D01*
X127890600Y-135433600D02*
X127993200Y-135275600D01*
X129075200Y-138094300D02*
X128893200Y-138045500D01*
X90887100Y-91138000D02*
X90753800Y-91271300D01*
X138259270Y-90245500D02*
X138288750Y-90059400D01*
X89923700Y-88172900D02*
X90105600Y-88221700D01*
X188905000Y-89201500D02*
X188990500Y-89033600D01*
X90817300Y-112577990D02*
X90649400Y-112492450D01*
X87905000Y-90665700D02*
X87837500Y-90489800D01*
X189993200Y-91645500D02*
X189817300Y-91578000D01*
X90842500Y-114259310D02*
X91194000Y-114314980D01*
X88817300Y-91578000D02*
X88649400Y-91492500D01*
X129737600Y-76723700D02*
X129549400Y-76733600D01*
X138405020Y-89701500D02*
X138490560Y-89533600D01*
X128893200Y-138045500D02*
X128717300Y-137978000D01*
X86443400Y-88550700D02*
X86315800Y-88883000D01*
X131349400Y-74933600D02*
X131339550Y-75121800D01*
X135666500Y-85539700D02*
X135349400Y-85378100D01*
X92105600Y-109221700D02*
X92281500Y-109289200D01*
X129549400Y-76733600D02*
X129361300Y-76723700D01*
X131649410Y-108492500D02*
X131491400Y-108389800D01*
X120049400Y-111576700D02*
X122294000Y-111352240D01*
X190547900Y-113684270D02*
X190824400Y-113460300D01*
X153400000Y-138432100D02*
X153593900Y-138133600D01*
X149649390Y-73374800D02*
X149817270Y-73289200D01*
X139861259Y-92223700D02*
X139675163Y-92194300D01*
X149005620Y-107991600D02*
X148887050Y-108138000D01*
X193783000Y-88883000D02*
X193655400Y-88550700D01*
X152647800Y-139184300D02*
X152924400Y-138960300D01*
X139675163Y-95672900D02*
X139861259Y-95643500D01*
X140423637Y-95672900D02*
X140605629Y-95721700D01*
X91261300Y-90489800D02*
X91193800Y-90665700D01*
X124349400Y-111789110D02*
X124647900Y-111982950D01*
X91339500Y-89745500D02*
X91349400Y-89933600D01*
X127905000Y-75665700D02*
X127837500Y-75489800D01*
X129175200Y-76694300D02*
X128993200Y-76645500D01*
X151023600Y-134572900D02*
X151205600Y-134621700D01*
X129823600Y-138094300D02*
X129637600Y-138123700D01*
X132737560Y-108723700D02*
X132549400Y-108733600D01*
X151853800Y-134995900D02*
X151987100Y-135129200D01*
X149311730Y-117538050D02*
X149193170Y-117391620D01*
X146155450Y-83816500D02*
X145993870Y-84133600D01*
X131210080Y-135959400D02*
X131239540Y-136145400D01*
X122294000Y-111352240D02*
X122649400Y-111333610D01*
X151004800Y-139815000D02*
X151356300Y-139759300D01*
X145905010Y-106201500D02*
X145990550Y-106033600D01*
X129194000Y-71552200D02*
X128842500Y-71607900D01*
X151607400Y-73477400D02*
X151753800Y-73596000D01*
X147168020Y-74578200D02*
X146360040Y-83196700D01*
X148937490Y-116889840D02*
X148888720Y-116707850D01*
X148449390Y-105374800D02*
X148607400Y-105477400D01*
X190824400Y-113460300D02*
X191076100Y-113208650D01*
X145788730Y-107307900D02*
X145759250Y-107121800D01*
X143756290Y-85759300D02*
X143404790Y-85815000D01*
X93261300Y-111489840D02*
X93193800Y-111665730D01*
X145788730Y-106559400D02*
X145837490Y-106377400D01*
X140605629Y-99145500D02*
X140423637Y-99194300D01*
X127759300Y-74745500D02*
X127788700Y-74559400D01*
X141107400Y-98889800D02*
X140949394Y-98992500D01*
X191449400Y-88374800D02*
X191607400Y-88477400D01*
X150649400Y-139833600D02*
X151004800Y-139815000D01*
X135998760Y-85667200D02*
X135666500Y-85539700D01*
X189345000Y-88596000D02*
X189491400Y-88477400D01*
X155450900Y-111982950D02*
X155749400Y-111789110D01*
X187345000Y-112271260D02*
X187211700Y-112138040D01*
X151987100Y-117538050D02*
X151853800Y-117671270D01*
X156398700Y-111500020D02*
X156742500Y-111407900D01*
X190349400Y-110933600D02*
X190339500Y-111121760D01*
X141107400Y-88977400D02*
X141253820Y-89096000D01*
X146093160Y-105875600D02*
X146211740Y-105729200D01*
X130905630Y-115275600D02*
X131008250Y-115433600D01*
X89759300Y-110745460D02*
X89788700Y-110559360D01*
X138593180Y-91491600D02*
X138490560Y-91333600D01*
X151887000Y-76138000D02*
X151753800Y-76271300D01*
X132549400Y-108733600D02*
X132361260Y-108723700D01*
X148022700Y-72658600D02*
X147798730Y-72935100D01*
X149917260Y-117977990D02*
X149749400Y-117892450D01*
X131193790Y-74201500D02*
X131261310Y-74377400D01*
X87759300Y-89745500D02*
X87788700Y-89559400D01*
X192310100Y-90307900D02*
X192261300Y-90489800D01*
X139675163Y-99194300D02*
X139493171Y-99145500D01*
X89749400Y-110933600D02*
X89759300Y-110745460D01*
X150175100Y-73172900D02*
X150361200Y-73143500D01*
X128111700Y-117538050D02*
X127993200Y-117391620D01*
X153883000Y-137484200D02*
X153975100Y-137140500D01*
X127837500Y-74377400D02*
X127905000Y-74201500D01*
X138711750Y-89229200D02*
X138844980Y-89096000D01*
X150461200Y-114543460D02*
X150649400Y-114533610D01*
X148849390Y-136333600D02*
X148859260Y-136145400D01*
X93108300Y-111833610D02*
X93005600Y-111991610D01*
X151105600Y-73221700D02*
X151281500Y-73289200D01*
X128717300Y-114689230D02*
X128893200Y-114621710D01*
X190108200Y-111833610D02*
X190005600Y-111991610D01*
X146491390Y-108389800D02*
X146344960Y-108271300D01*
X132923650Y-108694300D02*
X132737560Y-108723700D01*
X91005600Y-90991600D02*
X90887100Y-91138000D01*
X134108250Y-107833600D02*
X134005640Y-107991600D01*
X87022700Y-87658600D02*
X86798700Y-87935100D01*
X149193170Y-135275600D02*
X149311730Y-135129200D01*
X130787070Y-135129200D02*
X130905630Y-135275600D01*
X138249410Y-97433600D02*
X138259270Y-97245500D01*
X189932300Y-114039660D02*
X190249400Y-113878090D01*
X134349400Y-106933600D02*
X134339550Y-107121800D01*
X91737600Y-109143500D02*
X91923700Y-109172900D01*
X149749400Y-114774760D02*
X149917260Y-114689230D01*
X191449400Y-91492500D02*
X191281500Y-91578000D01*
X131161310Y-115777380D02*
X131210080Y-115959370D01*
X152410100Y-136707800D02*
X152361300Y-136889800D01*
X130753840Y-73596000D02*
X130887060Y-73729200D01*
X130005600Y-114621710D02*
X130181540Y-114689230D01*
X127688700Y-116707850D02*
X127659300Y-116521770D01*
X151105600Y-76645500D02*
X150923600Y-76694300D01*
X148759250Y-74745500D02*
X148788730Y-74559400D01*
X91261300Y-89377400D02*
X91310100Y-89559400D01*
X127788700Y-75307900D02*
X127759300Y-75121800D01*
X148607400Y-105477400D02*
X148753820Y-105596000D01*
X147549400Y-108733600D02*
X147361240Y-108723700D01*
X154049400Y-114733600D02*
X154068000Y-114378210D01*
X130507420Y-134877400D02*
X130653850Y-134995900D01*
X190339500Y-110745460D02*
X190349400Y-110933600D01*
X131310070Y-75307900D02*
X131261310Y-75489800D01*
X139861259Y-88643500D02*
X140049400Y-88633600D01*
X152293800Y-135601500D02*
X152361300Y-135777400D01*
X192339500Y-90121800D02*
X192310100Y-90307900D01*
X152449400Y-116333610D02*
X152439500Y-116521770D01*
X148859260Y-136521800D02*
X148849390Y-136333600D01*
X139317283Y-92078000D02*
X139149406Y-91992500D01*
X88315800Y-111984260D02*
X88443400Y-112316520D01*
X133753840Y-105596000D02*
X133887060Y-105729200D01*
X87837500Y-89377400D02*
X87905000Y-89201500D01*
X87990600Y-89033600D02*
X88093200Y-88875600D01*
X90649400Y-109374800D02*
X90817300Y-109289200D01*
X149591380Y-134877400D02*
X149749400Y-134774700D01*
X188549400Y-114333610D02*
X188904800Y-114314980D01*
X150093200Y-118045510D02*
X149917260Y-117977990D01*
X126504900Y-138133600D02*
X126698800Y-138432100D01*
X187649400Y-109374800D02*
X187817300Y-109289200D01*
X131193790Y-75665700D02*
X131108250Y-75833600D01*
X89737600Y-88143500D02*
X89923700Y-88172900D01*
X89550900Y-113684270D02*
X89849400Y-113878090D01*
X186788700Y-110559360D02*
X186837500Y-110377400D01*
X91310100Y-90307900D02*
X91261300Y-90489800D01*
X90105600Y-88221700D02*
X90281500Y-88289200D01*
X131339550Y-75121800D02*
X131310070Y-75307900D01*
X187817300Y-109289200D02*
X187993200Y-109221700D01*
X130507420Y-117789830D02*
X130349400Y-117892450D01*
X92753800Y-112271260D02*
X92607400Y-112389840D01*
X91005600Y-88875600D02*
X91108300Y-89033600D01*
X129449400Y-114533610D02*
X129637600Y-114543460D01*
X149211740Y-76138000D02*
X149093160Y-75991600D01*
X190108200Y-110033600D02*
X190193800Y-110201500D01*
X93193800Y-111665730D02*
X93108300Y-111833610D01*
X150737500Y-76723700D02*
X150549400Y-76733600D01*
X151987100Y-115129170D02*
X152105600Y-115275600D01*
X128211800Y-76138000D02*
X128093200Y-75991600D01*
X156066500Y-111627550D02*
X156398700Y-111500020D01*
X149193170Y-137391600D02*
X149090550Y-137233600D01*
X152208200Y-117233600D02*
X152105600Y-117391620D01*
X136694010Y-85815000D02*
X136342510Y-85759300D01*
X126030800Y-114378210D02*
X126049400Y-114733600D01*
X151853800Y-117671270D02*
X151707400Y-117789830D01*
X91108300Y-89033600D02*
X91193800Y-89201500D01*
X188175100Y-109172900D02*
X188361200Y-109143500D01*
X133607410Y-105477400D02*
X133753840Y-105596000D01*
X90211800Y-109729200D02*
X90345000Y-109596000D01*
X151853800Y-114995950D02*
X151987100Y-115129170D01*
X128245000Y-134995900D02*
X128391400Y-134877400D01*
X126215800Y-137484200D02*
X126343400Y-137816500D01*
X160049400Y-111569160D02*
X188194000Y-114314980D01*
X189211700Y-88729200D02*
X189345000Y-88596000D01*
X128842500Y-71607900D02*
X128498800Y-71700000D01*
X149917260Y-137978000D02*
X149749400Y-137892400D01*
X151707400Y-114877370D02*
X151853800Y-114995950D01*
X128391400Y-137789800D02*
X128245000Y-137671300D01*
X148788730Y-75307900D02*
X148759250Y-75121800D01*
X151205600Y-118045510D02*
X151023600Y-118094280D01*
X127990600Y-74033600D02*
X128093200Y-73875600D01*
X90281500Y-91578000D02*
X90105600Y-91645500D01*
X130905630Y-117391620D02*
X130787070Y-117538050D01*
X129923700Y-73172900D02*
X130105640Y-73221700D01*
X127759300Y-75121800D02*
X127749400Y-74933600D01*
X131210080Y-115959370D02*
X131239540Y-116145450D01*
X186788700Y-111307850D02*
X186759300Y-111121760D01*
X140237541Y-92223700D02*
X140049400Y-92233600D01*
X131161310Y-136889800D02*
X131093790Y-137065700D01*
X188788700Y-90307900D02*
X188759300Y-90121800D01*
X151381500Y-134689200D02*
X151549400Y-134774700D01*
X139493171Y-95721700D02*
X139675163Y-95672900D01*
X149749400Y-137892400D02*
X149591380Y-137789800D01*
X130905020Y-107665700D02*
X130837500Y-107489800D01*
X87749400Y-89933600D02*
X87759300Y-89745500D01*
X153176100Y-138708600D02*
X153400000Y-138432100D01*
X91193800Y-90665700D02*
X91108300Y-90833600D01*
X149093160Y-75991600D02*
X148990550Y-75833600D01*
X131093180Y-107991600D02*
X130990560Y-107833600D01*
X132923650Y-105172900D02*
X133105640Y-105221700D01*
X128549400Y-137892400D02*
X128391400Y-137789800D01*
X89905000Y-111665730D02*
X89837500Y-111489840D01*
X148859260Y-116521770D02*
X148849390Y-116333610D01*
X148105630Y-108645500D02*
X147923640Y-108694300D01*
X146993160Y-105221700D02*
X147175150Y-105172900D01*
X128649400Y-76492500D02*
X128491400Y-76389800D01*
X129361300Y-73143500D02*
X129549400Y-73133600D01*
X125176100Y-112458560D02*
X125400100Y-112735140D01*
X129637600Y-118123740D02*
X129449400Y-118133610D01*
X150649400Y-134533600D02*
X150837500Y-134543400D01*
X128111700Y-115129170D02*
X128245000Y-114995950D01*
X87759300Y-90121800D02*
X87749400Y-89933600D01*
X88443400Y-112316520D02*
X88604900Y-112633610D01*
X127805000Y-117065740D02*
X127737500Y-116889840D01*
X88993200Y-88221700D02*
X89175200Y-88172900D01*
X132361260Y-105143500D02*
X132549400Y-105133600D01*
X191607400Y-88477400D02*
X191753800Y-88596000D01*
X187211700Y-109729200D02*
X187345000Y-109596000D01*
X141387050Y-91638000D02*
X141253820Y-91771300D01*
X189817300Y-88289200D02*
X189993200Y-88221700D01*
X154068000Y-114378210D02*
X154123700Y-114026710D01*
X132361260Y-108723700D02*
X132175160Y-108694300D01*
X126343400Y-137816500D02*
X126504900Y-138133600D01*
X130600060Y-71700000D02*
X130256310Y-71607900D01*
M02*
