M48
; DRILL file {KiCad 7.0.8} date Mo 23 Okt 2023 18:46:19 CEST
; FORMAT={-:-/ absolute / metric / decimal}
; #@! TF.CreationDate,2023-10-23T18:46:19+02:00
; #@! TF.GenerationSoftware,Kicad,Pcbnew,7.0.8
; #@! TF.FileFunction,Plated,1,2,PTH
FMAT,2
METRIC
; #@! TA.AperFunction,Plated,PTH,ViaDrill
T1C0.300
; #@! TA.AperFunction,Plated,PTH,ComponentDrill
T2C1.100
%
G90
G05
T1
X116.1Y-91.5
X119.2Y-97.1
X131.5Y-128.3
X132.3Y-122.7
X140.3Y-137.3
X141.1Y-131.5
X141.3Y-122.8
X141.4Y-113.4
X144.2Y-128.2
X144.6Y-119.3
X149.6Y-128.3
X150.3Y-122.5
X166.7Y-91.2
X169.2Y-97.2
X178.3Y-97.6
X178.8Y-93.9
T2
X159.4Y-87.0
X164.2Y-87.0
X166.0Y-102.8
X169.0Y-87.0
X170.8Y-102.8
X175.6Y-102.8
T0
M30
