%TF.GenerationSoftware,KiCad,Pcbnew,7.0.8*%
%TF.CreationDate,2023-10-23T18:46:16+02:00*%
%TF.ProjectId,LED_Eyes2,4c45445f-4579-4657-9332-2e6b69636164,rev?*%
%TF.SameCoordinates,Original*%
%TF.FileFunction,Drillmap*%
%TF.FilePolarity,Positive*%
%FSLAX45Y45*%
G04 Gerber Fmt 4.5, Leading zero omitted, Abs format (unit mm)*
G04 Created by KiCad (PCBNEW 7.0.8) date 2023-10-23 18:46:16*
%MOMM*%
%LPD*%
G01*
G04 APERTURE LIST*
%ADD10C,0.100000*%
%ADD11C,0.200000*%
%ADD12C,0.030000*%
%ADD13C,0.110000*%
G04 APERTURE END LIST*
D10*
X12889320Y-13462170D02*
X12907520Y-13457290D01*
X14884939Y-11633361D02*
X14885926Y-11614545D01*
X14150562Y-8937560D02*
X14160824Y-8953360D01*
X18964940Y-8837480D02*
X18981730Y-8828920D01*
X18817510Y-11269427D02*
X18799320Y-11264551D01*
X12773750Y-13688980D02*
X12768870Y-13670780D01*
X14984249Y-7160790D02*
X14949874Y-7170000D01*
X13899140Y-8897740D02*
X13914941Y-8887480D01*
X14628298Y-8348430D02*
X14615545Y-8381650D01*
X14931005Y-10730790D02*
X14926130Y-10748980D01*
X14160824Y-9653360D02*
X14169378Y-9670150D01*
X15241010Y-13595940D02*
X15243950Y-13614540D01*
X19393080Y-8957820D02*
X19387510Y-8922670D01*
X12768870Y-11595937D02*
X12773750Y-11577738D01*
X13207610Y-7265860D02*
X13182445Y-7240690D01*
X18875930Y-8974550D02*
X18878870Y-8955940D01*
X13884498Y-9609600D02*
X13899140Y-9597740D01*
X15780480Y-11135224D02*
X16004940Y-11157670D01*
X15292440Y-13896030D02*
X15317610Y-13870860D01*
X14504786Y-8518430D02*
X14474940Y-8537810D01*
X9081730Y-10928920D02*
X9099320Y-10922170D01*
X15243950Y-11614545D02*
X15244940Y-11633361D01*
X14921174Y-7372920D02*
X14934496Y-7359600D01*
X13410825Y-10603360D02*
X13419379Y-10620150D01*
X14110740Y-9188980D02*
X14094939Y-9199250D01*
X13025631Y-7160790D02*
X12990480Y-7155220D01*
X14890501Y-7420150D02*
X14899055Y-7403360D01*
X12854940Y-11789245D02*
X12839140Y-11778983D01*
X14944495Y-11499595D02*
X14959138Y-11487737D01*
X15064940Y-13813360D02*
X15046120Y-13812370D01*
X14181005Y-9005940D02*
X14183953Y-9024550D01*
X13123954Y-13652180D02*
X13121008Y-13670780D01*
X19231010Y-8955940D02*
X19233950Y-8974550D01*
X12809320Y-7387560D02*
X12821180Y-7372920D01*
X15492270Y-11245856D02*
X15517440Y-11220692D01*
X9244940Y-11249245D02*
X9228150Y-11257799D01*
X9192370Y-10917290D02*
X9210560Y-10922170D01*
X8973760Y-9172370D02*
X8954940Y-9173360D01*
X13217516Y-10869430D02*
X13199317Y-10864550D01*
X12839140Y-11778983D02*
X12824500Y-11767127D01*
X13825927Y-9062180D02*
X13824941Y-9043360D01*
X13050742Y-11487737D02*
X13065385Y-11499595D01*
X14909316Y-7387560D02*
X14921174Y-7372920D01*
X14933953Y-10674550D02*
X14934939Y-10693360D01*
X19130010Y-11293207D02*
X19149390Y-11263361D01*
X9136130Y-11272375D02*
X9117520Y-11269427D01*
X19254790Y-8718290D02*
X19224940Y-8698910D01*
X13121008Y-13670780D02*
X13116131Y-13688980D01*
X14900501Y-13560150D02*
X14909055Y-13543360D01*
X12963760Y-11454346D02*
X12982360Y-11457294D01*
X15054940Y-7673360D02*
X15036120Y-7672370D01*
X19019380Y-11020150D02*
X19026130Y-11037740D01*
X8616800Y-9028900D02*
X8816800Y-11128901D01*
X12692270Y-13870860D02*
X12717440Y-13896030D01*
X9275380Y-10959600D02*
X9288710Y-10972920D01*
X19307610Y-8765860D02*
X19282440Y-8740690D01*
X12773750Y-11688984D02*
X12768870Y-11670785D01*
X13833750Y-8987740D02*
X13840502Y-8970150D01*
X14183953Y-9762180D02*
X14181005Y-9780790D01*
X12917520Y-7317290D02*
X12936130Y-7314350D01*
X13433955Y-10712180D02*
X13431007Y-10730790D01*
X13018154Y-13797800D02*
X13000560Y-13804550D01*
X8978870Y-11130785D02*
X8975930Y-11112176D01*
X13849056Y-9833360D02*
X13840502Y-9816570D01*
X14875925Y-7512180D02*
X14874940Y-7493360D01*
X9154940Y-11433361D02*
X9190480Y-11431498D01*
X14681727Y-10857800D02*
X14664939Y-10849250D01*
X8631580Y-8888300D02*
X8622370Y-8922670D01*
X15175380Y-7359600D02*
X15188700Y-7372920D01*
X8614940Y-8993360D02*
X8616800Y-9028900D01*
X13914941Y-9199250D02*
X13899140Y-9188980D01*
X19026130Y-11148984D02*
X19019380Y-11166573D01*
X15244940Y-13633360D02*
X15243950Y-13652180D01*
X9021180Y-11213804D02*
X9009320Y-11199161D01*
X12774940Y-7493360D02*
X12775930Y-7474550D01*
X14900501Y-11560148D02*
X14909055Y-11543360D01*
X18709320Y-10987560D02*
X18721170Y-10972920D01*
X18910560Y-10922170D02*
X18928150Y-10928920D01*
X12717440Y-13896030D02*
X12745100Y-13918430D01*
X15064940Y-11453361D02*
X15083750Y-11454346D01*
X14634496Y-10827130D02*
X14621174Y-10813800D01*
X19193080Y-11128901D02*
X19393080Y-9028900D01*
X12992370Y-7669430D02*
X12973760Y-7672370D01*
X8999060Y-11183361D02*
X8990500Y-11166573D01*
X12764940Y-13633360D02*
X12765930Y-13614540D01*
X14699316Y-10864550D02*
X14681727Y-10857800D01*
X14934939Y-10693360D02*
X14933953Y-10712180D01*
X13967516Y-9219430D02*
X13949317Y-9214550D01*
X13278300Y-7388300D02*
X13265546Y-7355070D01*
X8849140Y-8847740D02*
X8864940Y-8837480D01*
X13199317Y-10522170D02*
X13217516Y-10517290D01*
X15170000Y-13966720D02*
X15203230Y-13953960D01*
X19054940Y-8813360D02*
X19073750Y-8814350D01*
X8784940Y-8698910D02*
X8755090Y-8718290D01*
X8879870Y-11293207D02*
X8902270Y-11320865D01*
X12973760Y-7314350D02*
X12992370Y-7317290D01*
X18899050Y-9083360D02*
X18890500Y-9066570D01*
X13828875Y-9080790D02*
X13825927Y-9062180D01*
X13426131Y-10748980D02*
X13419379Y-10766570D01*
X18944940Y-11249245D02*
X18928150Y-11257799D01*
X13884498Y-8909600D02*
X13899140Y-8897740D01*
X15125630Y-7160790D02*
X15090480Y-7155220D01*
X13116131Y-13577740D02*
X13121008Y-13595940D01*
X9136130Y-10914350D02*
X9154940Y-10913360D01*
X14926130Y-10748980D02*
X14919378Y-10766570D01*
X9134940Y-8993360D02*
X9133950Y-9012180D01*
X9034500Y-10959600D02*
X9049140Y-10947740D01*
X19387510Y-8922670D02*
X19378300Y-8888300D01*
X15170740Y-11778983D02*
X15154940Y-11789245D01*
X18699050Y-11003360D02*
X18709320Y-10987560D01*
X18949140Y-9138980D02*
X18934500Y-9127130D01*
X12559390Y-11303361D02*
X12575550Y-11335070D01*
X12765930Y-11652177D02*
X12764940Y-11633361D01*
X12264940Y-11133361D02*
X12300480Y-11135224D01*
X15231010Y-7455940D02*
X15233950Y-7474550D01*
X14094939Y-9899250D02*
X14078152Y-9907800D01*
X14949139Y-7347740D02*
X14964939Y-7337480D01*
X15046120Y-13812370D02*
X15027520Y-13809430D01*
X13000560Y-13804550D02*
X12982360Y-13809430D01*
X13344941Y-10849250D02*
X13328153Y-10857800D01*
X15102360Y-11457294D02*
X15120560Y-11462171D01*
X12854940Y-13477470D02*
X12871730Y-13468920D01*
X18960000Y-11416720D02*
X18993230Y-11403966D01*
X14991726Y-11468923D02*
X15009320Y-11462171D01*
X14042364Y-9919430D02*
X14023754Y-9922370D01*
X12588300Y-11368294D02*
X12597510Y-11402671D01*
X14779873Y-7293510D02*
X14760491Y-7323360D01*
X15229380Y-11706574D02*
X15220820Y-11723360D01*
X14176130Y-8987740D02*
X14181005Y-9005940D01*
X13126131Y-7437740D02*
X13131007Y-7455940D01*
X14949139Y-7638980D02*
X14934496Y-7627130D01*
X9075380Y-9127130D02*
X9060740Y-9138980D01*
X19188700Y-9113800D02*
X19175380Y-9127130D01*
X18874940Y-8993360D02*
X18875930Y-8974550D01*
X8799060Y-9083360D02*
X8790500Y-9066570D01*
X13110825Y-7583360D02*
X13100564Y-7599160D01*
X14181005Y-9780790D02*
X14176130Y-9798980D01*
X14773754Y-10872370D02*
X14754940Y-10873360D01*
X12597510Y-11402671D02*
X12603080Y-11437821D01*
X9075380Y-8859600D02*
X9088710Y-8872920D01*
X13010564Y-7322170D02*
X13028153Y-7328920D01*
X13419379Y-10620150D02*
X13426131Y-10637740D01*
X8727440Y-8740690D02*
X8702270Y-8765860D01*
X12604940Y-11473360D02*
X12604940Y-13643360D01*
X14060563Y-9572170D02*
X14078152Y-9578920D01*
X14183953Y-9024550D02*
X14184939Y-9043360D01*
X13018154Y-11797799D02*
X13000560Y-11804551D01*
X13249389Y-7323360D02*
X13230007Y-7293510D01*
X18910560Y-11264551D02*
X18892360Y-11269427D01*
X12799320Y-13739160D02*
X12789060Y-13723360D01*
X13154787Y-7218290D02*
X13124941Y-7198910D01*
X13050742Y-13778980D02*
X13034940Y-13789240D01*
X13986126Y-9922370D02*
X13967516Y-9919430D01*
X14959138Y-11778983D02*
X14944495Y-11767127D01*
X14184939Y-9743360D02*
X14183953Y-9762180D01*
X13833750Y-9098980D02*
X13828875Y-9080790D01*
X14042364Y-8867290D02*
X14060563Y-8872170D01*
X8821180Y-9113800D02*
X8809320Y-9099160D01*
X12982360Y-13457290D02*
X13000560Y-13462170D01*
X8616800Y-8957820D02*
X8614940Y-8993360D01*
X18960740Y-11238984D02*
X18944940Y-11249245D01*
X9310830Y-11003360D02*
X9319380Y-11020150D01*
X19033950Y-11112176D02*
X19031010Y-11130785D01*
X15517440Y-11220692D02*
X15545090Y-11198295D01*
X18921170Y-9113800D02*
X18909320Y-9099160D01*
X14160824Y-9833360D02*
X14150562Y-9849160D01*
X14304940Y-8583360D02*
X13704940Y-8583360D01*
X12774940Y-13937810D02*
X12806650Y-13953960D01*
X18949140Y-8847740D02*
X18964940Y-8837480D01*
X14949874Y-7170000D02*
X14916648Y-7182760D01*
X12907520Y-13457290D02*
X12926130Y-13454340D01*
X18799320Y-10922170D02*
X18817510Y-10917290D01*
X14023754Y-9922370D02*
X14004940Y-9923360D01*
X15210560Y-13739160D02*
X15198710Y-13753800D01*
X18709320Y-11199161D02*
X18699050Y-11183361D01*
X14999316Y-7664550D02*
X14981727Y-7657800D01*
X15144940Y-7337480D02*
X15160740Y-7347740D01*
X14981727Y-7657800D02*
X14964939Y-7649250D01*
X15226130Y-7437740D02*
X15231010Y-7455940D01*
X14934496Y-7359600D02*
X14949139Y-7347740D01*
X13075927Y-10712180D02*
X13074941Y-10693360D01*
X13949317Y-9214550D02*
X13931728Y-9207800D01*
X9049140Y-11238984D02*
X9034500Y-11227126D01*
X13388706Y-10572920D02*
X13400564Y-10587560D01*
X18781730Y-11257799D02*
X18764940Y-11249245D01*
X12824500Y-11499595D02*
X12839140Y-11487737D01*
X9117520Y-11269427D02*
X9099320Y-11264551D01*
X13344941Y-10537480D02*
X13360741Y-10547740D01*
X8954940Y-8813360D02*
X8973760Y-8814350D01*
X14681727Y-10528920D02*
X14699316Y-10522170D01*
X14893749Y-13688980D02*
X14888872Y-13670780D01*
X15198710Y-13512920D02*
X15210560Y-13527560D01*
X13287511Y-7422670D02*
X13278300Y-7388300D01*
X14181005Y-9705940D02*
X14183953Y-9724550D01*
X13099056Y-10603360D02*
X13109318Y-10587560D01*
X15231010Y-7530790D02*
X15226130Y-7548980D01*
X14736124Y-10514350D02*
X14754940Y-10513360D01*
X13181728Y-10528920D02*
X13199317Y-10522170D01*
X13505094Y-8518430D02*
X13477436Y-8496030D01*
X15200560Y-7387560D02*
X15210820Y-7403360D01*
X9099320Y-10922170D02*
X9117520Y-10917290D01*
X12370010Y-11150002D02*
X12403230Y-11162755D01*
X18675930Y-11074546D02*
X18678870Y-11055936D01*
X19160740Y-9138980D02*
X19144940Y-9149250D01*
X13431007Y-10655940D02*
X13433955Y-10674550D01*
X14060563Y-9214550D02*
X14042364Y-9219430D01*
X18734500Y-10959600D02*
X18749140Y-10947740D01*
X15236130Y-11577738D02*
X15241010Y-11595937D01*
X19210820Y-8903360D02*
X19219380Y-8920150D01*
X14717515Y-10869430D02*
X14699316Y-10864550D01*
X13410493Y-8413360D02*
X13394335Y-8381650D01*
X18674940Y-11093360D02*
X18675930Y-11074546D01*
X18988700Y-10972920D02*
X19000560Y-10987560D01*
X12606800Y-13678900D02*
X12612370Y-13714050D01*
X13181728Y-10857800D02*
X13164941Y-10849250D01*
X13131007Y-7455940D02*
X13133955Y-7474550D01*
X14828152Y-10528920D02*
X14844939Y-10537480D01*
X12963760Y-13812370D02*
X12944940Y-13813360D01*
X13400564Y-10587560D02*
X13410825Y-10603360D01*
X15138150Y-11468923D02*
X15154940Y-11477476D01*
X19187510Y-11164051D02*
X19193080Y-11128901D01*
X15160740Y-7638980D02*
X15144940Y-7649250D01*
X15359390Y-13813360D02*
X15375540Y-13781650D01*
X13099056Y-10783360D02*
X13090502Y-10766570D01*
X14931173Y-13512920D02*
X14944495Y-13499590D01*
X13100564Y-7387560D02*
X13110825Y-7403360D01*
X13859318Y-8937560D02*
X13871175Y-8922920D01*
X15229380Y-11560148D02*
X15236130Y-11577738D01*
X18944940Y-10937480D02*
X18960740Y-10947740D01*
X18675930Y-11112176D02*
X18674940Y-11093360D01*
X15009320Y-11462171D02*
X15027520Y-11457294D01*
X9300560Y-11199161D02*
X9288710Y-11213804D01*
X15744940Y-11133361D02*
X15780480Y-11135224D01*
X19031010Y-11130785D02*
X19026130Y-11148984D01*
X14828152Y-10857800D02*
X14810563Y-10864550D01*
X19026130Y-11037740D02*
X19031010Y-11055936D01*
X15220820Y-13543360D02*
X15229380Y-13560150D01*
X15236130Y-13688980D02*
X15229380Y-13706570D01*
X13100564Y-7599160D02*
X13088706Y-7613800D01*
X19000560Y-11199161D02*
X18988700Y-11213804D01*
X15219380Y-7566570D02*
X15210820Y-7583360D01*
X19210820Y-9083360D02*
X19200560Y-9099160D01*
X9331010Y-11055936D02*
X9333950Y-11074546D01*
X18878870Y-8955940D02*
X18883750Y-8937740D01*
X15403080Y-13678900D02*
X15404940Y-13643360D01*
X12834500Y-7359600D02*
X12849140Y-7347740D01*
X19233950Y-8974550D02*
X19234940Y-8993360D01*
X15036120Y-7314350D02*
X15054940Y-7313360D01*
X13182445Y-7240690D02*
X13154787Y-7218290D01*
X15233950Y-7474550D02*
X15234940Y-7493360D01*
X15434330Y-11335070D02*
X15450490Y-11303361D01*
X14176130Y-9098980D02*
X14169378Y-9116570D01*
X18899050Y-8903360D02*
X18909320Y-8887560D01*
X14443230Y-8553970D02*
X14410004Y-8566720D01*
X14599055Y-10783360D02*
X14590501Y-10766570D01*
X15083750Y-11454346D02*
X15102360Y-11457294D01*
X9119400Y-11431498D02*
X9154940Y-11433361D01*
X9228150Y-11257799D02*
X9210560Y-11264551D01*
X14169378Y-9816570D02*
X14160824Y-9833360D01*
X14094939Y-9587480D02*
X14110740Y-9597740D01*
X12821180Y-7372920D02*
X12834500Y-7359600D01*
X9044940Y-8837480D02*
X9060740Y-8847740D01*
X9099320Y-11264551D02*
X9081730Y-11257799D01*
X14959138Y-11487737D02*
X14974940Y-11477476D01*
X13126131Y-7548980D02*
X13119379Y-7566570D01*
X9210560Y-11264551D02*
X9192370Y-11269427D01*
X13429874Y-8443210D02*
X13410493Y-8413360D01*
X12926130Y-13454340D02*
X12944940Y-13453360D01*
X13065385Y-11499595D02*
X13078707Y-11512917D01*
X19128150Y-9157800D02*
X19110560Y-9164550D01*
X15200560Y-7599160D02*
X15188700Y-7613800D01*
X13388706Y-10813800D02*
X13375384Y-10827130D01*
X9133950Y-9012180D02*
X9131010Y-9030790D01*
X15210560Y-11527560D02*
X15220820Y-11543360D01*
X12871730Y-13468920D02*
X12889320Y-13462170D01*
X9060740Y-9138980D02*
X9044940Y-9149250D01*
X19031010Y-11055936D02*
X19033950Y-11074546D01*
X14583749Y-10637740D02*
X14590501Y-10620150D01*
X9288710Y-10972920D02*
X9300560Y-10987560D01*
X12849140Y-7638980D02*
X12834500Y-7627130D01*
X13273756Y-10514350D02*
X13292365Y-10517290D01*
X13452271Y-8470870D02*
X13429874Y-8443210D01*
X15234940Y-13937810D02*
X15264780Y-13918430D01*
X13044941Y-7337480D02*
X13060741Y-7347740D01*
X13100825Y-13723360D02*
X13090563Y-13739160D01*
X8778870Y-9030790D02*
X8775930Y-9012180D01*
X14991726Y-13468920D02*
X15009320Y-13462170D01*
X12944940Y-13813360D02*
X12926130Y-13812370D01*
X13124941Y-11633361D02*
X13123954Y-11652177D01*
X19234940Y-8993360D02*
X19233950Y-9012180D01*
X14169378Y-8970150D02*
X14176130Y-8987740D01*
X12839140Y-13487740D02*
X12854940Y-13477470D01*
X8778870Y-8955940D02*
X8783750Y-8937740D01*
X13060741Y-7347740D02*
X13075384Y-7359600D01*
X13110825Y-7403360D02*
X13119379Y-7420150D01*
X19019380Y-11166573D02*
X19010820Y-11183361D01*
X15138150Y-11797799D02*
X15120560Y-11804551D01*
X13431007Y-10730790D02*
X13426131Y-10748980D01*
X12335630Y-11140790D02*
X12370010Y-11150002D01*
X15120560Y-11462171D02*
X15138150Y-11468923D01*
X9326130Y-11037740D02*
X9331010Y-11055936D01*
X14744334Y-7355070D02*
X14731580Y-7388300D01*
X12612370Y-13714050D02*
X12621580Y-13748420D01*
X8679870Y-8793510D02*
X8660490Y-8823360D01*
X13825927Y-9724550D02*
X13828875Y-9705940D01*
X13083750Y-10637740D02*
X13090502Y-10620150D01*
X15243950Y-13652180D02*
X15241010Y-13670780D01*
X14169378Y-9670150D02*
X14176130Y-9687740D01*
X19178300Y-11198426D02*
X19187510Y-11164051D01*
X12936130Y-7672370D02*
X12917520Y-7669430D01*
X15185380Y-13767130D02*
X15170740Y-13778980D01*
X19073750Y-9172370D02*
X19054940Y-9173360D01*
X13123954Y-11652177D02*
X13121008Y-11670785D01*
X13018154Y-11468923D02*
X13034940Y-11477476D01*
X13884498Y-9877130D02*
X13871175Y-9863800D01*
X13871175Y-9622920D02*
X13884498Y-9609600D01*
X13109379Y-13706570D02*
X13100825Y-13723360D01*
X13078707Y-13753800D02*
X13065385Y-13767130D01*
X14160824Y-8953360D02*
X14169378Y-8970150D01*
X13060741Y-7638980D02*
X13044941Y-7649250D01*
X18909320Y-8887560D02*
X18921170Y-8872920D01*
X13065385Y-13499590D02*
X13078707Y-13512920D01*
X8975930Y-11112176D02*
X8974940Y-11093360D01*
X18854940Y-11273360D02*
X18836120Y-11272375D01*
X12854940Y-11477476D02*
X12871730Y-11468923D01*
X13078707Y-11512917D02*
X13090563Y-11527560D01*
X15469870Y-11273514D02*
X15492270Y-11245856D01*
X19365540Y-8855070D02*
X19349390Y-8823360D01*
X12464790Y-11198295D02*
X12492440Y-11220692D01*
X9331010Y-11130785D02*
X9326130Y-11148984D01*
X13074941Y-10693360D02*
X13075927Y-10674550D01*
X12789060Y-11723360D02*
X12780500Y-11706574D01*
X12982360Y-11457294D02*
X13000560Y-11462171D01*
X15154940Y-13789240D02*
X15138150Y-13797800D01*
X15412370Y-11402671D02*
X15421580Y-11368294D01*
X14919378Y-10766570D02*
X14910824Y-10783360D01*
X12783750Y-7548980D02*
X12778870Y-7530790D01*
X9016650Y-11403966D02*
X9049880Y-11416720D01*
X14621174Y-10572920D02*
X14634496Y-10559600D01*
X13375384Y-10827130D02*
X13360741Y-10838980D01*
X12889320Y-11804551D02*
X12871730Y-11797799D01*
X15054940Y-7313360D02*
X15073750Y-7314350D01*
X8834500Y-8859600D02*
X8849140Y-8847740D01*
X8809320Y-8887560D02*
X8821180Y-8872920D01*
X15674250Y-11140790D02*
X15709400Y-11135224D01*
X15241010Y-11595937D02*
X15243950Y-11614545D01*
X18892360Y-10917290D02*
X18910560Y-10922170D01*
X13310564Y-10522170D02*
X13328153Y-10528920D01*
X14574940Y-10693360D02*
X14575925Y-10674550D01*
X18799320Y-11264551D02*
X18781730Y-11257799D01*
X13109379Y-11706574D02*
X13100825Y-11723360D01*
X14959138Y-13778980D02*
X14944495Y-13767130D01*
X9034500Y-11227126D02*
X9021180Y-11213804D01*
X13265546Y-7355070D02*
X13249389Y-7323360D01*
X14885926Y-13614540D02*
X14888872Y-13595940D01*
X14125382Y-9609600D02*
X14138705Y-9622920D01*
X15064940Y-11813361D02*
X15046120Y-11812374D01*
X8902270Y-11320865D02*
X8927440Y-11346030D01*
X14634496Y-10559600D02*
X14649139Y-10547740D01*
X14599055Y-10603360D02*
X14609316Y-10587560D01*
X14773754Y-10514350D02*
X14792364Y-10517290D01*
X9028150Y-8828920D02*
X9044940Y-8837480D01*
X14909055Y-13543360D02*
X14919317Y-13527560D01*
X15175380Y-7627130D02*
X15160740Y-7638980D01*
X15198710Y-13753800D02*
X15185380Y-13767130D01*
X12944940Y-11813361D02*
X12926130Y-11812374D01*
X13828875Y-9005940D02*
X13833750Y-8987740D01*
X12824500Y-13767130D02*
X12811170Y-13753800D01*
X9049880Y-11416720D02*
X9084250Y-11425931D01*
X13065385Y-13767130D02*
X13050742Y-13778980D01*
X18764940Y-11249245D02*
X18749140Y-11238984D01*
X8936130Y-8814350D02*
X8954940Y-8813360D01*
X8816650Y-8682760D02*
X8784940Y-8698910D01*
X12907520Y-11457294D02*
X12926130Y-11454346D01*
X13849056Y-9133360D02*
X13840502Y-9116570D01*
X15102360Y-11809428D02*
X15083750Y-11812374D01*
X8755090Y-8718290D02*
X8727440Y-8740690D01*
X14919317Y-11527560D02*
X14931173Y-11512917D01*
X18819400Y-11431498D02*
X18854940Y-11433361D01*
X14919378Y-10620150D02*
X14926130Y-10637740D01*
X14474940Y-8537810D02*
X14443230Y-8553970D01*
X12881730Y-7657800D02*
X12864940Y-7649250D01*
X13477436Y-8496030D02*
X13452271Y-8470870D01*
X14138705Y-9622920D02*
X14150562Y-9637560D01*
X15128150Y-7328920D02*
X15144940Y-7337480D01*
X19219380Y-8920150D02*
X19226130Y-8937740D01*
X14919317Y-11739162D02*
X14909055Y-11723360D01*
X14933953Y-10712180D02*
X14931005Y-10730790D01*
X13199317Y-10864550D02*
X13181728Y-10857800D01*
X13116131Y-11688984D02*
X13109379Y-11706574D01*
X13931728Y-8878920D02*
X13949317Y-8872170D01*
X12954940Y-7313360D02*
X12973760Y-7314350D01*
X13093232Y-7182760D02*
X13060006Y-7170000D01*
X13400564Y-10799160D02*
X13388706Y-10813800D01*
X13328153Y-10528920D02*
X13344941Y-10537480D01*
X13065385Y-11767127D02*
X13050742Y-11778983D01*
X9319380Y-11020150D02*
X9326130Y-11037740D01*
X19017510Y-8817290D02*
X19036120Y-8814350D01*
X15135630Y-13975930D02*
X15170000Y-13966720D01*
X15170740Y-13778980D02*
X15154940Y-13789240D01*
X8622370Y-8922670D02*
X8616800Y-8957820D01*
X19092360Y-8817290D02*
X19110560Y-8822170D01*
X14981727Y-7328920D02*
X14999316Y-7322170D01*
X12403230Y-11162755D02*
X12434940Y-11178911D01*
X19175380Y-8859600D02*
X19188700Y-8872920D01*
X13121008Y-11670785D02*
X13116131Y-11688984D01*
X14125382Y-9877130D02*
X14110740Y-9888980D01*
X13100825Y-13543360D02*
X13109379Y-13560150D01*
X18934500Y-9127130D02*
X18921170Y-9113800D01*
X8978870Y-11055936D02*
X8983750Y-11037740D01*
X13000560Y-13462170D02*
X13018154Y-13468920D01*
X14875382Y-10827130D02*
X14860740Y-10838980D01*
X18854940Y-10913360D02*
X18873750Y-10914350D01*
X8816800Y-11128901D02*
X8822370Y-11164051D01*
X12899320Y-7664550D02*
X12881730Y-7657800D01*
X15226130Y-7548980D02*
X15219380Y-7566570D01*
X14023754Y-9564350D02*
X14042364Y-9567290D01*
X18883750Y-8937740D02*
X18890500Y-8920150D01*
X13124941Y-13633360D02*
X13123954Y-13652180D01*
X18960740Y-10947740D02*
X18975380Y-10959600D01*
X15241010Y-11670785D02*
X15236130Y-11688984D01*
X18975380Y-11227126D02*
X18960740Y-11238984D01*
X9110830Y-9083360D02*
X9100560Y-9099160D01*
X8790500Y-8920150D02*
X8799060Y-8903360D01*
X12789060Y-13723360D02*
X12780500Y-13706570D01*
X14125382Y-9177130D02*
X14110740Y-9188980D01*
X15236130Y-13577740D02*
X15241010Y-13595940D01*
X15090480Y-7155220D02*
X15054940Y-7153360D01*
X13123954Y-13614540D02*
X13124941Y-13633360D01*
X13426131Y-10637740D02*
X13431007Y-10655940D01*
X8999060Y-11003360D02*
X9009320Y-10987560D01*
X13949317Y-9914550D02*
X13931728Y-9907800D01*
X14888872Y-11595937D02*
X14893749Y-11577738D01*
X8849880Y-8670000D02*
X8816650Y-8682760D01*
X8809320Y-9099160D02*
X8799060Y-9083360D01*
X13254940Y-10513360D02*
X13273756Y-10514350D01*
X13217516Y-10517290D02*
X13236126Y-10514350D01*
X14792364Y-10517290D02*
X14810563Y-10522170D01*
X14590501Y-10766570D02*
X14583749Y-10748980D01*
X15120560Y-13804550D02*
X15102360Y-13809430D01*
X18836120Y-11272375D02*
X18817510Y-11269427D01*
X15210560Y-11739162D02*
X15198710Y-11753805D01*
X14169378Y-9116570D02*
X14160824Y-9133360D01*
X18890480Y-11431498D02*
X18925630Y-11425931D01*
X13149140Y-10838980D02*
X13134498Y-10827130D01*
X13824941Y-9043360D02*
X13825927Y-9024550D01*
X13078875Y-10655940D02*
X13083750Y-10637740D01*
X15009320Y-13804550D02*
X14991726Y-13797800D01*
X15009320Y-13462170D02*
X15027520Y-13457290D01*
X12871730Y-11797799D02*
X12854940Y-11789245D01*
X14736124Y-10872370D02*
X14717515Y-10869430D01*
X13088706Y-7613800D02*
X13075384Y-7627130D01*
X14916648Y-7182760D02*
X14884939Y-7198910D01*
X12004940Y-11156916D02*
X12004940Y-11157670D01*
X15375540Y-13781650D02*
X15388300Y-13748420D01*
X12773750Y-11577738D02*
X12780500Y-11560148D01*
X14532444Y-8496030D02*
X14504786Y-8518430D01*
X12811170Y-13753800D02*
X12799320Y-13739160D01*
X12773750Y-13577740D02*
X12780500Y-13560150D01*
X14580006Y-8443210D02*
X14557609Y-8470870D01*
X14944495Y-13767130D02*
X14931173Y-13753800D01*
X19017510Y-9169430D02*
X18999320Y-9164550D01*
X14888872Y-13670780D02*
X14885926Y-13652180D01*
X8917520Y-8817290D02*
X8936130Y-8814350D01*
X12944940Y-13983360D02*
X15064940Y-13983360D01*
X8864940Y-8837480D02*
X8881730Y-8828920D01*
X14792364Y-10869430D02*
X14773754Y-10872370D01*
X13840502Y-9670150D02*
X13849056Y-9653360D01*
X13931728Y-9907800D02*
X13914941Y-9899250D01*
X19000560Y-10987560D02*
X19010820Y-11003360D01*
X14900562Y-10587560D02*
X14910824Y-10603360D01*
X12907520Y-11809428D02*
X12889320Y-11804551D01*
X13825927Y-9762180D02*
X13824941Y-9743360D01*
X13075384Y-7627130D02*
X13060741Y-7638980D01*
X14183953Y-9724550D02*
X14184939Y-9743360D01*
X18890500Y-9066570D02*
X18883750Y-9048980D01*
X19110560Y-9164550D02*
X19092360Y-9169430D01*
X14717515Y-10517290D02*
X14736124Y-10514350D01*
X8899320Y-9164550D02*
X8881730Y-9157800D01*
X12765930Y-13652180D02*
X12764940Y-13633360D01*
X15229380Y-13706570D02*
X15220820Y-13723360D01*
X12926130Y-11812374D02*
X12907520Y-11809428D01*
X13109318Y-10587560D02*
X13121175Y-10572920D01*
X13134498Y-10827130D02*
X13121175Y-10813800D01*
X19036120Y-8814350D02*
X19054940Y-8813360D01*
X15450490Y-11303361D02*
X15469870Y-11273514D01*
X15154940Y-11477476D02*
X15170740Y-11487737D01*
X13914941Y-8887480D02*
X13931728Y-8878920D01*
X14900501Y-13706570D02*
X14893749Y-13688980D01*
X14004940Y-9563360D02*
X14023754Y-9564350D01*
X19349390Y-8823360D02*
X19330010Y-8793510D01*
X13078875Y-10730790D02*
X13075927Y-10712180D01*
X14138705Y-9863800D02*
X14125382Y-9877130D01*
X14649139Y-10547740D02*
X14664939Y-10537480D01*
X19036120Y-9172370D02*
X19017510Y-9169430D01*
X15046120Y-11812374D02*
X15027520Y-11809428D01*
X14150562Y-9637560D02*
X14160824Y-9653360D01*
X14575925Y-10674550D02*
X14578873Y-10655940D01*
X9300560Y-10987560D02*
X9310830Y-11003360D01*
X14909055Y-11723360D02*
X14900501Y-11706574D01*
X18975380Y-10959600D02*
X18988700Y-10972920D01*
X14884939Y-7198910D02*
X14855093Y-7218290D01*
X9333950Y-11074546D02*
X9334940Y-11093360D01*
X13100825Y-11543360D02*
X13109379Y-11560148D01*
X13083750Y-10748980D02*
X13078875Y-10730790D01*
X18999320Y-8822170D02*
X19017510Y-8817290D01*
X9288710Y-11213804D02*
X9275380Y-11227126D01*
X15574940Y-11178911D02*
X15606650Y-11162755D01*
X19092360Y-9169430D02*
X19073750Y-9172370D01*
X15210820Y-7403360D02*
X15219380Y-7420150D01*
X12834500Y-7627130D02*
X12821180Y-7613800D01*
X18928150Y-10928920D02*
X18944940Y-10937480D01*
X13090563Y-13739160D02*
X13078707Y-13753800D01*
X13293078Y-7457820D02*
X13287511Y-7422670D01*
X14888872Y-11670785D02*
X14885926Y-11652177D01*
X12839140Y-11487737D02*
X12854940Y-11477476D01*
X13634251Y-8575930D02*
X13599876Y-8566720D01*
X9190480Y-11431498D02*
X12004940Y-11156916D01*
X13124941Y-7198910D02*
X13093232Y-7182760D01*
X14731580Y-7388300D02*
X14722369Y-7422670D01*
X13028153Y-7328920D02*
X13044941Y-7337480D01*
X14890501Y-7566570D02*
X14883749Y-7548980D01*
X14875382Y-10559600D02*
X14888705Y-10572920D01*
X13123954Y-11614545D02*
X13124941Y-11633361D01*
X13840502Y-9816570D02*
X13833750Y-9798980D01*
X14860740Y-10838980D02*
X14844939Y-10849250D01*
X13833750Y-9687740D02*
X13840502Y-9670150D01*
X13360741Y-10838980D02*
X13344941Y-10849250D01*
X9244940Y-10937480D02*
X9260740Y-10947740D01*
X15027520Y-13457290D02*
X15046120Y-13454340D01*
X15027520Y-13809430D02*
X15009320Y-13804550D01*
X13884498Y-9177130D02*
X13871175Y-9163800D01*
X13075927Y-10674550D02*
X13078875Y-10655940D01*
X14609316Y-10799160D02*
X14599055Y-10783360D01*
X14888705Y-10813800D02*
X14875382Y-10827130D01*
X12811170Y-13512920D02*
X12824500Y-13499590D01*
X13914941Y-9587480D02*
X13931728Y-9578920D01*
X9119380Y-8920150D02*
X9126130Y-8937740D01*
X14023754Y-8864350D02*
X14042364Y-8867290D01*
X8954940Y-9173360D02*
X8936130Y-9172370D01*
X18892360Y-11269427D02*
X18873750Y-11272375D01*
X14810563Y-10522170D02*
X14828152Y-10528920D01*
X14888872Y-13595940D02*
X14893749Y-13577740D01*
X14176130Y-9687740D02*
X14181005Y-9705940D01*
X13949317Y-8872170D02*
X13967516Y-8867290D01*
X13828875Y-9780790D02*
X13825927Y-9762180D01*
X14931173Y-13753800D02*
X14919317Y-13739160D01*
X9228150Y-10928920D02*
X9244940Y-10937480D01*
X15092360Y-7669430D02*
X15073750Y-7672370D01*
X14160824Y-9133360D02*
X14150562Y-9149160D01*
X15083750Y-13812370D02*
X15064940Y-13813360D01*
X15397510Y-13714050D02*
X15403080Y-13678900D01*
X8822370Y-11164051D02*
X8831580Y-11198426D01*
X14557609Y-8470870D02*
X14532444Y-8496030D01*
X12300480Y-11135224D02*
X12335630Y-11140790D01*
X14926130Y-10637740D02*
X14931005Y-10655940D01*
X13100825Y-11723360D02*
X13090563Y-11739162D01*
X12780500Y-11560148D02*
X12789060Y-11543360D01*
X14181005Y-9080790D02*
X14176130Y-9098980D01*
X12492440Y-11220692D02*
X12517610Y-11245856D01*
X15083750Y-11812374D02*
X15064940Y-11813361D01*
X15203230Y-13953960D02*
X15234940Y-13937810D01*
X8992370Y-9169430D02*
X8973760Y-9172370D01*
X14138705Y-8922920D02*
X14150562Y-8937560D01*
X13310564Y-10864550D02*
X13292365Y-10869430D01*
X12669880Y-13843210D02*
X12692270Y-13870860D01*
X18873750Y-10914350D02*
X18892360Y-10917290D01*
X9154940Y-10913360D02*
X9173760Y-10914350D01*
X14909055Y-13723360D02*
X14900501Y-13706570D01*
X19282440Y-8740690D02*
X19254790Y-8718290D01*
X9260740Y-10947740D02*
X9275380Y-10959600D01*
X19149390Y-11263361D02*
X19165540Y-11231652D01*
X14004940Y-9223360D02*
X13986126Y-9222370D01*
X18683750Y-11037740D02*
X18690500Y-11020150D01*
X12871730Y-13797800D02*
X12854940Y-13789240D01*
X14883749Y-7437740D02*
X14890501Y-7420150D01*
X13018154Y-13468920D02*
X13034940Y-13477470D01*
X12982360Y-11809428D02*
X12963760Y-11812374D01*
X13849056Y-8953360D02*
X13859318Y-8937560D01*
X14078152Y-9907800D02*
X14060563Y-9914550D01*
X12944940Y-13453360D02*
X12963760Y-13454340D01*
X14893749Y-13577740D02*
X14900501Y-13560150D01*
X12780500Y-13706570D02*
X12773750Y-13688980D01*
X18883750Y-9048980D02*
X18878870Y-9030790D01*
X15036120Y-7672370D02*
X15017510Y-7669430D01*
X15017510Y-7669430D02*
X14999316Y-7664550D01*
X8983750Y-11148984D02*
X8978870Y-11130785D01*
X8834500Y-9127130D02*
X8821180Y-9113800D01*
X15102360Y-13809430D02*
X15083750Y-13812370D01*
X12899320Y-7322170D02*
X12917520Y-7317290D01*
X12768870Y-13670780D02*
X12765930Y-13652180D01*
X14931173Y-11512917D02*
X14944495Y-11499595D01*
X15170740Y-13487740D02*
X15185380Y-13499590D01*
X15421580Y-11368294D02*
X15434330Y-11335070D01*
X13164941Y-10537480D02*
X13181728Y-10528920D01*
X15243950Y-11652177D02*
X15241010Y-11670785D01*
X13833750Y-9798980D02*
X13828875Y-9780790D01*
X18683750Y-11148984D02*
X18678870Y-11130785D01*
X13078707Y-11753805D02*
X13065385Y-11767127D01*
X9117520Y-10917290D02*
X9136130Y-10914350D01*
X12799320Y-11527560D02*
X12811170Y-11512917D01*
X19160000Y-8670000D02*
X15160000Y-7170000D01*
X19200560Y-9099160D02*
X19188700Y-9113800D01*
X12780500Y-13560150D02*
X12789060Y-13543360D01*
X16004940Y-11157670D02*
X16004940Y-11156916D01*
X14910824Y-10783360D02*
X14900562Y-10799160D01*
X9173760Y-11272375D02*
X9154940Y-11273360D01*
X9131010Y-8955940D02*
X9133950Y-8974550D01*
X13394335Y-8381650D02*
X13381582Y-8348430D01*
X13034940Y-11477476D02*
X13050742Y-11487737D01*
X12768870Y-13595940D02*
X12773750Y-13577740D01*
X15144940Y-7649250D02*
X15128150Y-7657800D01*
X13121175Y-10813800D02*
X13109318Y-10799160D01*
X13419379Y-10766570D02*
X13410825Y-10783360D01*
X18873750Y-11272375D02*
X18854940Y-11273360D01*
X14150562Y-9149160D02*
X14138705Y-9163800D01*
X14910824Y-10603360D02*
X14919378Y-10620150D01*
X14974940Y-11789245D02*
X14959138Y-11778983D01*
X15073750Y-7314350D02*
X15092360Y-7317290D01*
X13433955Y-10674550D02*
X13434940Y-10693360D01*
X13109379Y-11560148D02*
X13116131Y-11577738D01*
X13090502Y-10620150D02*
X13099056Y-10603360D01*
X12954940Y-7153360D02*
X12919400Y-7155220D01*
X14893749Y-11577738D02*
X14900501Y-11560148D01*
X12809320Y-7599160D02*
X12799060Y-7583360D01*
X14885926Y-11614545D02*
X14888872Y-11595937D01*
X14110740Y-9597740D02*
X14125382Y-9609600D01*
X12765930Y-13614540D02*
X12768870Y-13595940D01*
X9334940Y-11093360D02*
X9333950Y-11112176D01*
X13044941Y-7649250D02*
X13028153Y-7657800D01*
X13090563Y-13527560D02*
X13100825Y-13543360D01*
X12540010Y-11273514D02*
X12559390Y-11303361D01*
X12799320Y-13527560D02*
X12811170Y-13512920D01*
X14888705Y-10572920D02*
X14900562Y-10587560D01*
X9009320Y-11199161D02*
X8999060Y-11183361D01*
X8660490Y-8823360D02*
X8644340Y-8855070D01*
X9010560Y-9164550D02*
X8992370Y-9169430D01*
X8927440Y-11346030D02*
X8955090Y-11368427D01*
X13121175Y-10572920D02*
X13134498Y-10559600D01*
X9049140Y-10947740D02*
X9064940Y-10937480D01*
X13849056Y-9653360D02*
X13859318Y-9637560D01*
X12881730Y-7328920D02*
X12899320Y-7322170D01*
X15019400Y-7155220D02*
X14984249Y-7160790D01*
X19188700Y-8872920D02*
X19200560Y-8887560D01*
X8849140Y-9138980D02*
X8834500Y-9127130D01*
X8881730Y-8828920D02*
X8899320Y-8822170D01*
X18925630Y-11425931D02*
X18960000Y-11416720D01*
X9064940Y-11249245D02*
X9049140Y-11238984D01*
X14944495Y-13499590D02*
X14959138Y-13487740D01*
X14094939Y-9199250D02*
X14078152Y-9207800D01*
X19107610Y-11320865D02*
X19130010Y-11293207D01*
X13899140Y-9888980D02*
X13884498Y-9877130D01*
X8984940Y-11387809D02*
X9016650Y-11403966D01*
X14934496Y-7627130D02*
X14921174Y-7613800D01*
X13871175Y-9863800D02*
X13859318Y-9849160D01*
X15083750Y-13454340D02*
X15102360Y-13457290D01*
X18875930Y-9012180D02*
X18874940Y-8993360D01*
X12849880Y-7170000D02*
X8849880Y-8670000D01*
X14900501Y-11706574D02*
X14893749Y-11688984D01*
X14599387Y-8413360D02*
X14580006Y-8443210D01*
X19219380Y-9066570D02*
X19210820Y-9083360D01*
X14575925Y-10712180D02*
X14574940Y-10693360D01*
X8936130Y-9172370D02*
X8917520Y-9169430D01*
X13899140Y-9188980D02*
X13884498Y-9177130D01*
X15092360Y-7317290D02*
X15110560Y-7322170D01*
X14183953Y-9062180D02*
X14181005Y-9080790D01*
X15046120Y-13454340D02*
X15064940Y-13453360D01*
X18749140Y-10947740D02*
X18764940Y-10937480D01*
X13149140Y-10547740D02*
X13164941Y-10537480D01*
X18981730Y-9157800D02*
X18964940Y-9149250D01*
X14664939Y-10537480D02*
X14681727Y-10528920D01*
X18836120Y-10914350D02*
X18854940Y-10913360D01*
X9192370Y-11269427D02*
X9173760Y-11272375D01*
X15027520Y-11809428D02*
X15009320Y-11804551D01*
X15709400Y-11135224D02*
X15744940Y-11133361D01*
X13899140Y-9597740D02*
X13914941Y-9587480D01*
X19165540Y-11231652D02*
X19178300Y-11198426D01*
X12849140Y-7347740D02*
X12864940Y-7337480D01*
X18928150Y-11257799D02*
X18910560Y-11264551D01*
X14150562Y-9849160D02*
X14138705Y-9863800D01*
X14878873Y-7455940D02*
X14883749Y-7437740D01*
X14883749Y-7548980D02*
X14878873Y-7530790D01*
X12990480Y-7155220D02*
X12954940Y-7153360D01*
X19226130Y-8937740D02*
X19231010Y-8955940D01*
X14909055Y-11543360D02*
X14919317Y-11527560D01*
X12926130Y-11454346D02*
X12944940Y-11453361D01*
X15210560Y-13527560D02*
X15220820Y-13543360D01*
X14410004Y-8566720D02*
X14375629Y-8575930D01*
X19073750Y-8814350D02*
X19092360Y-8817290D01*
X12778870Y-7455940D02*
X12783750Y-7437740D01*
X13967516Y-8867290D02*
X13986126Y-8864350D01*
X12839880Y-13966720D02*
X12874250Y-13975930D01*
X12789060Y-11543360D02*
X12799320Y-11527560D01*
X13986126Y-9564350D02*
X14004940Y-9563360D01*
X15220820Y-11543360D02*
X15229380Y-11560148D01*
X9009320Y-10987560D02*
X9021180Y-10972920D01*
X13859318Y-9637560D02*
X13871175Y-9622920D01*
X14974940Y-13477470D02*
X14991726Y-13468920D01*
X9333950Y-11112176D02*
X9331010Y-11130785D01*
X19193230Y-8682760D02*
X19160000Y-8670000D01*
X15210820Y-7583360D02*
X15200560Y-7599160D01*
X12806650Y-13953960D02*
X12839880Y-13966720D01*
X15220820Y-13723360D02*
X15210560Y-13739160D01*
X18749140Y-11238984D02*
X18734500Y-11227126D01*
X14722369Y-7422670D02*
X14716802Y-7457820D01*
X18721170Y-11213804D02*
X18709320Y-11199161D01*
X14844939Y-10849250D02*
X14828152Y-10857800D01*
X14855093Y-7218290D02*
X14827435Y-7240690D01*
X12824500Y-11767127D02*
X12811170Y-11753805D01*
X14583749Y-10748980D02*
X14578873Y-10730790D01*
X14078152Y-9207800D02*
X14060563Y-9214550D01*
X14827435Y-7240690D02*
X14802270Y-7265860D01*
X13010564Y-7664550D02*
X12992370Y-7669430D01*
X12889320Y-11462171D02*
X12907520Y-11457294D01*
X9260740Y-11238984D02*
X9244940Y-11249245D01*
X14899055Y-7403360D02*
X14909316Y-7387560D01*
X18909320Y-9099160D02*
X18899050Y-9083360D01*
X15188700Y-7372920D02*
X15200560Y-7387560D01*
X14004940Y-9923360D02*
X13986126Y-9922370D01*
X14078152Y-9578920D02*
X14094939Y-9587480D01*
X13931728Y-9578920D02*
X13949317Y-9572170D01*
X13373876Y-8319670D02*
X13293078Y-7457820D01*
X14664939Y-10849250D02*
X14649139Y-10838980D01*
X13859318Y-9849160D02*
X13849056Y-9833360D01*
X12765930Y-11614545D02*
X12768870Y-11595937D01*
X14899055Y-7583360D02*
X14890501Y-7566570D01*
X14060563Y-8872170D02*
X14078152Y-8878920D01*
X13034940Y-11789245D02*
X13018154Y-11797799D01*
X8864940Y-9149250D02*
X8849140Y-9138980D01*
X14184939Y-9043360D02*
X14183953Y-9062180D01*
X15404940Y-13643360D02*
X15404940Y-11473360D01*
X19394940Y-8993360D02*
X19393080Y-8957820D01*
X19330010Y-8793510D02*
X19307610Y-8765860D01*
X8990500Y-11020150D02*
X8999060Y-11003360D01*
X19200560Y-8887560D02*
X19210820Y-8903360D01*
X18690500Y-11166573D02*
X18683750Y-11148984D01*
X14754940Y-10513360D02*
X14773754Y-10514350D01*
X12799320Y-11739162D02*
X12789060Y-11723360D01*
X8983750Y-11037740D02*
X8990500Y-11020150D01*
X13914941Y-9899250D02*
X13899140Y-9888980D01*
X14931005Y-10655940D02*
X14933953Y-10674550D01*
X19226130Y-9048980D02*
X19219380Y-9066570D01*
X14078152Y-8878920D02*
X14094939Y-8887480D01*
X12926130Y-13812370D02*
X12907520Y-13809430D01*
X13133955Y-7474550D02*
X13134940Y-7493360D01*
X15236130Y-11688984D02*
X15229380Y-11706574D01*
X18690500Y-11020150D02*
X18699050Y-11003360D01*
X14999316Y-7322170D02*
X15017510Y-7317290D01*
X15154940Y-11789245D02*
X15138150Y-11797799D01*
X15233950Y-7512180D02*
X15231010Y-7530790D01*
X14874940Y-7493360D02*
X14875925Y-7474550D01*
X13028153Y-7657800D02*
X13010564Y-7664550D01*
X13109379Y-13560150D02*
X13116131Y-13577740D01*
X13381582Y-8348430D02*
X13373876Y-8319670D01*
X14621174Y-10813800D02*
X14609316Y-10799160D01*
X13134498Y-10559600D02*
X13149140Y-10547740D01*
X13034940Y-13477470D02*
X13050742Y-13487740D01*
X19024940Y-11387809D02*
X19054790Y-11368427D01*
X14636004Y-8319670D02*
X14628298Y-8348430D01*
X13534940Y-8537810D02*
X13505094Y-8518430D01*
X9088710Y-8872920D02*
X9100560Y-8887560D01*
X19393080Y-9028900D02*
X19394940Y-8993360D01*
X12799060Y-7583360D02*
X12790500Y-7566570D01*
X18988700Y-11213804D02*
X18975380Y-11227126D01*
X19110560Y-8822170D02*
X19128150Y-8828920D01*
X13088706Y-7372920D02*
X13100564Y-7387560D01*
X12575550Y-11335070D02*
X12588300Y-11368294D01*
X14340479Y-8581500D02*
X14304940Y-8583360D01*
X13034940Y-13789240D02*
X13018154Y-13797800D01*
X13871175Y-9163800D02*
X13859318Y-9149160D01*
X15243950Y-13614540D02*
X15244940Y-13633360D01*
X15120560Y-13462170D02*
X15138150Y-13468920D01*
X19128150Y-8828920D02*
X19144940Y-8837480D01*
X13328153Y-10857800D02*
X13310564Y-10864550D01*
X9044940Y-9149250D02*
X9028150Y-9157800D01*
X13230007Y-7293510D02*
X13207610Y-7265860D01*
X18699050Y-11183361D02*
X18690500Y-11166573D01*
X14094939Y-8887480D02*
X14110740Y-8897740D01*
X14760491Y-7323360D02*
X14744334Y-7355070D01*
X19054940Y-9173360D02*
X19036120Y-9172370D01*
X18964940Y-9149250D02*
X18949140Y-9138980D01*
X12790500Y-7420150D02*
X12799060Y-7403360D01*
X14004940Y-8863360D02*
X14023754Y-8864350D01*
X14042364Y-9219430D02*
X14023754Y-9222370D01*
X12864940Y-7337480D02*
X12881730Y-7328920D01*
X9060740Y-8847740D02*
X9075380Y-8859600D01*
X15160000Y-7170000D02*
X15125630Y-7160790D01*
X13828875Y-9705940D02*
X13833750Y-9687740D01*
X14964939Y-7649250D02*
X14949139Y-7638980D01*
X13704940Y-8583360D02*
X13669401Y-8581500D01*
X15128150Y-7657800D02*
X15110560Y-7664550D01*
X12909400Y-13981500D02*
X12944940Y-13983360D01*
X8860490Y-11263361D02*
X8879870Y-11293207D01*
X8821180Y-8872920D02*
X8834500Y-8859600D01*
X12604940Y-13643360D02*
X12606800Y-13678900D01*
X14944495Y-11767127D02*
X14931173Y-11753805D01*
X15234940Y-7493360D02*
X15233950Y-7512180D01*
X13840502Y-9116570D02*
X13833750Y-9098980D01*
X14125382Y-8909600D02*
X14138705Y-8922920D01*
X12874250Y-13975930D02*
X12909400Y-13981500D01*
X15219380Y-7420150D02*
X15226130Y-7437740D01*
X12745100Y-13918430D02*
X12774940Y-13937810D01*
X9154940Y-11273360D02*
X9136130Y-11272375D01*
X15027520Y-11457294D02*
X15046120Y-11454346D01*
X14176130Y-9798980D02*
X14169378Y-9816570D01*
X8917520Y-9169430D02*
X8899320Y-9164550D01*
X15054940Y-7153360D02*
X15019400Y-7155220D01*
X12764940Y-11633361D02*
X12765930Y-11614545D01*
X19224940Y-8698910D02*
X19193230Y-8682760D01*
X8783750Y-9048980D02*
X8778870Y-9030790D01*
X19175380Y-9127130D02*
X19160740Y-9138980D01*
X15154940Y-13477470D02*
X15170740Y-13487740D01*
X15138150Y-13797800D02*
X15120560Y-13804550D01*
X12963760Y-13454340D02*
X12982360Y-13457290D01*
X13000560Y-11804551D02*
X12982360Y-11809428D01*
X12789060Y-13543360D02*
X12799320Y-13527560D01*
X12907520Y-13809430D02*
X12889320Y-13804550D01*
X9088710Y-9113800D02*
X9075380Y-9127130D01*
X13825927Y-9024550D02*
X13828875Y-9005940D01*
X8992370Y-8817290D02*
X9010560Y-8822170D01*
X18890500Y-8920150D02*
X18899050Y-8903360D01*
X9081730Y-11257799D02*
X9064940Y-11249245D01*
X8790500Y-9066570D02*
X8783750Y-9048980D01*
X18999320Y-9164550D02*
X18981730Y-9157800D01*
X9084250Y-11425931D02*
X9119400Y-11431498D01*
X8881730Y-9157800D02*
X8864940Y-9149250D01*
X12973760Y-7672370D02*
X12954940Y-7673360D01*
X13840502Y-8970150D02*
X13849056Y-8953360D01*
X12889320Y-13804550D02*
X12871730Y-13797800D01*
X8644340Y-8855070D02*
X8631580Y-8888300D01*
X13134940Y-7493360D02*
X13133955Y-7512180D01*
X13566650Y-8553970D02*
X13534940Y-8537810D01*
X9210560Y-10922170D02*
X9228150Y-10928920D01*
X12954940Y-7673360D02*
X12936130Y-7672370D01*
X13164941Y-10849250D02*
X13149140Y-10838980D01*
X12004940Y-11157670D02*
X12229400Y-11135224D01*
X19054790Y-11368427D02*
X19082440Y-11346030D01*
X15340000Y-13843210D02*
X15359390Y-13813360D01*
X14964939Y-7337480D02*
X14981727Y-7328920D01*
X13986126Y-9222370D02*
X13967516Y-9219430D01*
X14900562Y-10799160D02*
X14888705Y-10813800D01*
X19378300Y-8888300D02*
X19365540Y-8855070D01*
X15264780Y-13918430D02*
X15292440Y-13896030D01*
X13967516Y-9567290D02*
X13986126Y-9564350D01*
X14042364Y-9567290D02*
X14060563Y-9572170D01*
X9126130Y-9048980D02*
X9119380Y-9066570D01*
X12434940Y-11178911D02*
X12464790Y-11198295D01*
X9133950Y-8974550D02*
X9134940Y-8993360D01*
X12790500Y-7566570D02*
X12783750Y-7548980D01*
X12917520Y-7669430D02*
X12899320Y-7664550D01*
X15102360Y-13457290D02*
X15120560Y-13462170D01*
X12982360Y-13809430D02*
X12963760Y-13812370D01*
X13273756Y-10872370D02*
X13254940Y-10873360D01*
X15185380Y-13499590D02*
X15198710Y-13512920D01*
X14931173Y-11753805D02*
X14919317Y-11739162D01*
X14615545Y-8381650D02*
X14599387Y-8413360D01*
X13121008Y-13595940D02*
X13123954Y-13614540D01*
X12229400Y-11135224D02*
X12264940Y-11133361D01*
X15100480Y-13981500D02*
X15135630Y-13975930D01*
X14590501Y-10620150D02*
X14599055Y-10603360D01*
X12919400Y-7155220D02*
X12884250Y-7160790D01*
X15160740Y-7347740D02*
X15175380Y-7359600D01*
X14716802Y-7457820D02*
X14636004Y-8319670D01*
X14893749Y-11688984D02*
X14888872Y-11670785D01*
X14844939Y-10537480D02*
X14860740Y-10547740D01*
X19082440Y-11346030D02*
X19107610Y-11320865D01*
X14578873Y-10730790D02*
X14575925Y-10712180D01*
X14375629Y-8575930D02*
X14340479Y-8581500D01*
X9326130Y-11148984D02*
X9319380Y-11166573D01*
X14578873Y-10655940D02*
X14583749Y-10637740D01*
X14060563Y-9914550D02*
X14042364Y-9919430D01*
X12775930Y-7474550D02*
X12778870Y-7455940D01*
X14110740Y-9888980D02*
X14094939Y-9899250D01*
X19144940Y-8837480D02*
X19160740Y-8847740D01*
X15064940Y-13983360D02*
X15100480Y-13981500D01*
X13599876Y-8566720D02*
X13566650Y-8553970D01*
X18934500Y-8859600D02*
X18949140Y-8847740D01*
X15545090Y-11198295D02*
X15574940Y-11178911D01*
X18734500Y-11227126D02*
X18721170Y-11213804D01*
X15198710Y-11753805D02*
X15185380Y-11767127D01*
X15639870Y-11150002D02*
X15674250Y-11140790D01*
X19034940Y-11093360D02*
X19033950Y-11112176D01*
X14110740Y-8897740D02*
X14125382Y-8909600D01*
X14609316Y-10587560D02*
X14621174Y-10572920D01*
X13090563Y-11527560D02*
X13100825Y-11543360D01*
X8975930Y-11074546D02*
X8978870Y-11055936D01*
X13859318Y-9149160D02*
X13849056Y-9133360D01*
X15188700Y-7613800D02*
X15175380Y-7627130D01*
X13254940Y-10873360D02*
X13236126Y-10872370D01*
X14802270Y-7265860D02*
X14779873Y-7293510D01*
X14991726Y-11797799D02*
X14974940Y-11789245D01*
X13119379Y-7420150D02*
X13126131Y-7437740D01*
X8775930Y-8974550D02*
X8778870Y-8955940D01*
X19231010Y-9030790D02*
X19226130Y-9048980D01*
X13967516Y-9919430D02*
X13949317Y-9914550D01*
X8974940Y-11093360D02*
X8975930Y-11074546D01*
X15017510Y-7317290D02*
X15036120Y-7314350D01*
X12811170Y-11753805D02*
X12799320Y-11739162D01*
X15388300Y-13748420D02*
X15397510Y-13714050D01*
X12783750Y-7437740D02*
X12790500Y-7420150D01*
X13871175Y-8922920D02*
X13884498Y-8909600D01*
X15046120Y-11454346D02*
X15064940Y-11453361D01*
X14884939Y-13633360D02*
X14885926Y-13614540D01*
X9310830Y-11183361D02*
X9300560Y-11199161D01*
X15110560Y-7322170D02*
X15128150Y-7328920D01*
X12871730Y-11468923D02*
X12889320Y-11462171D01*
X19010820Y-11183361D02*
X19000560Y-11199161D01*
X14649139Y-10838980D02*
X14634496Y-10827130D01*
X13292365Y-10869430D02*
X13273756Y-10872370D01*
X9100560Y-9099160D02*
X9088710Y-9113800D01*
X13410825Y-10783360D02*
X13400564Y-10799160D01*
X8702270Y-8765860D02*
X8679870Y-8793510D01*
X14919317Y-13527560D02*
X14931173Y-13512920D01*
X13078707Y-13512920D02*
X13090563Y-13527560D01*
X13824941Y-9743360D02*
X13825927Y-9724550D01*
X18993230Y-11403966D02*
X19024940Y-11387809D01*
X13434940Y-10693360D02*
X13433955Y-10712180D01*
X9173760Y-10914350D02*
X9192370Y-10917290D01*
X14974940Y-11477476D02*
X14991726Y-11468923D01*
X19144940Y-9149250D02*
X19128150Y-9157800D01*
X13116131Y-11577738D02*
X13121008Y-11595937D01*
X15241010Y-13670780D02*
X15236130Y-13688980D01*
X13075384Y-7359600D02*
X13088706Y-7372920D01*
X13000560Y-11462171D02*
X13018154Y-11468923D01*
X12768870Y-11670785D02*
X12765930Y-11652177D01*
X15110560Y-7664550D02*
X15092360Y-7669430D01*
X14875925Y-7474550D02*
X14878873Y-7455940D01*
X9126130Y-8937740D02*
X9131010Y-8955940D01*
X12778870Y-7530790D02*
X12775930Y-7512180D01*
X14860740Y-10547740D02*
X14875382Y-10559600D01*
X14754940Y-10873360D02*
X14736124Y-10872370D01*
X15404940Y-11473360D02*
X15406800Y-11437821D01*
X13050742Y-13487740D02*
X13065385Y-13499590D01*
X19033950Y-11074546D02*
X19034940Y-11093360D01*
X13131007Y-7530790D02*
X13126131Y-7548980D01*
X13986126Y-8864350D02*
X14004940Y-8863360D01*
X15229380Y-13560150D02*
X15236130Y-13577740D01*
X19233950Y-9012180D02*
X19231010Y-9030790D01*
X15244940Y-11633361D02*
X15243950Y-11652177D01*
X14885926Y-13652180D02*
X14884939Y-13633360D01*
X13931728Y-9207800D02*
X13914941Y-9199250D01*
X8831580Y-11198426D02*
X8844340Y-11231652D01*
X13375384Y-10559600D02*
X13388706Y-10572920D01*
X8783750Y-8937740D02*
X8790500Y-8920150D01*
X8799060Y-8903360D02*
X8809320Y-8887560D01*
X9064940Y-10937480D02*
X9081730Y-10928920D01*
X14959138Y-13487740D02*
X14974940Y-13477470D01*
X18854940Y-11433361D02*
X18890480Y-11431498D01*
X15009320Y-11804551D02*
X14991726Y-11797799D01*
X12650490Y-13813360D02*
X12669880Y-13843210D01*
X18764940Y-10937480D02*
X18781730Y-10928920D01*
X13119379Y-7566570D02*
X13110825Y-7583360D01*
X8973760Y-8814350D02*
X8992370Y-8817290D01*
X8955090Y-11368427D02*
X8984940Y-11387809D01*
X18678870Y-11055936D02*
X18683750Y-11037740D01*
X9131010Y-9030790D02*
X9126130Y-9048980D01*
X9010560Y-8822170D02*
X9028150Y-8828920D01*
X13133955Y-7512180D02*
X13131007Y-7530790D01*
X18781730Y-10928920D02*
X18799320Y-10922170D01*
X13050742Y-11778983D02*
X13034940Y-11789245D01*
X9275380Y-11227126D02*
X9260740Y-11238984D01*
X9100560Y-8887560D02*
X9110830Y-8903360D01*
X12944940Y-11453361D02*
X12963760Y-11454346D01*
X14921174Y-7613800D02*
X14909316Y-7599160D01*
X19010820Y-11003360D02*
X19019380Y-11020150D01*
X9319380Y-11166573D02*
X9310830Y-11183361D01*
X15073750Y-7672370D02*
X15054940Y-7673360D01*
X15198710Y-11512917D02*
X15210560Y-11527560D01*
X12821180Y-7613800D02*
X12809320Y-7599160D01*
X15606650Y-11162755D02*
X15639870Y-11150002D01*
X14919317Y-13739160D02*
X14909055Y-13723360D01*
X15220820Y-11723360D02*
X15210560Y-11739162D01*
X13669401Y-8581500D02*
X13634251Y-8575930D01*
X12603080Y-11437821D02*
X12604940Y-11473360D01*
X15185380Y-11767127D02*
X15170740Y-11778983D01*
X9110830Y-8903360D02*
X9119380Y-8920150D01*
X18817510Y-10917290D02*
X18836120Y-10914350D01*
X13360741Y-10547740D02*
X13375384Y-10559600D01*
X9021180Y-10972920D02*
X9034500Y-10959600D01*
X15185380Y-11499595D02*
X15198710Y-11512917D01*
X12824500Y-13499590D02*
X12839140Y-13487740D01*
X12621580Y-13748420D02*
X12634340Y-13781650D01*
X16004940Y-11156916D02*
X18819400Y-11431498D01*
X18921170Y-8872920D02*
X18934500Y-8859600D01*
X12884250Y-7160790D02*
X12849880Y-7170000D01*
X14991726Y-13797800D02*
X14974940Y-13789240D01*
X15170740Y-11487737D02*
X15185380Y-11499595D01*
X12839140Y-13778980D02*
X12824500Y-13767130D01*
X14878873Y-7530790D02*
X14875925Y-7512180D01*
X15120560Y-11804551D02*
X15102360Y-11809428D01*
X12799060Y-7403360D02*
X12809320Y-7387560D01*
X9028150Y-9157800D02*
X9010560Y-9164550D01*
X13090563Y-11739162D02*
X13078707Y-11753805D01*
X12992370Y-7317290D02*
X13010564Y-7322170D01*
X12775930Y-7512180D02*
X12774940Y-7493360D01*
X13121008Y-11595937D02*
X13123954Y-11614545D01*
X18678870Y-11130785D02*
X18675930Y-11112176D01*
X14023754Y-9222370D02*
X14004940Y-9223360D01*
X13116131Y-13688980D02*
X13109379Y-13706570D01*
X18878870Y-9030790D02*
X18875930Y-9012180D01*
X15138150Y-13468920D02*
X15154940Y-13477470D01*
X13949317Y-9572170D02*
X13967516Y-9567290D01*
X14974940Y-13789240D02*
X14959138Y-13778980D01*
X13090502Y-10766570D02*
X13083750Y-10748980D01*
X8774940Y-8993360D02*
X8775930Y-8974550D01*
X15317610Y-13870860D02*
X15340000Y-13843210D01*
X9119380Y-9066570D02*
X9110830Y-9083360D01*
X14909316Y-7599160D02*
X14899055Y-7583360D01*
X13109318Y-10799160D02*
X13099056Y-10783360D01*
X13292365Y-10517290D02*
X13310564Y-10522170D01*
X12854940Y-13789240D02*
X12839140Y-13778980D01*
X8990500Y-11166573D02*
X8983750Y-11148984D01*
X14885926Y-11652177D02*
X14884939Y-11633361D01*
X14810563Y-10864550D02*
X14792364Y-10869430D01*
X14699316Y-10522170D02*
X14717515Y-10517290D01*
X12864940Y-7649250D02*
X12849140Y-7638980D01*
X12936130Y-7314350D02*
X12954940Y-7313360D01*
X12517610Y-11245856D02*
X12540010Y-11273514D01*
X12963760Y-11812374D02*
X12944940Y-11813361D01*
X15064940Y-13453360D02*
X15083750Y-13454340D01*
X12811170Y-11512917D02*
X12824500Y-11499595D01*
X8775930Y-9012180D02*
X8774940Y-8993360D01*
X8844340Y-11231652D02*
X8860490Y-11263361D01*
X12780500Y-11706574D02*
X12773750Y-11688984D01*
X8899320Y-8822170D02*
X8917520Y-8817290D01*
X13236126Y-10514350D02*
X13254940Y-10513360D01*
X19160740Y-8847740D02*
X19175380Y-8859600D01*
X18721170Y-10972920D02*
X18734500Y-10959600D01*
X14138705Y-9163800D02*
X14125382Y-9177130D01*
X18981730Y-8828920D02*
X18999320Y-8822170D01*
X15406800Y-11437821D02*
X15412370Y-11402671D01*
X13236126Y-10872370D02*
X13217516Y-10869430D01*
X12634340Y-13781650D02*
X12650490Y-13813360D01*
X13060006Y-7170000D02*
X13025631Y-7160790D01*
D11*
D12*
X11595000Y-9135000D02*
X11625000Y-9165000D01*
X11625000Y-9135000D02*
X11595000Y-9165000D01*
X11905000Y-9695000D02*
X11935000Y-9725000D01*
X11935000Y-9695000D02*
X11905000Y-9725000D01*
X13135000Y-12815000D02*
X13165000Y-12845000D01*
X13165000Y-12815000D02*
X13135000Y-12845000D01*
X13215000Y-12255000D02*
X13245000Y-12285000D01*
X13245000Y-12255000D02*
X13215000Y-12285000D01*
X14015000Y-13715000D02*
X14045000Y-13745000D01*
X14045000Y-13715000D02*
X14015000Y-13745000D01*
X14095000Y-13135000D02*
X14125000Y-13165000D01*
X14125000Y-13135000D02*
X14095000Y-13165000D01*
X14115000Y-12265000D02*
X14145000Y-12295000D01*
X14145000Y-12265000D02*
X14115000Y-12295000D01*
X14125000Y-11325000D02*
X14155000Y-11355000D01*
X14155000Y-11325000D02*
X14125000Y-11355000D01*
X14405000Y-12805000D02*
X14435000Y-12835000D01*
X14435000Y-12805000D02*
X14405000Y-12835000D01*
X14445000Y-11915000D02*
X14475000Y-11945000D01*
X14475000Y-11915000D02*
X14445000Y-11945000D01*
X14945000Y-12815000D02*
X14975000Y-12845000D01*
X14975000Y-12815000D02*
X14945000Y-12845000D01*
X15015000Y-12235000D02*
X15045000Y-12265000D01*
X15045000Y-12235000D02*
X15015000Y-12265000D01*
X16655000Y-9105000D02*
X16685000Y-9135000D01*
X16685000Y-9105000D02*
X16655000Y-9135000D01*
X16905000Y-9705000D02*
X16935000Y-9735000D01*
X16935000Y-9705000D02*
X16905000Y-9735000D01*
X17815000Y-9745000D02*
X17845000Y-9775000D01*
X17845000Y-9745000D02*
X17815000Y-9775000D01*
X17865000Y-9375000D02*
X17895000Y-9405000D01*
X17895000Y-9375000D02*
X17865000Y-9405000D01*
D13*
X15995000Y-8700000D02*
G75*
G03*
X15995000Y-8700000I-55000J0D01*
G01*
X16475000Y-8700000D02*
G75*
G03*
X16475000Y-8700000I-55000J0D01*
G01*
X16655000Y-10280000D02*
G75*
G03*
X16655000Y-10280000I-55000J0D01*
G01*
X16955000Y-8700000D02*
G75*
G03*
X16955000Y-8700000I-55000J0D01*
G01*
X17135000Y-10280000D02*
G75*
G03*
X17135000Y-10280000I-55000J0D01*
G01*
X17615000Y-10280000D02*
G75*
G03*
X17615000Y-10280000I-55000J0D01*
G01*
D11*
X8870717Y-14299844D02*
X8870717Y-14099844D01*
X8870717Y-14099844D02*
X8918336Y-14099844D01*
X8918336Y-14099844D02*
X8946907Y-14109368D01*
X8946907Y-14109368D02*
X8965955Y-14128415D01*
X8965955Y-14128415D02*
X8975479Y-14147463D01*
X8975479Y-14147463D02*
X8985003Y-14185558D01*
X8985003Y-14185558D02*
X8985003Y-14214129D01*
X8985003Y-14214129D02*
X8975479Y-14252225D01*
X8975479Y-14252225D02*
X8965955Y-14271272D01*
X8965955Y-14271272D02*
X8946907Y-14290320D01*
X8946907Y-14290320D02*
X8918336Y-14299844D01*
X8918336Y-14299844D02*
X8870717Y-14299844D01*
X9070717Y-14299844D02*
X9070717Y-14166510D01*
X9070717Y-14204606D02*
X9080241Y-14185558D01*
X9080241Y-14185558D02*
X9089764Y-14176034D01*
X9089764Y-14176034D02*
X9108812Y-14166510D01*
X9108812Y-14166510D02*
X9127860Y-14166510D01*
X9194526Y-14299844D02*
X9194526Y-14166510D01*
X9194526Y-14099844D02*
X9185003Y-14109368D01*
X9185003Y-14109368D02*
X9194526Y-14118891D01*
X9194526Y-14118891D02*
X9204050Y-14109368D01*
X9204050Y-14109368D02*
X9194526Y-14099844D01*
X9194526Y-14099844D02*
X9194526Y-14118891D01*
X9318336Y-14299844D02*
X9299288Y-14290320D01*
X9299288Y-14290320D02*
X9289764Y-14271272D01*
X9289764Y-14271272D02*
X9289764Y-14099844D01*
X9423098Y-14299844D02*
X9404050Y-14290320D01*
X9404050Y-14290320D02*
X9394526Y-14271272D01*
X9394526Y-14271272D02*
X9394526Y-14099844D01*
X9651669Y-14299844D02*
X9651669Y-14099844D01*
X9651669Y-14099844D02*
X9718336Y-14242701D01*
X9718336Y-14242701D02*
X9785003Y-14099844D01*
X9785003Y-14099844D02*
X9785003Y-14299844D01*
X9965955Y-14299844D02*
X9965955Y-14195082D01*
X9965955Y-14195082D02*
X9956431Y-14176034D01*
X9956431Y-14176034D02*
X9937384Y-14166510D01*
X9937384Y-14166510D02*
X9899288Y-14166510D01*
X9899288Y-14166510D02*
X9880241Y-14176034D01*
X9965955Y-14290320D02*
X9946907Y-14299844D01*
X9946907Y-14299844D02*
X9899288Y-14299844D01*
X9899288Y-14299844D02*
X9880241Y-14290320D01*
X9880241Y-14290320D02*
X9870717Y-14271272D01*
X9870717Y-14271272D02*
X9870717Y-14252225D01*
X9870717Y-14252225D02*
X9880241Y-14233177D01*
X9880241Y-14233177D02*
X9899288Y-14223653D01*
X9899288Y-14223653D02*
X9946907Y-14223653D01*
X9946907Y-14223653D02*
X9965955Y-14214129D01*
X10061193Y-14166510D02*
X10061193Y-14366510D01*
X10061193Y-14176034D02*
X10080241Y-14166510D01*
X10080241Y-14166510D02*
X10118336Y-14166510D01*
X10118336Y-14166510D02*
X10137384Y-14176034D01*
X10137384Y-14176034D02*
X10146907Y-14185558D01*
X10146907Y-14185558D02*
X10156431Y-14204606D01*
X10156431Y-14204606D02*
X10156431Y-14261748D01*
X10156431Y-14261748D02*
X10146907Y-14280796D01*
X10146907Y-14280796D02*
X10137384Y-14290320D01*
X10137384Y-14290320D02*
X10118336Y-14299844D01*
X10118336Y-14299844D02*
X10080241Y-14299844D01*
X10080241Y-14299844D02*
X10061193Y-14290320D01*
X10242145Y-14280796D02*
X10251669Y-14290320D01*
X10251669Y-14290320D02*
X10242145Y-14299844D01*
X10242145Y-14299844D02*
X10232622Y-14290320D01*
X10232622Y-14290320D02*
X10242145Y-14280796D01*
X10242145Y-14280796D02*
X10242145Y-14299844D01*
X10242145Y-14176034D02*
X10251669Y-14185558D01*
X10251669Y-14185558D02*
X10242145Y-14195082D01*
X10242145Y-14195082D02*
X10232622Y-14185558D01*
X10232622Y-14185558D02*
X10242145Y-14176034D01*
X10242145Y-14176034D02*
X10242145Y-14195082D01*
D12*
X8579940Y-14613360D02*
X8609940Y-14643360D01*
X8609940Y-14613360D02*
X8579940Y-14643360D01*
D11*
X8908812Y-14519844D02*
X8927860Y-14519844D01*
X8927860Y-14519844D02*
X8946907Y-14529368D01*
X8946907Y-14529368D02*
X8956431Y-14538891D01*
X8956431Y-14538891D02*
X8965955Y-14557939D01*
X8965955Y-14557939D02*
X8975479Y-14596034D01*
X8975479Y-14596034D02*
X8975479Y-14643653D01*
X8975479Y-14643653D02*
X8965955Y-14681748D01*
X8965955Y-14681748D02*
X8956431Y-14700796D01*
X8956431Y-14700796D02*
X8946907Y-14710320D01*
X8946907Y-14710320D02*
X8927860Y-14719844D01*
X8927860Y-14719844D02*
X8908812Y-14719844D01*
X8908812Y-14719844D02*
X8889764Y-14710320D01*
X8889764Y-14710320D02*
X8880241Y-14700796D01*
X8880241Y-14700796D02*
X8870717Y-14681748D01*
X8870717Y-14681748D02*
X8861193Y-14643653D01*
X8861193Y-14643653D02*
X8861193Y-14596034D01*
X8861193Y-14596034D02*
X8870717Y-14557939D01*
X8870717Y-14557939D02*
X8880241Y-14538891D01*
X8880241Y-14538891D02*
X8889764Y-14529368D01*
X8889764Y-14529368D02*
X8908812Y-14519844D01*
X9061193Y-14700796D02*
X9070717Y-14710320D01*
X9070717Y-14710320D02*
X9061193Y-14719844D01*
X9061193Y-14719844D02*
X9051669Y-14710320D01*
X9051669Y-14710320D02*
X9061193Y-14700796D01*
X9061193Y-14700796D02*
X9061193Y-14719844D01*
X9137384Y-14519844D02*
X9261193Y-14519844D01*
X9261193Y-14519844D02*
X9194526Y-14596034D01*
X9194526Y-14596034D02*
X9223098Y-14596034D01*
X9223098Y-14596034D02*
X9242145Y-14605558D01*
X9242145Y-14605558D02*
X9251669Y-14615082D01*
X9251669Y-14615082D02*
X9261193Y-14634129D01*
X9261193Y-14634129D02*
X9261193Y-14681748D01*
X9261193Y-14681748D02*
X9251669Y-14700796D01*
X9251669Y-14700796D02*
X9242145Y-14710320D01*
X9242145Y-14710320D02*
X9223098Y-14719844D01*
X9223098Y-14719844D02*
X9165955Y-14719844D01*
X9165955Y-14719844D02*
X9146907Y-14710320D01*
X9146907Y-14710320D02*
X9137384Y-14700796D01*
X9385003Y-14519844D02*
X9404050Y-14519844D01*
X9404050Y-14519844D02*
X9423098Y-14529368D01*
X9423098Y-14529368D02*
X9432622Y-14538891D01*
X9432622Y-14538891D02*
X9442145Y-14557939D01*
X9442145Y-14557939D02*
X9451669Y-14596034D01*
X9451669Y-14596034D02*
X9451669Y-14643653D01*
X9451669Y-14643653D02*
X9442145Y-14681748D01*
X9442145Y-14681748D02*
X9432622Y-14700796D01*
X9432622Y-14700796D02*
X9423098Y-14710320D01*
X9423098Y-14710320D02*
X9404050Y-14719844D01*
X9404050Y-14719844D02*
X9385003Y-14719844D01*
X9385003Y-14719844D02*
X9365955Y-14710320D01*
X9365955Y-14710320D02*
X9356431Y-14700796D01*
X9356431Y-14700796D02*
X9346907Y-14681748D01*
X9346907Y-14681748D02*
X9337384Y-14643653D01*
X9337384Y-14643653D02*
X9337384Y-14596034D01*
X9337384Y-14596034D02*
X9346907Y-14557939D01*
X9346907Y-14557939D02*
X9356431Y-14538891D01*
X9356431Y-14538891D02*
X9365955Y-14529368D01*
X9365955Y-14529368D02*
X9385003Y-14519844D01*
X9575479Y-14519844D02*
X9594526Y-14519844D01*
X9594526Y-14519844D02*
X9613574Y-14529368D01*
X9613574Y-14529368D02*
X9623098Y-14538891D01*
X9623098Y-14538891D02*
X9632622Y-14557939D01*
X9632622Y-14557939D02*
X9642145Y-14596034D01*
X9642145Y-14596034D02*
X9642145Y-14643653D01*
X9642145Y-14643653D02*
X9632622Y-14681748D01*
X9632622Y-14681748D02*
X9623098Y-14700796D01*
X9623098Y-14700796D02*
X9613574Y-14710320D01*
X9613574Y-14710320D02*
X9594526Y-14719844D01*
X9594526Y-14719844D02*
X9575479Y-14719844D01*
X9575479Y-14719844D02*
X9556431Y-14710320D01*
X9556431Y-14710320D02*
X9546907Y-14700796D01*
X9546907Y-14700796D02*
X9537384Y-14681748D01*
X9537384Y-14681748D02*
X9527860Y-14643653D01*
X9527860Y-14643653D02*
X9527860Y-14596034D01*
X9527860Y-14596034D02*
X9537384Y-14557939D01*
X9537384Y-14557939D02*
X9546907Y-14538891D01*
X9546907Y-14538891D02*
X9556431Y-14529368D01*
X9556431Y-14529368D02*
X9575479Y-14519844D01*
X9727860Y-14719844D02*
X9727860Y-14586510D01*
X9727860Y-14605558D02*
X9737384Y-14596034D01*
X9737384Y-14596034D02*
X9756431Y-14586510D01*
X9756431Y-14586510D02*
X9785003Y-14586510D01*
X9785003Y-14586510D02*
X9804050Y-14596034D01*
X9804050Y-14596034D02*
X9813574Y-14615082D01*
X9813574Y-14615082D02*
X9813574Y-14719844D01*
X9813574Y-14615082D02*
X9823098Y-14596034D01*
X9823098Y-14596034D02*
X9842145Y-14586510D01*
X9842145Y-14586510D02*
X9870717Y-14586510D01*
X9870717Y-14586510D02*
X9889765Y-14596034D01*
X9889765Y-14596034D02*
X9899288Y-14615082D01*
X9899288Y-14615082D02*
X9899288Y-14719844D01*
X9994526Y-14719844D02*
X9994526Y-14586510D01*
X9994526Y-14605558D02*
X10004050Y-14596034D01*
X10004050Y-14596034D02*
X10023098Y-14586510D01*
X10023098Y-14586510D02*
X10051669Y-14586510D01*
X10051669Y-14586510D02*
X10070717Y-14596034D01*
X10070717Y-14596034D02*
X10080241Y-14615082D01*
X10080241Y-14615082D02*
X10080241Y-14719844D01*
X10080241Y-14615082D02*
X10089765Y-14596034D01*
X10089765Y-14596034D02*
X10108812Y-14586510D01*
X10108812Y-14586510D02*
X10137384Y-14586510D01*
X10137384Y-14586510D02*
X10156431Y-14596034D01*
X10156431Y-14596034D02*
X10165955Y-14615082D01*
X10165955Y-14615082D02*
X10165955Y-14719844D01*
X10556431Y-14510320D02*
X10385003Y-14767463D01*
X10813574Y-14519844D02*
X10832622Y-14519844D01*
X10832622Y-14519844D02*
X10851669Y-14529368D01*
X10851669Y-14529368D02*
X10861193Y-14538891D01*
X10861193Y-14538891D02*
X10870717Y-14557939D01*
X10870717Y-14557939D02*
X10880241Y-14596034D01*
X10880241Y-14596034D02*
X10880241Y-14643653D01*
X10880241Y-14643653D02*
X10870717Y-14681748D01*
X10870717Y-14681748D02*
X10861193Y-14700796D01*
X10861193Y-14700796D02*
X10851669Y-14710320D01*
X10851669Y-14710320D02*
X10832622Y-14719844D01*
X10832622Y-14719844D02*
X10813574Y-14719844D01*
X10813574Y-14719844D02*
X10794527Y-14710320D01*
X10794527Y-14710320D02*
X10785003Y-14700796D01*
X10785003Y-14700796D02*
X10775479Y-14681748D01*
X10775479Y-14681748D02*
X10765955Y-14643653D01*
X10765955Y-14643653D02*
X10765955Y-14596034D01*
X10765955Y-14596034D02*
X10775479Y-14557939D01*
X10775479Y-14557939D02*
X10785003Y-14538891D01*
X10785003Y-14538891D02*
X10794527Y-14529368D01*
X10794527Y-14529368D02*
X10813574Y-14519844D01*
X10965955Y-14700796D02*
X10975479Y-14710320D01*
X10975479Y-14710320D02*
X10965955Y-14719844D01*
X10965955Y-14719844D02*
X10956431Y-14710320D01*
X10956431Y-14710320D02*
X10965955Y-14700796D01*
X10965955Y-14700796D02*
X10965955Y-14719844D01*
X11099288Y-14519844D02*
X11118336Y-14519844D01*
X11118336Y-14519844D02*
X11137384Y-14529368D01*
X11137384Y-14529368D02*
X11146908Y-14538891D01*
X11146908Y-14538891D02*
X11156431Y-14557939D01*
X11156431Y-14557939D02*
X11165955Y-14596034D01*
X11165955Y-14596034D02*
X11165955Y-14643653D01*
X11165955Y-14643653D02*
X11156431Y-14681748D01*
X11156431Y-14681748D02*
X11146908Y-14700796D01*
X11146908Y-14700796D02*
X11137384Y-14710320D01*
X11137384Y-14710320D02*
X11118336Y-14719844D01*
X11118336Y-14719844D02*
X11099288Y-14719844D01*
X11099288Y-14719844D02*
X11080241Y-14710320D01*
X11080241Y-14710320D02*
X11070717Y-14700796D01*
X11070717Y-14700796D02*
X11061193Y-14681748D01*
X11061193Y-14681748D02*
X11051669Y-14643653D01*
X11051669Y-14643653D02*
X11051669Y-14596034D01*
X11051669Y-14596034D02*
X11061193Y-14557939D01*
X11061193Y-14557939D02*
X11070717Y-14538891D01*
X11070717Y-14538891D02*
X11080241Y-14529368D01*
X11080241Y-14529368D02*
X11099288Y-14519844D01*
X11356431Y-14719844D02*
X11242146Y-14719844D01*
X11299288Y-14719844D02*
X11299288Y-14519844D01*
X11299288Y-14519844D02*
X11280241Y-14548415D01*
X11280241Y-14548415D02*
X11261193Y-14567463D01*
X11261193Y-14567463D02*
X11242146Y-14576987D01*
X11546907Y-14719844D02*
X11432622Y-14719844D01*
X11489765Y-14719844D02*
X11489765Y-14519844D01*
X11489765Y-14519844D02*
X11470717Y-14548415D01*
X11470717Y-14548415D02*
X11451669Y-14567463D01*
X11451669Y-14567463D02*
X11432622Y-14576987D01*
X11661193Y-14605558D02*
X11642146Y-14596034D01*
X11642146Y-14596034D02*
X11632622Y-14586510D01*
X11632622Y-14586510D02*
X11623098Y-14567463D01*
X11623098Y-14567463D02*
X11623098Y-14557939D01*
X11623098Y-14557939D02*
X11632622Y-14538891D01*
X11632622Y-14538891D02*
X11642146Y-14529368D01*
X11642146Y-14529368D02*
X11661193Y-14519844D01*
X11661193Y-14519844D02*
X11699288Y-14519844D01*
X11699288Y-14519844D02*
X11718336Y-14529368D01*
X11718336Y-14529368D02*
X11727860Y-14538891D01*
X11727860Y-14538891D02*
X11737384Y-14557939D01*
X11737384Y-14557939D02*
X11737384Y-14567463D01*
X11737384Y-14567463D02*
X11727860Y-14586510D01*
X11727860Y-14586510D02*
X11718336Y-14596034D01*
X11718336Y-14596034D02*
X11699288Y-14605558D01*
X11699288Y-14605558D02*
X11661193Y-14605558D01*
X11661193Y-14605558D02*
X11642146Y-14615082D01*
X11642146Y-14615082D02*
X11632622Y-14624606D01*
X11632622Y-14624606D02*
X11623098Y-14643653D01*
X11623098Y-14643653D02*
X11623098Y-14681748D01*
X11623098Y-14681748D02*
X11632622Y-14700796D01*
X11632622Y-14700796D02*
X11642146Y-14710320D01*
X11642146Y-14710320D02*
X11661193Y-14719844D01*
X11661193Y-14719844D02*
X11699288Y-14719844D01*
X11699288Y-14719844D02*
X11718336Y-14710320D01*
X11718336Y-14710320D02*
X11727860Y-14700796D01*
X11727860Y-14700796D02*
X11737384Y-14681748D01*
X11737384Y-14681748D02*
X11737384Y-14643653D01*
X11737384Y-14643653D02*
X11727860Y-14624606D01*
X11727860Y-14624606D02*
X11718336Y-14615082D01*
X11718336Y-14615082D02*
X11699288Y-14605558D01*
X11813574Y-14519844D02*
X11813574Y-14557939D01*
X11889765Y-14519844D02*
X11889765Y-14557939D01*
X12185003Y-14796034D02*
X12175479Y-14786510D01*
X12175479Y-14786510D02*
X12156431Y-14757939D01*
X12156431Y-14757939D02*
X12146908Y-14738891D01*
X12146908Y-14738891D02*
X12137384Y-14710320D01*
X12137384Y-14710320D02*
X12127860Y-14662701D01*
X12127860Y-14662701D02*
X12127860Y-14624606D01*
X12127860Y-14624606D02*
X12137384Y-14576987D01*
X12137384Y-14576987D02*
X12146908Y-14548415D01*
X12146908Y-14548415D02*
X12156431Y-14529368D01*
X12156431Y-14529368D02*
X12175479Y-14500796D01*
X12175479Y-14500796D02*
X12185003Y-14491272D01*
X12365955Y-14719844D02*
X12251669Y-14719844D01*
X12308812Y-14719844D02*
X12308812Y-14519844D01*
X12308812Y-14519844D02*
X12289765Y-14548415D01*
X12289765Y-14548415D02*
X12270717Y-14567463D01*
X12270717Y-14567463D02*
X12251669Y-14576987D01*
X12537384Y-14519844D02*
X12499288Y-14519844D01*
X12499288Y-14519844D02*
X12480241Y-14529368D01*
X12480241Y-14529368D02*
X12470717Y-14538891D01*
X12470717Y-14538891D02*
X12451669Y-14567463D01*
X12451669Y-14567463D02*
X12442146Y-14605558D01*
X12442146Y-14605558D02*
X12442146Y-14681748D01*
X12442146Y-14681748D02*
X12451669Y-14700796D01*
X12451669Y-14700796D02*
X12461193Y-14710320D01*
X12461193Y-14710320D02*
X12480241Y-14719844D01*
X12480241Y-14719844D02*
X12518336Y-14719844D01*
X12518336Y-14719844D02*
X12537384Y-14710320D01*
X12537384Y-14710320D02*
X12546908Y-14700796D01*
X12546908Y-14700796D02*
X12556431Y-14681748D01*
X12556431Y-14681748D02*
X12556431Y-14634129D01*
X12556431Y-14634129D02*
X12546908Y-14615082D01*
X12546908Y-14615082D02*
X12537384Y-14605558D01*
X12537384Y-14605558D02*
X12518336Y-14596034D01*
X12518336Y-14596034D02*
X12480241Y-14596034D01*
X12480241Y-14596034D02*
X12461193Y-14605558D01*
X12461193Y-14605558D02*
X12451669Y-14615082D01*
X12451669Y-14615082D02*
X12442146Y-14634129D01*
X12794527Y-14719844D02*
X12794527Y-14519844D01*
X12880241Y-14719844D02*
X12880241Y-14615082D01*
X12880241Y-14615082D02*
X12870717Y-14596034D01*
X12870717Y-14596034D02*
X12851670Y-14586510D01*
X12851670Y-14586510D02*
X12823098Y-14586510D01*
X12823098Y-14586510D02*
X12804050Y-14596034D01*
X12804050Y-14596034D02*
X12794527Y-14605558D01*
X13004050Y-14719844D02*
X12985003Y-14710320D01*
X12985003Y-14710320D02*
X12975479Y-14700796D01*
X12975479Y-14700796D02*
X12965955Y-14681748D01*
X12965955Y-14681748D02*
X12965955Y-14624606D01*
X12965955Y-14624606D02*
X12975479Y-14605558D01*
X12975479Y-14605558D02*
X12985003Y-14596034D01*
X12985003Y-14596034D02*
X13004050Y-14586510D01*
X13004050Y-14586510D02*
X13032622Y-14586510D01*
X13032622Y-14586510D02*
X13051670Y-14596034D01*
X13051670Y-14596034D02*
X13061193Y-14605558D01*
X13061193Y-14605558D02*
X13070717Y-14624606D01*
X13070717Y-14624606D02*
X13070717Y-14681748D01*
X13070717Y-14681748D02*
X13061193Y-14700796D01*
X13061193Y-14700796D02*
X13051670Y-14710320D01*
X13051670Y-14710320D02*
X13032622Y-14719844D01*
X13032622Y-14719844D02*
X13004050Y-14719844D01*
X13185003Y-14719844D02*
X13165955Y-14710320D01*
X13165955Y-14710320D02*
X13156431Y-14691272D01*
X13156431Y-14691272D02*
X13156431Y-14519844D01*
X13337384Y-14710320D02*
X13318336Y-14719844D01*
X13318336Y-14719844D02*
X13280241Y-14719844D01*
X13280241Y-14719844D02*
X13261193Y-14710320D01*
X13261193Y-14710320D02*
X13251670Y-14691272D01*
X13251670Y-14691272D02*
X13251670Y-14615082D01*
X13251670Y-14615082D02*
X13261193Y-14596034D01*
X13261193Y-14596034D02*
X13280241Y-14586510D01*
X13280241Y-14586510D02*
X13318336Y-14586510D01*
X13318336Y-14586510D02*
X13337384Y-14596034D01*
X13337384Y-14596034D02*
X13346908Y-14615082D01*
X13346908Y-14615082D02*
X13346908Y-14634129D01*
X13346908Y-14634129D02*
X13251670Y-14653177D01*
X13423098Y-14710320D02*
X13442146Y-14719844D01*
X13442146Y-14719844D02*
X13480241Y-14719844D01*
X13480241Y-14719844D02*
X13499289Y-14710320D01*
X13499289Y-14710320D02*
X13508812Y-14691272D01*
X13508812Y-14691272D02*
X13508812Y-14681748D01*
X13508812Y-14681748D02*
X13499289Y-14662701D01*
X13499289Y-14662701D02*
X13480241Y-14653177D01*
X13480241Y-14653177D02*
X13451670Y-14653177D01*
X13451670Y-14653177D02*
X13432622Y-14643653D01*
X13432622Y-14643653D02*
X13423098Y-14624606D01*
X13423098Y-14624606D02*
X13423098Y-14615082D01*
X13423098Y-14615082D02*
X13432622Y-14596034D01*
X13432622Y-14596034D02*
X13451670Y-14586510D01*
X13451670Y-14586510D02*
X13480241Y-14586510D01*
X13480241Y-14586510D02*
X13499289Y-14596034D01*
X13575479Y-14796034D02*
X13585003Y-14786510D01*
X13585003Y-14786510D02*
X13604051Y-14757939D01*
X13604051Y-14757939D02*
X13613574Y-14738891D01*
X13613574Y-14738891D02*
X13623098Y-14710320D01*
X13623098Y-14710320D02*
X13632622Y-14662701D01*
X13632622Y-14662701D02*
X13632622Y-14624606D01*
X13632622Y-14624606D02*
X13623098Y-14576987D01*
X13623098Y-14576987D02*
X13613574Y-14548415D01*
X13613574Y-14548415D02*
X13604051Y-14529368D01*
X13604051Y-14529368D02*
X13585003Y-14500796D01*
X13585003Y-14500796D02*
X13575479Y-14491272D01*
D13*
X8609940Y-14892360D02*
G75*
G03*
X8609940Y-14892360I-55000J0D01*
G01*
D11*
X8975479Y-14983844D02*
X8861193Y-14983844D01*
X8918336Y-14983844D02*
X8918336Y-14783844D01*
X8918336Y-14783844D02*
X8899288Y-14812415D01*
X8899288Y-14812415D02*
X8880241Y-14831463D01*
X8880241Y-14831463D02*
X8861193Y-14840987D01*
X9061193Y-14964796D02*
X9070717Y-14974320D01*
X9070717Y-14974320D02*
X9061193Y-14983844D01*
X9061193Y-14983844D02*
X9051669Y-14974320D01*
X9051669Y-14974320D02*
X9061193Y-14964796D01*
X9061193Y-14964796D02*
X9061193Y-14983844D01*
X9261193Y-14983844D02*
X9146907Y-14983844D01*
X9204050Y-14983844D02*
X9204050Y-14783844D01*
X9204050Y-14783844D02*
X9185003Y-14812415D01*
X9185003Y-14812415D02*
X9165955Y-14831463D01*
X9165955Y-14831463D02*
X9146907Y-14840987D01*
X9385003Y-14783844D02*
X9404050Y-14783844D01*
X9404050Y-14783844D02*
X9423098Y-14793368D01*
X9423098Y-14793368D02*
X9432622Y-14802891D01*
X9432622Y-14802891D02*
X9442145Y-14821939D01*
X9442145Y-14821939D02*
X9451669Y-14860034D01*
X9451669Y-14860034D02*
X9451669Y-14907653D01*
X9451669Y-14907653D02*
X9442145Y-14945748D01*
X9442145Y-14945748D02*
X9432622Y-14964796D01*
X9432622Y-14964796D02*
X9423098Y-14974320D01*
X9423098Y-14974320D02*
X9404050Y-14983844D01*
X9404050Y-14983844D02*
X9385003Y-14983844D01*
X9385003Y-14983844D02*
X9365955Y-14974320D01*
X9365955Y-14974320D02*
X9356431Y-14964796D01*
X9356431Y-14964796D02*
X9346907Y-14945748D01*
X9346907Y-14945748D02*
X9337384Y-14907653D01*
X9337384Y-14907653D02*
X9337384Y-14860034D01*
X9337384Y-14860034D02*
X9346907Y-14821939D01*
X9346907Y-14821939D02*
X9356431Y-14802891D01*
X9356431Y-14802891D02*
X9365955Y-14793368D01*
X9365955Y-14793368D02*
X9385003Y-14783844D01*
X9575479Y-14783844D02*
X9594526Y-14783844D01*
X9594526Y-14783844D02*
X9613574Y-14793368D01*
X9613574Y-14793368D02*
X9623098Y-14802891D01*
X9623098Y-14802891D02*
X9632622Y-14821939D01*
X9632622Y-14821939D02*
X9642145Y-14860034D01*
X9642145Y-14860034D02*
X9642145Y-14907653D01*
X9642145Y-14907653D02*
X9632622Y-14945748D01*
X9632622Y-14945748D02*
X9623098Y-14964796D01*
X9623098Y-14964796D02*
X9613574Y-14974320D01*
X9613574Y-14974320D02*
X9594526Y-14983844D01*
X9594526Y-14983844D02*
X9575479Y-14983844D01*
X9575479Y-14983844D02*
X9556431Y-14974320D01*
X9556431Y-14974320D02*
X9546907Y-14964796D01*
X9546907Y-14964796D02*
X9537384Y-14945748D01*
X9537384Y-14945748D02*
X9527860Y-14907653D01*
X9527860Y-14907653D02*
X9527860Y-14860034D01*
X9527860Y-14860034D02*
X9537384Y-14821939D01*
X9537384Y-14821939D02*
X9546907Y-14802891D01*
X9546907Y-14802891D02*
X9556431Y-14793368D01*
X9556431Y-14793368D02*
X9575479Y-14783844D01*
X9727860Y-14983844D02*
X9727860Y-14850510D01*
X9727860Y-14869558D02*
X9737384Y-14860034D01*
X9737384Y-14860034D02*
X9756431Y-14850510D01*
X9756431Y-14850510D02*
X9785003Y-14850510D01*
X9785003Y-14850510D02*
X9804050Y-14860034D01*
X9804050Y-14860034D02*
X9813574Y-14879082D01*
X9813574Y-14879082D02*
X9813574Y-14983844D01*
X9813574Y-14879082D02*
X9823098Y-14860034D01*
X9823098Y-14860034D02*
X9842145Y-14850510D01*
X9842145Y-14850510D02*
X9870717Y-14850510D01*
X9870717Y-14850510D02*
X9889765Y-14860034D01*
X9889765Y-14860034D02*
X9899288Y-14879082D01*
X9899288Y-14879082D02*
X9899288Y-14983844D01*
X9994526Y-14983844D02*
X9994526Y-14850510D01*
X9994526Y-14869558D02*
X10004050Y-14860034D01*
X10004050Y-14860034D02*
X10023098Y-14850510D01*
X10023098Y-14850510D02*
X10051669Y-14850510D01*
X10051669Y-14850510D02*
X10070717Y-14860034D01*
X10070717Y-14860034D02*
X10080241Y-14879082D01*
X10080241Y-14879082D02*
X10080241Y-14983844D01*
X10080241Y-14879082D02*
X10089765Y-14860034D01*
X10089765Y-14860034D02*
X10108812Y-14850510D01*
X10108812Y-14850510D02*
X10137384Y-14850510D01*
X10137384Y-14850510D02*
X10156431Y-14860034D01*
X10156431Y-14860034D02*
X10165955Y-14879082D01*
X10165955Y-14879082D02*
X10165955Y-14983844D01*
X10556431Y-14774320D02*
X10385003Y-15031463D01*
X10813574Y-14783844D02*
X10832622Y-14783844D01*
X10832622Y-14783844D02*
X10851669Y-14793368D01*
X10851669Y-14793368D02*
X10861193Y-14802891D01*
X10861193Y-14802891D02*
X10870717Y-14821939D01*
X10870717Y-14821939D02*
X10880241Y-14860034D01*
X10880241Y-14860034D02*
X10880241Y-14907653D01*
X10880241Y-14907653D02*
X10870717Y-14945748D01*
X10870717Y-14945748D02*
X10861193Y-14964796D01*
X10861193Y-14964796D02*
X10851669Y-14974320D01*
X10851669Y-14974320D02*
X10832622Y-14983844D01*
X10832622Y-14983844D02*
X10813574Y-14983844D01*
X10813574Y-14983844D02*
X10794527Y-14974320D01*
X10794527Y-14974320D02*
X10785003Y-14964796D01*
X10785003Y-14964796D02*
X10775479Y-14945748D01*
X10775479Y-14945748D02*
X10765955Y-14907653D01*
X10765955Y-14907653D02*
X10765955Y-14860034D01*
X10765955Y-14860034D02*
X10775479Y-14821939D01*
X10775479Y-14821939D02*
X10785003Y-14802891D01*
X10785003Y-14802891D02*
X10794527Y-14793368D01*
X10794527Y-14793368D02*
X10813574Y-14783844D01*
X10965955Y-14964796D02*
X10975479Y-14974320D01*
X10975479Y-14974320D02*
X10965955Y-14983844D01*
X10965955Y-14983844D02*
X10956431Y-14974320D01*
X10956431Y-14974320D02*
X10965955Y-14964796D01*
X10965955Y-14964796D02*
X10965955Y-14983844D01*
X11099288Y-14783844D02*
X11118336Y-14783844D01*
X11118336Y-14783844D02*
X11137384Y-14793368D01*
X11137384Y-14793368D02*
X11146908Y-14802891D01*
X11146908Y-14802891D02*
X11156431Y-14821939D01*
X11156431Y-14821939D02*
X11165955Y-14860034D01*
X11165955Y-14860034D02*
X11165955Y-14907653D01*
X11165955Y-14907653D02*
X11156431Y-14945748D01*
X11156431Y-14945748D02*
X11146908Y-14964796D01*
X11146908Y-14964796D02*
X11137384Y-14974320D01*
X11137384Y-14974320D02*
X11118336Y-14983844D01*
X11118336Y-14983844D02*
X11099288Y-14983844D01*
X11099288Y-14983844D02*
X11080241Y-14974320D01*
X11080241Y-14974320D02*
X11070717Y-14964796D01*
X11070717Y-14964796D02*
X11061193Y-14945748D01*
X11061193Y-14945748D02*
X11051669Y-14907653D01*
X11051669Y-14907653D02*
X11051669Y-14860034D01*
X11051669Y-14860034D02*
X11061193Y-14821939D01*
X11061193Y-14821939D02*
X11070717Y-14802891D01*
X11070717Y-14802891D02*
X11080241Y-14793368D01*
X11080241Y-14793368D02*
X11099288Y-14783844D01*
X11337384Y-14850510D02*
X11337384Y-14983844D01*
X11289765Y-14774320D02*
X11242146Y-14917177D01*
X11242146Y-14917177D02*
X11365955Y-14917177D01*
X11423098Y-14783844D02*
X11546907Y-14783844D01*
X11546907Y-14783844D02*
X11480241Y-14860034D01*
X11480241Y-14860034D02*
X11508812Y-14860034D01*
X11508812Y-14860034D02*
X11527860Y-14869558D01*
X11527860Y-14869558D02*
X11537384Y-14879082D01*
X11537384Y-14879082D02*
X11546907Y-14898129D01*
X11546907Y-14898129D02*
X11546907Y-14945748D01*
X11546907Y-14945748D02*
X11537384Y-14964796D01*
X11537384Y-14964796D02*
X11527860Y-14974320D01*
X11527860Y-14974320D02*
X11508812Y-14983844D01*
X11508812Y-14983844D02*
X11451669Y-14983844D01*
X11451669Y-14983844D02*
X11432622Y-14974320D01*
X11432622Y-14974320D02*
X11423098Y-14964796D01*
X11613574Y-14783844D02*
X11737384Y-14783844D01*
X11737384Y-14783844D02*
X11670717Y-14860034D01*
X11670717Y-14860034D02*
X11699288Y-14860034D01*
X11699288Y-14860034D02*
X11718336Y-14869558D01*
X11718336Y-14869558D02*
X11727860Y-14879082D01*
X11727860Y-14879082D02*
X11737384Y-14898129D01*
X11737384Y-14898129D02*
X11737384Y-14945748D01*
X11737384Y-14945748D02*
X11727860Y-14964796D01*
X11727860Y-14964796D02*
X11718336Y-14974320D01*
X11718336Y-14974320D02*
X11699288Y-14983844D01*
X11699288Y-14983844D02*
X11642146Y-14983844D01*
X11642146Y-14983844D02*
X11623098Y-14974320D01*
X11623098Y-14974320D02*
X11613574Y-14964796D01*
X11813574Y-14783844D02*
X11813574Y-14821939D01*
X11889765Y-14783844D02*
X11889765Y-14821939D01*
X12185003Y-15060034D02*
X12175479Y-15050510D01*
X12175479Y-15050510D02*
X12156431Y-15021939D01*
X12156431Y-15021939D02*
X12146908Y-15002891D01*
X12146908Y-15002891D02*
X12137384Y-14974320D01*
X12137384Y-14974320D02*
X12127860Y-14926701D01*
X12127860Y-14926701D02*
X12127860Y-14888606D01*
X12127860Y-14888606D02*
X12137384Y-14840987D01*
X12137384Y-14840987D02*
X12146908Y-14812415D01*
X12146908Y-14812415D02*
X12156431Y-14793368D01*
X12156431Y-14793368D02*
X12175479Y-14764796D01*
X12175479Y-14764796D02*
X12185003Y-14755272D01*
X12346908Y-14783844D02*
X12308812Y-14783844D01*
X12308812Y-14783844D02*
X12289765Y-14793368D01*
X12289765Y-14793368D02*
X12280241Y-14802891D01*
X12280241Y-14802891D02*
X12261193Y-14831463D01*
X12261193Y-14831463D02*
X12251669Y-14869558D01*
X12251669Y-14869558D02*
X12251669Y-14945748D01*
X12251669Y-14945748D02*
X12261193Y-14964796D01*
X12261193Y-14964796D02*
X12270717Y-14974320D01*
X12270717Y-14974320D02*
X12289765Y-14983844D01*
X12289765Y-14983844D02*
X12327860Y-14983844D01*
X12327860Y-14983844D02*
X12346908Y-14974320D01*
X12346908Y-14974320D02*
X12356431Y-14964796D01*
X12356431Y-14964796D02*
X12365955Y-14945748D01*
X12365955Y-14945748D02*
X12365955Y-14898129D01*
X12365955Y-14898129D02*
X12356431Y-14879082D01*
X12356431Y-14879082D02*
X12346908Y-14869558D01*
X12346908Y-14869558D02*
X12327860Y-14860034D01*
X12327860Y-14860034D02*
X12289765Y-14860034D01*
X12289765Y-14860034D02*
X12270717Y-14869558D01*
X12270717Y-14869558D02*
X12261193Y-14879082D01*
X12261193Y-14879082D02*
X12251669Y-14898129D01*
X12604050Y-14983844D02*
X12604050Y-14783844D01*
X12689765Y-14983844D02*
X12689765Y-14879082D01*
X12689765Y-14879082D02*
X12680241Y-14860034D01*
X12680241Y-14860034D02*
X12661193Y-14850510D01*
X12661193Y-14850510D02*
X12632622Y-14850510D01*
X12632622Y-14850510D02*
X12613574Y-14860034D01*
X12613574Y-14860034D02*
X12604050Y-14869558D01*
X12813574Y-14983844D02*
X12794527Y-14974320D01*
X12794527Y-14974320D02*
X12785003Y-14964796D01*
X12785003Y-14964796D02*
X12775479Y-14945748D01*
X12775479Y-14945748D02*
X12775479Y-14888606D01*
X12775479Y-14888606D02*
X12785003Y-14869558D01*
X12785003Y-14869558D02*
X12794527Y-14860034D01*
X12794527Y-14860034D02*
X12813574Y-14850510D01*
X12813574Y-14850510D02*
X12842146Y-14850510D01*
X12842146Y-14850510D02*
X12861193Y-14860034D01*
X12861193Y-14860034D02*
X12870717Y-14869558D01*
X12870717Y-14869558D02*
X12880241Y-14888606D01*
X12880241Y-14888606D02*
X12880241Y-14945748D01*
X12880241Y-14945748D02*
X12870717Y-14964796D01*
X12870717Y-14964796D02*
X12861193Y-14974320D01*
X12861193Y-14974320D02*
X12842146Y-14983844D01*
X12842146Y-14983844D02*
X12813574Y-14983844D01*
X12994527Y-14983844D02*
X12975479Y-14974320D01*
X12975479Y-14974320D02*
X12965955Y-14955272D01*
X12965955Y-14955272D02*
X12965955Y-14783844D01*
X13146908Y-14974320D02*
X13127860Y-14983844D01*
X13127860Y-14983844D02*
X13089765Y-14983844D01*
X13089765Y-14983844D02*
X13070717Y-14974320D01*
X13070717Y-14974320D02*
X13061193Y-14955272D01*
X13061193Y-14955272D02*
X13061193Y-14879082D01*
X13061193Y-14879082D02*
X13070717Y-14860034D01*
X13070717Y-14860034D02*
X13089765Y-14850510D01*
X13089765Y-14850510D02*
X13127860Y-14850510D01*
X13127860Y-14850510D02*
X13146908Y-14860034D01*
X13146908Y-14860034D02*
X13156431Y-14879082D01*
X13156431Y-14879082D02*
X13156431Y-14898129D01*
X13156431Y-14898129D02*
X13061193Y-14917177D01*
X13232622Y-14974320D02*
X13251670Y-14983844D01*
X13251670Y-14983844D02*
X13289765Y-14983844D01*
X13289765Y-14983844D02*
X13308812Y-14974320D01*
X13308812Y-14974320D02*
X13318336Y-14955272D01*
X13318336Y-14955272D02*
X13318336Y-14945748D01*
X13318336Y-14945748D02*
X13308812Y-14926701D01*
X13308812Y-14926701D02*
X13289765Y-14917177D01*
X13289765Y-14917177D02*
X13261193Y-14917177D01*
X13261193Y-14917177D02*
X13242146Y-14907653D01*
X13242146Y-14907653D02*
X13232622Y-14888606D01*
X13232622Y-14888606D02*
X13232622Y-14879082D01*
X13232622Y-14879082D02*
X13242146Y-14860034D01*
X13242146Y-14860034D02*
X13261193Y-14850510D01*
X13261193Y-14850510D02*
X13289765Y-14850510D01*
X13289765Y-14850510D02*
X13308812Y-14860034D01*
X13385003Y-15060034D02*
X13394527Y-15050510D01*
X13394527Y-15050510D02*
X13413574Y-15021939D01*
X13413574Y-15021939D02*
X13423098Y-15002891D01*
X13423098Y-15002891D02*
X13432622Y-14974320D01*
X13432622Y-14974320D02*
X13442146Y-14926701D01*
X13442146Y-14926701D02*
X13442146Y-14888606D01*
X13442146Y-14888606D02*
X13432622Y-14840987D01*
X13432622Y-14840987D02*
X13423098Y-14812415D01*
X13423098Y-14812415D02*
X13413574Y-14793368D01*
X13413574Y-14793368D02*
X13394527Y-14764796D01*
X13394527Y-14764796D02*
X13385003Y-14755272D01*
M02*
